<?xml version="1.0" standalone="no"?>
<!DOCTYPE svg PUBLIC "-//W3C//DTD SVG 1.1//EN" "http://www.w3.org/Graphics/SVG/1.1/DTD/svg11.dtd" >
<svg xmlns="http://www.w3.org/2000/svg">
<metadata>
Created by FontPrep 20130207 at Mon Aug  1 12:00:03 2016
 By With Projects
Part of the digitally encoded machine readable outline data for producing the Typefaces provided is copyrighted (c) 2009 Linotype Corp., www.linotype.com. All rights reserved. This software is the property of Linotype Corp., and may not be reproduced, used, displayed, modified, disclosed or transferred without the express written approval of Linotype Corp..  The digitally encoded machine readable software for producing the Typefaces licensed to you is copyrighted (c) 1988, 1990, 1993 Adobe Systems. All Rights Reserved. This software is the property of Adobe Systems Incorporated and its licensors, and may not be reproduced, used, displayed, modified, disclosed or transferred without the express written approval of Adobe. Helvetica is a trademark of Linotype Corp. registered in the U.S. Patent and Trademark Office and may be registered in certain other jurisdictions in the name of Linotype Corp. or its licensee Linotype GmbH. This typeface is original artwork of Linotype Design Studio and Nadine Chahine. The design may be protected in certain jurisdictions.
</metadata>
<defs>
<font id="16a921d5f5621d3d9972e2b53b879ef9" horiz-adv-x='1024' >
  <font-face 
    font-family="HelveticaNeueLTArabic-Bold"
    font-weight="700"
    font-stretch="normal"
    units-per-em="2048"
    panose-1="2 11 8 4 2 2 2 2 2 4"
    ascent="1638"
    descent="-410"
    x-height="1059"
    cap-height="1462"
    bbox="-397 -952 2765 2845"
    underline-thickness="102"
    underline-position="-102"
    unicode-range="U+000D-FEFC"
  />
<missing-glyph horiz-adv-x="569" 
 />
    <glyph glyph-name="uniFEF5" unicode="&#xfedf;&#xfe82;" horiz-adv-x="1376" arabic-form="isolated" 
d="M1253 1462v-1462h-1192v236h394v927h268v-927h262v1226h268zM160 1450q97 94 182 94q84 0 192 -54t159 -54q82 0 110 92l106 -47q-35 -90 -80 -139.5t-131 -49.5t-196 54q-115 51 -164 51t-113 -45z" />
    <glyph glyph-name="uniFEF6" unicode="&#xfee0;&#xfe82;" horiz-adv-x="1380" arabic-form="final" 
d="M1371 0q-143 0 -202 104q-65 -90 -212 -101q-42 -3 -85 -3h-811v236h369v927h266v-927h133q70 0 97.5 21.5t27.5 96.5v1108h267v-1085q0 -76 30.5 -108.5t128.5 -32.5q60 0 74 -52q6 -22 6 -76.5t-19.5 -81t-69.5 -26.5zM160 1450q97 94 181.5 94t192.5 -54t159 -54
q82 0 110 92l106 -47q-35 -90 -80 -139.5t-131 -49.5t-196 54q-115 51 -164 51t-113 -45z" />
    <glyph glyph-name="uniFEF7" unicode="&#xfedf;&#xfe84;" horiz-adv-x="1376" arabic-form="isolated" 
d="M1253 1462v-1462h-1192v236h394v927h268v-927h262v1226h268zM584 1491q0 -68 84 -68h108v-143h-399v143h82q-19 27 -19 79q0 97 56 146.5t123 49.5t114 -21v-135q-53 12 -76 12q-73 0 -73 -63z" />
    <glyph glyph-name="uniFEF8" unicode="&#xfee0;&#xfe84;" horiz-adv-x="1380" arabic-form="final" 
d="M1371 0q-143 0 -202 104q-65 -90 -212 -101q-42 -3 -85 -3h-811v236h369v927h266v-927h133q70 0 97.5 21.5t27.5 96.5v1108h267v-1085q0 -76 30.5 -108.5t128.5 -32.5q60 0 74 -52q6 -22 6 -76.5t-19.5 -81t-69.5 -26.5zM584 1491q0 -68 84 -68h108v-143h-399v143h82
q-19 27 -19 79q0 97 56 146.5t123 49.5t114 -21v-135q-53 12 -76 12q-73 0 -73 -63z" />
    <glyph glyph-name="uniFEF9" unicode="&#xfedf;&#xfe88;" horiz-adv-x="1376" arabic-form="isolated" 
d="M1253 1462v-1462h-1192v236h394v927h268v-927h262v1226h268zM588 -324q0 -66 84 -65h108v-143h-399v143h82q-19 27 -19 78q0 95 55 145.5t121.5 50.5t116.5 -20v-137q-53 12 -83.5 12t-48 -19t-17.5 -45z" />
    <glyph glyph-name="uniFEFA" unicode="&#xfee0;&#xfe88;" horiz-adv-x="1380" arabic-form="final" 
d="M1371 0q-143 0 -202 104q-65 -90 -212 -101q-42 -3 -85 -3h-811v236h369v927h266v-927h133q70 0 97.5 21.5t27.5 96.5v1108h267v-1085q0 -76 30.5 -108.5t128.5 -32.5q60 0 74 -52q6 -22 6 -76.5t-19.5 -81t-69.5 -26.5zM573 -324q0 -66 84 -65h109v-143h-399v143h82
q-19 27 -19 78q0 95 55 145q93 86 238 31v-137q-53 12 -84 12t-48.5 -19t-17.5 -45z" />
    <glyph glyph-name="uniFEFB" unicode="&#xfedf;&#xfe8e;" horiz-adv-x="1376" arabic-form="isolated" 
d="M1253 1462v-1462h-1192v236h394v927h268v-927h262v1226h268z" />
    <glyph glyph-name="uniFEFC" unicode="&#xfee0;&#xfe8e;" horiz-adv-x="1380" arabic-form="final" 
d="M1371 0q-143 0 -202 104q-65 -90 -212 -101q-42 -3 -85 -3h-811v236h369v927h266v-927h133q70 0 97.5 21.5t27.5 96.5v1108h267v-1085q0 -76 30.5 -108.5t128.5 -32.5q60 0 74 -52q6 -22 6 -76.5t-19.5 -81t-69.5 -26.5z" />
    <glyph glyph-name="uni06440671" unicode="&#xfedf;&#xfb51;" horiz-adv-x="1376" 
d="M1253 1462v-1462h-1192v236h394v927h268v-927h262v1226h268zM793 1401v-121h-437v98h72v160h98v-31q51 51 127 52q140 0 140 -158zM696 1407q0 66 -65 66t-105 -64v-31h170v29z" />
    <glyph glyph-name="uni06440671.fina" unicode="&#xfee0;&#xfb51;" horiz-adv-x="1380" 
d="M1371 0q-143 0 -202 104q-65 -90 -212 -101q-42 -3 -85 -3h-811v236h369v927h266v-927h133q70 0 97.5 21.5t27.5 96.5v1108h267v-1085q0 -76 30.5 -108.5t128.5 -32.5q60 0 74 -52q6 -22 6 -76.5t-19.5 -81t-69.5 -26.5zM793 1401v-121h-437v98h72v160h98v-31
q51 51 127 52q140 0 140 -158zM696 1407q0 66 -65 66t-105 -64v-31h170v29z" />
    <glyph glyph-name="uni0621" unicode="&#x621;" horiz-adv-x="800" arabic-form="isolated" 
d="M520 465q-60 0 -92.5 -33t-32.5 -86t39 -81.5t103 -28.5h202v-236h-661v236h104q-30 58 -30 132q0 148 94.5 236t228.5 88q91 0 191 -35v-211q-86 19 -146 19z" />
    <glyph glyph-name="uni0622" unicode="&#x622;" horiz-adv-x="509" arabic-form="isolated" 
d="M387 1462v-1462h-264v1462h264zM-106 1724q98 95 182 95q84 -1 193 -55t159 -54q79 0 109 92l106 -47q-35 -90 -80 -139t-132 -49t-195 53q-115 51 -165 51t-112 -45z" />
    <glyph glyph-name="uni0623" unicode="&#x623;" horiz-adv-x="509" arabic-form="isolated" 
d="M387 1462v-1462h-264v1462h264zM256 1796q0 -67 84 -67h109v-144h-400v144h82q-18 25 -18 78q0 98 56.5 147t122 49t114.5 -21v-135q-53 12 -84 12.5t-48.5 -18t-17.5 -45.5z" />
    <glyph glyph-name="uni0624" unicode="&#x624;" horiz-adv-x="980" arabic-form="isolated" 
d="M313 391q0 -162 154 -162q84 0 135 29v100q0 104 -30.5 166t-110.5 62q-148 0 -148 -195zM868 123q0 -288 -153 -418.5t-500 -130.5h-63v250h47q303 0 369 116q20 36 24 78q-60 -18 -146 -18q-182 0 -288.5 94t-106.5 278t111 318.5t307 134.5q399 0 399 -530v-172z
M446 1264q0 -76 99 -76h127v-168h-467v168h94q-20 32 -20 92q0 109 64.5 167t136.5 58t141 -24v-158q-54 14 -95 14t-60.5 -21.5t-19.5 -51.5z" />
    <glyph glyph-name="uni0625" unicode="&#x625;" horiz-adv-x="509" arabic-form="isolated" 
d="M387 1462v-1462h-264v1462h264zM244 -324q0 -66 84 -65h108v-143h-399v143h82q-19 27 -19 78q0 95 55 145.5t121.5 50.5t116.5 -20v-137q-53 12 -84 12t-48 -19t-17 -45z" />
    <glyph glyph-name="uni0626" unicode="&#x626;" horiz-adv-x="1499" arabic-form="isolated" 
d="M1227 625q-114 0 -167.5 -51.5t-53.5 -108.5t42 -90t110 -65q135 -64 187 -128.5t52 -152.5q0 -209 -155 -341q-193 -164 -561 -165q-681 0 -681 502v329h266v-317q0 -125 92 -193t326 -69q234 1 353 71q87 51 87 127q0 31 -23.5 49.5t-79.5 48.5q-146 78 -199 137
q-83 92 -83 218q0 174 120 314.5t337 140.5q101 0 221 -43v-240q-122 27 -190 27zM258 858q0 -76 98 -76h127v-168h-467v168h95q-21 34 -21 93q0 108 65 166.5t136.5 58.5t140.5 -25v-157q-54 14 -94.5 14t-60 -21.5t-19.5 -52.5z" />
    <glyph glyph-name="uni0627" unicode="&#x627;" horiz-adv-x="509" arabic-form="isolated" 
d="M387 1462v-1462h-264v1462h264z" />
    <glyph glyph-name="uni0628" unicode="&#x628;" horiz-adv-x="1773" arabic-form="isolated" 
d="M1651 0h-1225q-241 0 -334 74q-92 74 -92 250v338h268v-300q0 -77 46 -101q46 -25 188 -25h882v579h267v-815zM707 -344q0 59 43 102t102 43t102 -43t43 -102t-43 -102t-102 -43t-102 43t-43 102z" />
    <glyph glyph-name="uni0629" unicode="&#x629;" horiz-adv-x="903" arabic-form="isolated" 
d="M113.5 696q113.5 146 287.5 146t287 -129t113 -344q-1 -251 -221 -345q-76 -32 -174.5 -32t-171 22.5t-124.5 68.5q-110 96 -110 281.5t113.5 331.5zM254 393q0 -168 145 -168q150 0 150 152q0 92 -38 157.5t-111 65.5t-109.5 -63.5t-36.5 -143.5zM432 1169.5
q0 59.5 43 102.5t102.5 43t102.5 -43t43 -102.5t-43 -102.5t-102.5 -43t-102.5 43t-43 102.5zM98 1169.5q0 59.5 43 102.5t102.5 43t102.5 -43t43 -102.5t-43 -102.5t-102.5 -43t-102.5 43t-43 102.5z" />
    <glyph glyph-name="uni062A" unicode="&#x62a;" horiz-adv-x="1773" arabic-form="isolated" 
d="M1651 0h-1225q-241 0 -334 74q-92 74 -92 250v338h268v-300q0 -77 46 -101q46 -25 188 -25h882v579h267v-815zM858 1050.5q0 59.5 43 102.5t102.5 43t102.5 -43t43 -102.5t-43 -102.5t-102.5 -43t-102.5 43t-43 102.5zM524 1050.5q0 59.5 43 102.5t102.5 43t102.5 -43
t43 -102.5t-43 -102.5t-102.5 -43t-102.5 43t-43 102.5z" />
    <glyph glyph-name="uni062B" unicode="&#x62b;" horiz-adv-x="1773" arabic-form="isolated" 
d="M1651 0h-1225q-241 0 -334 74q-92 74 -92 250v338h268v-300q0 -77 46 -101q46 -25 188 -25h882v579h267v-815zM690 1347.5q0 59.5 43 102.5t102.5 43t102.5 -43t43 -102.5t-43 -102.5t-102.5 -43t-102.5 43t-43 102.5zM852 1050.5q0 59.5 43 102.5t102.5 43t102.5 -43
t43 -102.5t-43 -102.5t-102.5 -43t-102.5 43t-43 102.5zM518 1050.5q0 59.5 43 102.5t102.5 43t102.5 -43t43 -102.5t-43 -102.5t-102.5 -43t-102.5 43t-43 102.5z" />
    <glyph glyph-name="uni062C" unicode="&#x62c;" horiz-adv-x="1277" arabic-form="isolated" 
d="M599 -563q153 0 359 94l103 -190q-229 -154 -482 -154t-416 131.5t-163 386.5t154.5 393t418.5 138h338q-10 180 -93 276t-265 96q-117 0 -248 -39v238q156 53 306 53q289 0 437 -202q128 -175 128 -468v-190h-605q-145 0 -222 -78t-77 -207t87 -203.5t240 -74.5z
M502 -282.5q0 59.5 43 102.5t102.5 43t102.5 -43t43 -102.5t-43 -102.5t-102.5 -43t-102.5 43t-43 102.5z" />
    <glyph glyph-name="uni062D" unicode="&#x62d;" horiz-adv-x="1277" arabic-form="isolated" 
d="M599 -563q153 0 359 94l103 -190q-229 -154 -482 -154t-416 131.5t-163 386.5t154.5 393t418.5 138h338q-10 180 -93 276t-265 96q-117 0 -248 -39v238q156 53 306 53q289 0 437 -202q128 -175 128 -468v-190h-605q-145 0 -222 -78t-77 -207t87 -203.5t240 -74.5z" />
    <glyph glyph-name="uni062E" unicode="&#x62e;" horiz-adv-x="1277" arabic-form="isolated" 
d="M599 -563q153 0 359 94l103 -190q-229 -154 -482 -154t-416 131.5t-163 386.5t154.5 393t418.5 138h338q-10 180 -93 276t-265 96q-117 0 -248 -39v238q156 53 306 53q289 0 437 -202q128 -175 128 -468v-190h-605q-145 0 -222 -78t-77 -207t87 -203.5t240 -74.5z
M434 1169.5q0 59.5 43 102.5t102.5 43t102.5 -43t43 -102.5t-43 -102.5t-102.5 -43t-102.5 43t-43 102.5z" />
    <glyph glyph-name="uni062F" unicode="&#x62f;" horiz-adv-x="907" arabic-form="isolated" 
d="M825 263q0 -118 -72.5 -190.5t-217.5 -72.5h-496v236h401q101 0 101 43q0 26 -18 57t-99 149l-162 242q136 91 242 156l178 -289q72 -117 107.5 -195t35.5 -136z" />
    <glyph glyph-name="uni0630" unicode="&#x630;" horiz-adv-x="907" arabic-form="isolated" 
d="M825 263q0 -118 -72.5 -190.5t-217.5 -72.5h-496v236h401q101 0 101 43q0 26 -18 57t-99 149l-162 242q136 91 242 156l178 -289q72 -117 107.5 -195t35.5 -136zM203 1169.5q0 59.5 43 102.5t102.5 43t102.5 -43t43 -102.5t-43 -102.5t-102.5 -43t-102.5 43t-43 102.5z
" />
    <glyph glyph-name="uni0631" unicode="&#x631;" horiz-adv-x="653" arabic-form="isolated" 
d="M264 725h266v-610q0 -301 -101 -417q-56 -64 -155.5 -93t-253.5 -31v250q159 4 202 65q42 61 42 226v610z" />
    <glyph glyph-name="uni0632" unicode="&#x632;" horiz-adv-x="653" arabic-form="isolated" 
d="M264 725h266v-610q0 -301 -101 -417q-56 -64 -155.5 -93t-253.5 -31v250q159 4 202 65q42 61 42 226v610zM244 1169.5q0 59.5 43 102.5t102.5 43t102.5 -43t43 -102.5t-43 -102.5t-102.5 -43t-102.5 43t-43 102.5z" />
    <glyph glyph-name="uni0633" unicode="&#x633;" horiz-adv-x="2316" arabic-form="isolated" 
d="M557 -481q-557 0 -557 530v281h264v-271q0 -143 75 -219t225.5 -76t223 65t72.5 216v680h264v-348q0 -141 146 -141q59 0 102 18t43 80v391h264v-348q0 -72 26 -106.5t95 -34.5h129v579h264v-815h-313q-111 0 -168 28.5t-88 77.5q-92 -106 -262 -106q-86 0 -151.5 24.5
t-90.5 47.5q-6 -444 -328 -526q-104 -26 -235 -27z" />
    <glyph glyph-name="uni0634" unicode="&#x634;" horiz-adv-x="2316" arabic-form="isolated" 
d="M557 -481q-557 0 -557 530v281h264v-271q0 -143 75 -219t225.5 -76t223 65t72.5 216v680h264v-348q0 -141 146 -141q59 0 102 18t43 80v391h264v-348q0 -72 26 -106.5t95 -34.5h129v579h264v-815h-313q-111 0 -168 28.5t-88 77.5q-92 -106 -262 -106q-86 0 -151.5 24.5
t-90.5 47.5q-6 -444 -328 -526q-104 -26 -235 -27zM1395 1466.5q0 59.5 43 102.5t102 43t102.5 -43t43.5 -102.5t-43.5 -102.5t-102.5 -43t-102 43t-43 102.5zM1556 1169.5q0 59.5 43 102.5t102.5 43t102.5 -43t43 -102.5t-43 -102.5t-102.5 -43t-102.5 43t-43 102.5z
M1223 1169.5q0 59.5 43 102.5t102 43t102 -43t43 -102.5t-43 -102.5t-102 -43t-102 43t-43 102.5z" />
    <glyph glyph-name="uni0635" unicode="&#x635;" horiz-adv-x="2635" arabic-form="isolated" 
d="M2259 236v96q0 104 -46 171.5t-169 67.5t-234 -97t-161 -238h610zM1450 0q-198 0 -280 43q-26 14 -52 33q-6 -448 -328 -530q-104 -26 -235 -27q-555 0 -555 530v281h262v-283q0 -283 297 -283q154 0 226.5 58.5t72.5 210.5v692h264v-348q0 -66 57.5 -102.5t202.5 -36.5
q88 255 272 430q184 174 427 174q205 0 323.5 -124t118.5 -351v-367h-1073z" />
    <glyph glyph-name="uni0636" unicode="&#x636;" horiz-adv-x="2635" arabic-form="isolated" 
d="M2259 236v96q0 104 -46 171.5t-169 67.5t-234 -97t-161 -238h610zM1450 0q-198 0 -280 43q-26 14 -52 33q-6 -448 -328 -530q-104 -26 -235 -27q-555 0 -555 530v281h262v-283q0 -283 297 -283q154 0 226.5 58.5t72.5 210.5v692h264v-348q0 -66 57.5 -102.5t202.5 -36.5
q88 255 272 430q184 174 427 174q205 0 323.5 -124t118.5 -351v-367h-1073zM1929 1169.5q0 59.5 43 102.5t102.5 43t102.5 -43t43 -102.5t-43 -102.5t-102.5 -43t-102.5 43t-43 102.5z" />
    <glyph glyph-name="uni0637" unicode="&#x637;" horiz-adv-x="1564" arabic-form="isolated" 
d="M1018 842q219 0 326.5 -126t107.5 -349v-367h-1419v236h272v1226h266v-897q62 121 187 199t260 78zM1186 367q0 225 -201 225q-125 0 -236 -103q-112 -103 -165 -253h602v131z" />
    <glyph glyph-name="uni0638" unicode="&#x638;" horiz-adv-x="1564" arabic-form="isolated" 
d="M1018 842q219 0 326.5 -126t107.5 -349v-367h-1419v236h272v1226h266v-897q62 121 187 199t260 78zM1186 367q0 225 -201 225q-125 0 -236 -103q-112 -103 -165 -253h602v131zM856 1169.5q0 59.5 43 102.5t102.5 43t102.5 -43t43 -102.5t-43 -102.5t-102.5 -43t-102.5 43
t-43 102.5z" />
    <glyph glyph-name="uni0639" unicode="&#x639;" horiz-adv-x="1114" arabic-form="isolated" 
d="M595.5 -563q149.5 0 360.5 96l105 -192q-229 -154 -482 -154t-416 131.5t-163 394.5q0 170 76 293t205 193v6q-76 104 -76 215q0 204 138.5 315t318.5 111q126 0 233 -43v-242q-146 31 -233.5 31t-137 -51.5t-49.5 -129t49 -126.5t172 -49h326v-236h-451q-147 0 -223 -78
t-76 -207t87 -203.5t236.5 -74.5z" />
    <glyph glyph-name="uni063A" unicode="&#x63a;" horiz-adv-x="1114" arabic-form="isolated" 
d="M595.5 -563q149.5 0 360.5 96l105 -192q-229 -154 -482 -154t-416 131.5t-163 394.5q0 170 76 293t205 193v6q-76 104 -76 215q0 204 138.5 315t318.5 111q126 0 233 -43v-242q-146 31 -233.5 31t-137 -51.5t-49.5 -129t49 -126.5t172 -49h326v-236h-451q-147 0 -223 -78
t-76 -207t87 -203.5t236.5 -74.5zM518 1169.5q0 59.5 43 102.5t102.5 43t102.5 -43t43 -102.5t-43 -102.5t-102.5 -43t-102.5 43t-43 102.5z" />
    <glyph glyph-name="uni0641" unicode="&#x641;" horiz-adv-x="2035" arabic-form="isolated" 
d="M1116 396q0 189 113.5 317.5t313.5 128.5t301 -148q79 -116 79 -297v-397h-1499q-241 0 -332.5 73t-91.5 251v338h266v-302q0 -77 44.5 -100.5t189.5 -23.5h647q-31 64 -31 160zM1657 391q0 209 -135 209q-112 0 -138 -112q-8 -32 -8 -64q0 -106 48.5 -147t117.5 -41h115
v155zM1372 1169.5q0 59.5 43 102.5t102.5 43t102.5 -43t43 -102.5t-43 -102.5t-102.5 -43t-102.5 43t-43 102.5z" />
    <glyph glyph-name="uni0642" unicode="&#x642;" horiz-adv-x="1472" arabic-form="isolated" 
d="M950 686q-147 0 -147 -195q0 -161 153 -161q84 0 136 28v101q0 104 -31 165.5t-111 61.5zM668 -131q296 -1 384 151q26 46 31 99q-61 -19 -146 -19q-180 -1 -288 92t-108 279t112 320.5t305 134.5q316 0 382 -316q20 -98 20 -215v-153q0 -297 -174 -458t-513.5 -161
t-507 121t-167.5 381v330h264v-273q0 -166 95.5 -239.5t310.5 -73.5zM954 1271.5q0 59.5 43 102.5t102.5 43t102.5 -43t43 -102.5t-43 -102.5t-102.5 -43t-102.5 43t-43 102.5zM621 1271.5q0 59.5 43 102.5t102 43t102 -43t43 -102.5t-43 -102.5t-102 -43t-102 43t-43 102.5
z" />
    <glyph glyph-name="uni0643" unicode="&#x643;" horiz-adv-x="1773" arabic-form="isolated" 
d="M913.5 1012q43.5 0 98.5 -21v-135q-53 12 -84 12t-48.5 -18.5t-17.5 -45t17.5 -47t66.5 -20.5h109v-143h-402v143h84q-18 25 -18 78t15.5 89t42 59.5t60 36t77 12.5zM1651 0h-1225q-241 0 -333.5 73.5t-92.5 250.5v338h268v-302q0 -77 44.5 -100.5t189.5 -23.5h882v1226
h267v-1462z" />
    <glyph glyph-name="uni0644" unicode="&#x644;" horiz-adv-x="1245" arabic-form="isolated" 
d="M262 20q0 -294 296 -294q155 0 227.5 64.5t72.5 215.5v1456h264v-1419q0 -311 -144 -437t-423 -126q-557 0 -557 530v322h264v-312z" />
    <glyph glyph-name="uni0645" unicode="&#x645;" horiz-adv-x="1175" arabic-form="isolated" 
d="M821 383q0 72 -38 120t-104.5 48t-117.5 -65.5t-80 -194.5q120 -70 192 -70q148 0 148 162zM0 -111q0 196 52.5 291.5t211.5 161.5q24 222 170 352q115 102 272 101.5t262 -114t105 -288.5q1 -294 -205 -387q-68 -31 -161 -31q-174 0 -361 123q-41 -20 -58.5 -70.5
t-17.5 -142.5v-698h-270v702z" />
    <glyph glyph-name="uni0646" unicode="&#x646;" horiz-adv-x="1247" arabic-form="isolated" 
d="M264 254q0 -295 296 -295q154 0 227 64.5t73 216.5v551h264l-2 -515q0 -448 -328 -535q-106 -28 -237 -28q-276 0 -416.5 134.5t-140.5 396.5v321h264v-311zM424 903.5q0 59.5 43 102.5t102.5 43t102.5 -43t43 -102.5t-43 -102.5t-102.5 -43t-102.5 43t-43 102.5z" />
    <glyph glyph-name="uni0648" unicode="&#x648;" horiz-adv-x="980" arabic-form="isolated" 
d="M313 391q0 -162 154 -162q84 0 135 29v100q0 104 -30.5 166t-110.5 62q-148 0 -148 -195zM868 123q0 -288 -153 -418.5t-500 -130.5h-63v250h47q303 0 369 116q20 36 24 78q-60 -18 -146 -18q-182 0 -288.5 94t-106.5 278t111 318.5t307 134.5q399 0 399 -530v-172z" />
    <glyph glyph-name="uni0649" unicode="&#x649;" horiz-adv-x="1499" arabic-form="isolated" 
d="M1227 625q-114 0 -167.5 -51.5t-53.5 -108.5t42 -90t110 -65q135 -64 187 -128.5t52 -152.5q0 -209 -155 -341q-193 -164 -561 -165q-681 0 -681 502v329h266v-317q0 -125 92 -193t326 -69q234 1 353 71q87 51 87 127q0 31 -23.5 49.5t-79.5 48.5q-146 78 -199 137
q-83 92 -83 218q0 174 120 314.5t337 140.5q101 0 221 -43v-240q-122 27 -190 27z" />
    <glyph glyph-name="uni064A" unicode="&#x64a;" horiz-adv-x="1499" arabic-form="isolated" 
d="M1230 778q-118 0 -171 -52t-53 -108.5t42 -89t110 -64.5q135 -64 187 -128.5t52 -153.5q0 -208 -155 -340q-194 -166 -561 -166q-681 0 -681 502v330h266v-318q0 -262 400 -262q253 0 371 71q87 52 87 128q0 31 -24 49t-79 48q-144 76 -199 137q-83 92 -83 219
q0 173 120 313.5t337 140.5q101 0 221 -43v-239q-116 26 -187 26zM717 -591.5q0 59.5 43 102.5t102.5 43t102.5 -43t43 -102.5t-43 -102.5t-102.5 -43t-102.5 43t-43 102.5zM383 -591.5q0 59.5 43 102.5t102.5 43t102.5 -43t43 -102.5t-43 -102.5t-102.5 -43t-102.5 43
t-43 102.5z" />
    <glyph glyph-name="uni0671" unicode="&#x671;" horiz-adv-x="509" arabic-form="isolated" 
d="M387 1462v-1462h-264v1462h264zM338 1870q139 0 139 -158v-121h-436v99h72v159h98v-30q51 51 127 51zM381 1718q0 66 -66 66q-31 0 -59.5 -18.5t-44.5 -45.5v-30h170v28z" />
    <glyph glyph-name="uni0679" unicode="&#x679;" horiz-adv-x="1773" arabic-form="isolated" 
d="M1651 0h-1225q-241 0 -333.5 73.5t-92.5 250.5v338h268v-300q0 -77 46.5 -101.5t187.5 -24.5h882v579h267v-815zM936.5 1210q87.5 0 134.5 -52t47 -144v-152h-551v121h92v408h115v-256q75 75 162.5 75zM1004 983v16q0 35 -13.5 61.5t-59.5 26.5q-92 0 -143 -104h216z" />
    <glyph glyph-name="uni067E" unicode="&#x67e;" horiz-adv-x="1773" arabic-form="isolated" 
d="M1651 0h-1225q-241 0 -334 74q-92 74 -92 250v338h268v-300q0 -77 46 -101q46 -25 188 -25h882v579h267v-815zM868 -344q0 59 43 102t102.5 43t102.5 -43t43 -102t-43 -102t-102.5 -43t-102.5 43t-43 102zM535 -344q0 59 43 102t102 43t102 -43t43 -102t-43 -102
t-102 -43t-102 43t-43 102zM702 -641q0 59 43 102t102.5 43t102.5 -43t43 -102t-43 -102t-102.5 -43t-102.5 43t-43 102z" />
    <glyph glyph-name="uni0686" unicode="&#x686;" horiz-adv-x="1228" arabic-form="isolated" 
d="M487 -204.5q0 35.5 26 61.5t61.5 26t61.5 -26t26 -61.5t-26 -61.5t-61.5 -26t-61.5 26t-26 61.5zM287 -204.5q0 35.5 26 61.5t61.5 26t61.5 -26t26 -61.5t-26 -61.5t-61.5 -26t-61.5 26t-26 61.5zM388 -382.5q0 35.5 25.5 61.5t61.5 26t61.5 -26t25.5 -61.5t-25.5 -61.5
t-61.5 -26t-61.5 26t-25.5 61.5zM587 -563q153 0 359 94l103 -190q-229 -154 -482 -154t-416 131.5t-163 386.5t154.5 393t418.5 138h338q-10 180 -93 276t-265 96q-117 0 -248 -39v238q156 53 306 53q289 0 437 -202q126 -173 127 -468v-190h-604q-145 0 -222 -78t-77 -207
t87 -203.5t240 -74.5z" />
    <glyph glyph-name="uni0688" unicode="&#x688;" horiz-adv-x="907" arabic-form="isolated" 
d="M825 263q0 -118 -72.5 -190.5t-217.5 -72.5h-496v236h401q101 0 101 43q0 26 -18 57t-99 149l-162 242q136 91 242 156l178 -289q72 -117 107.5 -195t35.5 -136zM575 1399q87 0 134 -52.5t47 -144.5v-151h-551v120h92v408h115v-256q76 76 163 76zM641 1171v17
q0 35 -13.5 61.5t-59.5 26.5q-92 0 -142 -105h215z" />
    <glyph glyph-name="uni0691" unicode="&#x691;" horiz-adv-x="653" arabic-form="isolated" 
d="M264 725h266v-610q0 -301 -101 -417q-56 -64 -155.5 -93t-253.5 -31v250q159 4 201.5 65t42.5 226v610zM458 1331q87 0 134 -52t47 -144v-152h-551v121h92v407h115v-256q76 76 163 76zM524 1104v16q0 35 -13 61.5t-59 26.5q-92 0 -143 -104h215z" />
    <glyph glyph-name="uni0698" unicode="&#x698;" horiz-adv-x="653" arabic-form="isolated" 
d="M264 725h266v-610q0 -301 -101 -417q-56 -64 -155.5 -93t-253.5 -31v250q159 4 202 65q42 61 42 226v610zM242 1347.5q0 59.5 43 102.5t102 43t102 -43t43 -102.5t-43 -102.5t-102 -43t-102 43t-43 102.5zM403 1050.5q0 59.5 43 102.5t102.5 43t102.5 -43t43 -102.5
t-43 -102.5t-102.5 -43t-102.5 43t-43 102.5zM70 1050.5q0 59.5 43 102.5t102 43t102 -43t43 -102.5t-43 -102.5t-102 -43t-102 43t-43 102.5z" />
    <glyph glyph-name="uni06A4" unicode="&#x6a4;" horiz-adv-x="2035" arabic-form="isolated" 
d="M1116 396q0 189 113.5 317.5t313.5 128.5t301 -148q79 -116 79 -297v-397h-1499q-241 0 -332.5 73t-91.5 251v338h266v-302q0 -77 44.5 -100.5t189.5 -23.5h647q-31 64 -31 160zM1657 391q0 209 -135 209q-112 0 -138 -112q-8 -32 -8 -64q0 -106 48.5 -147t117.5 -41h115
v155zM1378 1466.5q0 59.5 43 102.5t102.5 43t102.5 -43t43 -102.5t-43 -102.5t-102.5 -43t-102.5 43t-43 102.5zM1540 1169.5q0 59.5 43 102.5t102.5 43t102.5 -43t43 -102.5t-43 -102.5t-102.5 -43t-102.5 43t-43 102.5zM1206 1169.5q0 59.5 43 102.5t102.5 43t102.5 -43
t43 -102.5t-43 -102.5t-102.5 -43t-102.5 43t-43 102.5z" />
    <glyph glyph-name="uni06A9" unicode="&#x6a9;" horiz-adv-x="1810" arabic-form="isolated" 
d="M1274 236q121 0 121 88q0 76 -168 231q-168 154 -367 258q40 193 146 242l714 315v-274l-483 -201v-6q224 -145 331 -309q85 -130 85 -265q1 -209 -175 -285q-70 -30 -186 -30h-868q-241 0 -333 73q-91 73 -91 251v338h266v-302q0 -77 45 -100q45 -24 189 -24h774z" />
    <glyph glyph-name="uni06AF" unicode="&#x6af;" horiz-adv-x="1810" arabic-form="isolated" 
d="M1274 236q121 0 121 88q0 76 -168 231q-168 154 -367 258q40 193 146 242l714 315v-274l-483 -201v-6q224 -145 331 -309q85 -130 85 -265q1 -209 -175 -285q-70 -30 -186 -30h-868q-241 0 -333 73q-91 73 -91 251v338h266v-302q0 -77 45 -100q45 -24 189 -24h774z
M897 1135q12 248 178 333l647 293v-262z" />
    <glyph glyph-name="uni06BA" unicode="&#x6ba;" horiz-adv-x="1247" arabic-form="isolated" 
d="M264 254q0 -295 296 -295q154 0 227 64.5t73 216.5v551h264l-2 -515q0 -448 -328 -535q-106 -28 -237 -28q-276 0 -416.5 134.5t-140.5 396.5v321h264v-311z" />
    <glyph glyph-name="uni06C0" unicode="&#x6c0;" horiz-adv-x="903" arabic-form="isolated" 
d="M113.5 696q113.5 146 287.5 146t287 -129t113 -344q-1 -251 -221 -345q-76 -32 -174.5 -32t-171 22.5t-124.5 68.5q-110 96 -110 281.5t113.5 331.5zM254 393q0 -168 145 -168q150 0 150 152q0 92 -38 157.5t-111 65.5t-109.5 -63.5t-36.5 -143.5zM387 1237q0 -68 84 -68
h109v-143h-400v143h82q-18 25 -18 78q0 99 56.5 148t122 49t114.5 -21v-135q-53 12 -84 12t-48.5 -18t-17.5 -45z" />
    <glyph glyph-name="uni06C1" unicode="&#x6c1;" horiz-adv-x="903" arabic-form="isolated" 
d="M113.5 696q113.5 146 287.5 146t287 -129t113 -344q-1 -251 -221 -345q-76 -32 -174.5 -32t-171 22.5t-124.5 68.5q-110 96 -110 281.5t113.5 331.5zM254 393q0 -168 145 -168q150 0 150 152q0 92 -38 157.5t-111 65.5t-109.5 -63.5t-36.5 -143.5z" />
    <glyph glyph-name="uni06C2.fina" unicode="&#x6c2;" horiz-adv-x="899" 
d="M397 147q-147 0 -253 72q-144 98 -144 302q0 205 142 317q117 92 290 92h348v-613q0 -47 12.5 -64t57.5 -17h49q60 0 74 -52q6 -22 6 -76q0 -108 -80 -108h-68q-242 0 -294 166q-83 -19 -140 -19zM417 381q57 0 97 14v283h-102q-76 0 -114 -40t-38 -106q0 -151 157 -151z
M471 1271.5q0 59.5 43 102.5t102.5 43t102.5 -43t43 -102.5t-43 -102.5t-102.5 -43t-102.5 43t-43 102.5zM137 1271.5q0 59.5 43 102.5t102.5 43t102.5 -43t43 -102.5t-43 -102.5t-102.5 -43t-102.5 43t-43 102.5z" />
    <glyph glyph-name="uni06C3.fina" unicode="&#x6c3;" horiz-adv-x="612" 
d="M0 117q0 140 65 247t181 107q74 0 114.5 -34t71 -81t64.5 -83.5t84 -36.5h32q60 0 74 -52q6 -22 6 -76q0 -108 -80 -108h-63q-105 0 -179 96q-20 26 -42 58q-51 74 -88 73q-16 0 -31.5 -21.5t-15.5 -88.5t14 -160h-197q-10 103 -10 160zM231 881q0 -68 84 -68h109v-143
h-399v143h81q-18 25 -18 78q0 97 55.5 146.5t120 49.5t117.5 -20v-135q-53 12 -84 12t-48.5 -18.5t-17.5 -44.5z" />
    <glyph glyph-name="uni06CC" unicode="&#x6cc;" horiz-adv-x="1499" arabic-form="isolated" 
d="M1227 625q-114 0 -167.5 -51.5t-53.5 -108.5t42 -90t110 -65q135 -64 187 -128.5t52 -152.5q0 -209 -155 -341q-193 -164 -561 -165q-681 0 -681 502v329h266v-317q0 -125 92 -193t326 -69q234 1 353 71q87 51 87 127q0 31 -23.5 49.5t-79.5 48.5q-146 78 -199 137
q-83 92 -83 218q0 174 120 314.5t337 140.5q101 0 221 -43v-240q-122 27 -190 27z" />
    <glyph glyph-name="uni06D2" unicode="&#x6d2;" horiz-adv-x="1591" arabic-form="isolated" 
d="M256 287q0 -80 446 -80q283 -1 659 61q101 16 169 33v-258q-428 -84 -816 -84q-388 -1 -540 61q-174 70 -174 256t220 284q68 30 126 44q96 23 124 62t40 131h258q-16 -276 -206 -366q-60 -28 -146 -49.5t-123 -48t-37 -46.5z" />
    <glyph glyph-name="uni06D3" unicode="&#x6d3;" horiz-adv-x="1591" arabic-form="isolated" 
d="M256 287q0 -80 446 -80q283 -1 659 61q101 16 169 33v-258q-428 -84 -816 -84q-388 -1 -540 61q-174 70 -174 256t220 284q68 30 126 44q96 23 124 62t40 131h258q-16 -276 -206 -366q-60 -28 -146 -49.5t-123 -48t-37 -46.5zM287 1128q0 -67 84 -67h108v-143h-399v143
h82q-19 27 -19 79q0 97 55.5 146t121.5 49t116 -20v-135q-53 12 -84 12t-48 -18.5t-17 -45.5z" />
    <glyph glyph-name="uni06D5.fina" unicode="&#x6d5;" horiz-adv-x="899" 
d="M397 147q-147 0 -253 72q-144 98 -144 302q0 205 142 317q117 92 290 92h348v-613q0 -47 12.5 -64t57.5 -17h49q60 0 74 -52q6 -22 6 -76q0 -108 -80 -108h-68q-242 0 -294 166q-83 -19 -140 -19zM417 381q57 0 97 14v283h-102q-76 0 -114 -40t-38 -106q0 -151 157 -151z
" />
    <glyph glyph-name="uniFB51" unicode="&#x671;" horiz-adv-x="524" arabic-form="final" 
d="M606 108q0 -108 -80 -108h-86q-230 0 -294 162q-24 60 -23 147v1153h266v-1116q0 -72 25.5 -91t72.5 -19h39q60 0 74 -52q6 -22 6 -76zM356 1870q140 0 140 -158v-121h-437v99h72v159h98v-30q51 51 127 51zM399 1718q0 66 -65 66t-105 -64v-30h170v28z" />
    <glyph glyph-name="uniFB57" unicode="&#x67e;" horiz-adv-x="1832" arabic-form="final" 
d="M1824 0q-147 0 -206 104q-65 -90 -212 -101q-42 -3 -83 -3h-899q-241 0 -332.5 73t-91.5 251v338h266v-302q0 -77 44.5 -100.5t189.5 -23.5h780q70 0 97.5 21.5t27.5 96.5v461h264v-438q0 -76 32 -108.5t132 -32.5q60 0 74 -52q6 -22 6 -76.5t-19.5 -81t-69.5 -26.5z
M866 -344q0 59 43 102t102.5 43t102.5 -43t43 -102t-43 -102t-102.5 -43t-102.5 43t-43 102zM532 -344q0 59 43 102t102.5 43t102.5 -43t43 -102t-43 -102t-102.5 -43t-102.5 43t-43 102zM700 -641q0 59 43 102t102.5 43t102.5 -43t43 -102t-43 -102t-102.5 -43t-102.5 43
t-43 102z" />
    <glyph glyph-name="uniFB58" unicode="&#x67e;" horiz-adv-x="712" arabic-form="initial" 
d="M369 -344q0 59 43 102t102 43t102 -43t43 -102t-43 -102t-102 -43t-102 43t-43 102zM35 -344q0 59 43 102t102.5 43t102.5 -43t43 -102t-43 -102t-102.5 -43t-102.5 43t-43 102zM203 -641q0 59 43 102t102.5 43t102.5 -43t43 -102t-43 -102t-102.5 -43t-102.5 43t-43 102
zM0 0q-60 0 -74 54q-6 22 -6 76q0 108 80 108h324v577h268v-815h-592z" />
    <glyph glyph-name="uniFB59" unicode="&#x67e;" horiz-adv-x="733" arabic-form="medial" 
d="M399 -344q0 59 43 102t102.5 43t102.5 -43t43 -102t-43 -102t-102.5 -43t-102.5 43t-43 102zM66 -344q0 59 43 102t102 43t102 -43t43 -102t-43 -102t-102 -43t-102 43t-43 102zM233 -641q0 59 43 102t102.5 43t102.5 -43t43 -102t-43 -102t-102.5 -43t-102.5 43t-43 102
zM733 0q-170 0 -229 104q-65 -90 -214 -101q-42 -3 -83 -3h-207q-40 0 -60 20t-20 91.5t19.5 98t60.5 26.5h164q70 0 97.5 21.5t27.5 96.5v461h266v-438q0 -76 40 -108.5t138 -32.5q60 0 74 -52q6 -22 6 -76q0 -108 -80 -108z" />
    <glyph glyph-name="uniFB67" unicode="&#x679;" horiz-adv-x="1832" arabic-form="final" 
d="M1824 0q-147 0 -206 104q-65 -90 -212 -101q-42 -3 -83 -3h-899q-241 0 -332.5 73t-91.5 251v338h266v-302q0 -77 44.5 -100.5t189.5 -23.5h780q70 0 97.5 21.5t27.5 96.5v461h264v-438q0 -76 32 -108.5t132 -32.5q60 0 74 -52q6 -22 6 -76.5t-19.5 -81t-69.5 -26.5z
M936.5 1210q87.5 0 134.5 -52t47 -144v-152h-551v121h92v408h115v-256q75 75 162.5 75zM1004 983v16q0 35 -13.5 61.5t-59.5 26.5q-92 0 -143 -104h216z" />
    <glyph glyph-name="uniFB68" unicode="&#x679;" horiz-adv-x="626" arabic-form="initial" 
d="M236 236v579h268v-815h-504q-39 0 -59.5 20.5t-20.5 91.5t19.5 97.5t60.5 26.5h236zM415 1331q87 0 134 -52t47 -144v-152h-551v121h92v407h115v-256q76 76 163 76zM481 1104v16q0 35 -13 61.5t-59 26.5q-92 0 -143 -104h215z" />
    <glyph glyph-name="uniFB69" unicode="&#x679;" horiz-adv-x="671" arabic-form="medial" 
d="M125 236q70 0 97.5 21.5t27.5 96.5v461h266v-438q0 -76 28.5 -108.5t127.5 -32.5q38 0 59 -21t21 -91.5t-19.5 -97t-69.5 -26.5q-139 0 -198 104q-65 -90 -214 -101q-42 -3 -83 -3h-168q-39 0 -59.5 20.5t-20.5 91.5t19.5 97.5t60.5 26.5h125zM437 1331q87 0 134 -52
t47 -144v-152h-550v121h92v407h114v-256q76 76 163 76zM504 1104v16q0 35 -13.5 61.5t-59.5 26.5q-93 0 -142 -104h215z" />
    <glyph glyph-name="uniFB6B" unicode="&#x6a4;" horiz-adv-x="2084" arabic-form="final" 
d="M1376 424q0 -106 49.5 -147t116.5 -41h117v155q-1 99 -21 136q-40 73 -116 73q-112 0 -138 -112q-8 -32 -8 -64zM1118 396q0 186 112 316t312.5 130t301.5 -148q79 -116 79 -297v-161h162q38 0 59 -21t21 -91.5t-19.5 -97t-60.5 -26.5h-1659q-241 0 -333.5 73.5
t-92.5 250.5v338h266v-302q0 -77 44.5 -100.5t189.5 -23.5h649q-31 64 -31 160zM1380 1466.5q0 59.5 43 102.5t102.5 43t102.5 -43t43 -102.5t-43 -102.5t-102.5 -43t-102.5 43t-43 102.5zM1542 1169.5q0 59.5 43 102.5t102.5 43t102.5 -43t43 -102.5t-43 -102.5t-102.5 -43
t-102.5 43t-43 102.5zM1208 1169.5q0 59.5 43 102.5t102.5 43t102.5 -43t43 -102.5t-43 -102.5t-102.5 -43t-102.5 43t-43 102.5z" />
    <glyph glyph-name="uniFB6C" unicode="&#x6a4;" horiz-adv-x="1064" arabic-form="initial" 
d="M147 396q0 186 112 316t313.5 130t301.5 -148q78 -115 78 -297v-397h-952q-39 0 -59.5 20.5t-20.5 91.5t19.5 97.5t60.5 26.5h178q-31 64 -31 160zM553 600q-147 0 -147 -191q0 -91 49 -132t118 -41h115v155q0 209 -135 209zM399 1466.5q0 59.5 43 102.5t102.5 43
t102.5 -43t43 -102.5t-43 -102.5t-102.5 -43t-102.5 43t-43 102.5zM561 1169.5q0 59.5 43 102.5t102.5 43t102.5 -43t43 -102.5t-43 -102.5t-102.5 -43t-102.5 43t-43 102.5zM227 1169.5q0 59.5 43 102.5t102.5 43t102.5 -43t43 -102.5t-43 -102.5t-102.5 -43t-102.5 43
t-43 102.5z" />
    <glyph glyph-name="uniFB6D" unicode="&#x6a4;" horiz-adv-x="1110" arabic-form="medial" 
d="M553 600q-147 0 -147 -191q0 -91 49 -132t118 -41h117v155q0 99 -20 136q-40 73 -117 73zM150 395q0 188 111.5 317.5t312 129.5t300.5 -148q78 -115 78 -297v-161h158q60 0 74 -52q6 -22 6 -76q0 -108 -80 -108h-1110q-39 0 -59.5 20.5t-20.5 91.5t19.5 97.5t60.5 26.5
h180q-30 62 -30 159zM422 1466.5q0 59.5 43 102.5t102.5 43t102.5 -43t43 -102.5t-43 -102.5t-102.5 -43t-102.5 43t-43 102.5zM584 1169.5q0 59.5 43 102.5t102 43t102 -43t43 -102.5t-43 -102.5t-102 -43t-102 43t-43 102.5zM250 1169.5q0 59.5 43 102.5t102.5 43
t102.5 -43t43 -102.5t-43 -102.5t-102.5 -43t-102.5 43t-43 102.5z" />
    <glyph glyph-name="uniFB7B" unicode="&#x686;" horiz-adv-x="1306" arabic-form="final" 
d="M608 860q282 0 428 -186q126 -161 138 -438h133q38 0 58.5 -20.5t20.5 -91.5t-19 -97.5t-60 -26.5h-736q-145 0 -222 -78t-77 -207t88.5 -203.5t242.5 -74.5t355 94l103 -190q-229 -154 -467 -154q-417 -1 -549 291q-45 100 -45 231q0 252 157 389.5t416 137.5h340
q-12 180 -95 276t-265 96q-123 0 -248 -39v238q155 53 303 53zM489 -204.5q0 35.5 26 61.5t61.5 26t61.5 -26t26 -61.5t-26 -61.5t-61.5 -26t-61.5 26t-26 61.5zM289 -204.5q0 35.5 26 61.5t61.5 26t61.5 -26t26 -61.5t-26 -61.5t-61.5 -26t-61.5 26t-26 61.5zM390 -382.5
q0 35.5 26 61.5t61.5 26t61 -26t25.5 -61.5t-25.5 -61.5t-61 -26t-61.5 26t-26 61.5z" />
    <glyph glyph-name="uniFB7C" unicode="&#x686;" horiz-adv-x="1097" arabic-form="initial" 
d="M432.5 860q149.5 0 259.5 -55q304 -152 303 -615v-190h-995q-39 0 -59.5 20.5t-20.5 91.5t19.5 97.5t60.5 26.5h733q-13 179 -95.5 275.5t-264.5 96.5q-112 0 -246 -39v238q156 53 305.5 53zM475 -344q0 59 43 102t102.5 43t102.5 -43t43 -102t-43 -102t-102.5 -43
t-102.5 43t-43 102zM141 -344q0 59 43 102t102.5 43t102.5 -43t43 -102t-43 -102t-102.5 -43t-102.5 43t-43 102zM309 -641q0 59 43 102t102.5 43t102.5 -43t43 -102t-43 -102t-102.5 -43t-102.5 43t-43 102z" />
    <glyph glyph-name="uniFB7D" unicode="&#x686;" horiz-adv-x="1126" arabic-form="medial" 
d="M429 860q283 0 429 -186q126 -160 135 -438h133q60 0 74 -52q6 -22 6 -76q0 -108 -80 -108h-1126q-39 0 -59.5 20.5t-20.5 91.5t19.5 97.5t60.5 26.5h733q-13 178 -94 275t-266 97q-115 0 -246 -39v238q155 53 302 53zM475 -344q0 59 43 102t102.5 43t102.5 -43t43 -102
t-43 -102t-102.5 -43t-102.5 43t-43 102zM141 -344q0 59 43 102t102.5 43t102.5 -43t43 -102t-43 -102t-102.5 -43t-102.5 43t-43 102zM309 -641q0 59 43 102t102.5 43t102.5 -43t43 -102t-43 -102t-102.5 -43t-102.5 43t-43 102z" />
    <glyph glyph-name="uniFB89" unicode="&#x688;" horiz-adv-x="958" arabic-form="final" 
d="M949 0q-105 0 -160.5 23t-116.5 79q-59 -68 -128 -85t-149 -17h-356v236h405q49 0 73 15t24 37t-19.5 54.5t-72.5 108.5l-187 276l244 156l246 -416q85 -143 124 -187t80 -44t61.5 -20.5t20.5 -91.5t-19.5 -97.5t-69.5 -26.5zM575 1399q87 0 134 -52.5t47 -144.5v-151
h-551v120h92v408h115v-256q76 76 163 76zM641 1171v17q0 35 -13.5 61.5t-59.5 26.5q-92 0 -142 -105h215z" />
    <glyph glyph-name="uniFB8B" unicode="&#x698;" horiz-adv-x="681" arabic-form="final" 
d="M682 0q-100 0 -156 66q-4 -271 -120 -379q-116 -109 -386 -113v250q161 4 204 65q42 61 42 226v610h264v-348q0 -73 44 -107t106 -34t76 -52q6 -22 6 -76q0 -108 -80 -108zM256 1347.5q0 59.5 43 102.5t102.5 43t102.5 -43t43 -102.5t-43 -102.5t-102.5 -43t-102.5 43
t-43 102.5zM418 1050.5q0 59.5 43 102.5t102.5 43t102.5 -43t43 -102.5t-43 -102.5t-102.5 -43t-102.5 43t-43 102.5zM84 1050.5q0 59.5 43 102.5t102.5 43t102.5 -43t43 -102.5t-43 -102.5t-102.5 -43t-102.5 43t-43 102.5z" />
    <glyph glyph-name="uniFB8D" unicode="&#x691;" horiz-adv-x="681" arabic-form="final" 
d="M639 0q-100 0 -156 66q-4 -271 -120 -379.5t-386 -112.5v250q161 4 203.5 65t42.5 226v610h264v-348q0 -73 44 -107t106 -34t76 -52q6 -22 6 -76q0 -108 -80 -108zM405 1331q87 0 134 -52t47 -144v-152h-551v121h92v407h115v-256q76 76 163 76zM471 1104v16
q0 35 -13.5 61.5t-59.5 26.5q-91 0 -142 -104h215z" />
    <glyph glyph-name="uniFB8F" unicode="&#x6a9;" horiz-adv-x="1861" arabic-form="final" 
d="M1270 236q127 0 127 86q0 90 -129 221.5t-398 263.5q20 166 67 209q13 12 28 20l759 330v-279l-458 -196v-8q278 -175 383 -463q33 -90 81 -137t130 -47q38 0 58.5 -20.5t20.5 -91.5t-19 -97.5t-57 -26.5q-96 0 -161.5 24.5t-120.5 104.5q-91 -116 -243 -126
q-48 -3 -103 -3h-811q-241 0 -332.5 73t-91.5 251v338h266v-302q0 -76 45.5 -100t190.5 -24h768z" />
    <glyph glyph-name="uniFB90" unicode="&#x6a9;" horiz-adv-x="985" arabic-form="initial" 
d="M477 236q121 0 121 88q0 76 -169 232t-366 257q39 188 146 242l715 315v-274l-484 -201v-6q224 -145 331 -309q85 -130 85 -265q0 -209 -175 -285q-71 -30 -185 -30h-496q-40 0 -60 20t-20 91.5t19.5 98t60.5 26.5h477z" />
    <glyph glyph-name="uniFB91" unicode="&#x6a9;" horiz-adv-x="1042" arabic-form="medial" 
d="M451 236q129 0 129 86q0 90 -129 221.5t-398 263.5q21 168 67 209q14 12 27 20l760 330v-279l-458 -196v-8q277 -174 382 -463q33 -90 81.5 -137t119 -47t84.5 -52q6 -22 6 -76q0 -108 -80 -108q-92 0 -136 16q-87 33 -142 113q-91 -116 -243 -126q-48 -3 -103 -3h-418
q-39 0 -59.5 20.5t-20.5 91.5t19.5 97.5t60.5 26.5h451z" />
    <glyph glyph-name="uniFB93" unicode="&#x6af;" horiz-adv-x="1861" arabic-form="final" 
d="M1270 236q127 0 127 86q0 90 -129 221.5t-398 263.5q20 166 67 209q13 12 28 20l759 330v-279l-458 -196v-8q278 -175 383 -463q33 -90 81 -137t130 -47q38 0 58.5 -20.5t20.5 -91.5t-19 -97.5t-57 -26.5q-96 0 -161.5 24.5t-120.5 104.5q-91 -116 -243 -126
q-48 -3 -103 -3h-811q-241 0 -332.5 73t-91.5 251v338h266v-302q0 -76 45.5 -100t190.5 -24h768zM899 1135q12 248 178 333l647 293v-262z" />
    <glyph glyph-name="uniFB94" unicode="&#x6af;" horiz-adv-x="985" arabic-form="initial" 
d="M477 236q121 0 121 88q0 76 -169 232t-366 257q39 188 146 242l715 315v-274l-484 -201v-6q224 -145 331 -309q85 -130 85 -265q0 -209 -175 -285q-71 -30 -185 -30h-496q-40 0 -60 20t-20 91.5t19.5 98t60.5 26.5h477zM74 1135q12 248 178 333l647 293v-262z" />
    <glyph glyph-name="uniFB95" unicode="&#x6af;" horiz-adv-x="1042" arabic-form="medial" 
d="M451 236q129 0 129 86q0 90 -129 221.5t-398 263.5q21 168 67 209q14 12 27 20l760 330v-279l-458 -196v-8q277 -174 382 -463q33 -90 81.5 -137t119 -47t84.5 -52q6 -22 6 -76q0 -108 -80 -108q-92 0 -136 16q-87 33 -142 113q-91 -116 -243 -126q-48 -3 -103 -3h-418
q-39 0 -59.5 20.5t-20.5 91.5t19.5 97.5t60.5 26.5h451zM78 1135q12 248 178 333l647 293v-262z" />
    <glyph glyph-name="uniFB9F" unicode="&#x6ba;" horiz-adv-x="1277" arabic-form="final" 
d="M557 -481q-557 0 -557 530v281h266v-271q0 -143 74 -219t224.5 -76t223 65t72.5 216v512h264v-178q0 -143 154 -143q60 0 74 -52q6 -22 6 -76q0 -108 -80 -108q-29 0 -78 14.5t-78 53.5q-10 -440 -330 -522q-104 -26 -235 -27z" />
    <glyph glyph-name="uniFBA7" unicode="&#x6c1;" horiz-adv-x="612" arabic-form="final" 
d="M0 117q0 140 65 247t181 107q74 0 114.5 -34t71 -81t64.5 -83.5t84 -36.5h32q60 0 74 -52q6 -22 6 -76q0 -108 -80 -108h-63q-105 0 -179 96q-20 26 -42 58q-51 74 -88 73q-16 0 -31.5 -21.5t-15.5 -88.5t14 -160h-197q-10 103 -10 160z" />
    <glyph glyph-name="uniFBA8" unicode="&#x6c1;" horiz-adv-x="626" arabic-form="initial" 
d="M236 236v579h268v-815h-139q-68 -104 -68 -159.5t25.5 -67t48.5 -11.5t75 19q-11 -102 -63 -153q-53 -50 -127 -50t-117 51.5t-43 118.5q0 131 80 252h-176q-40 0 -60 20t-20 91.5t19.5 98t60.5 26.5h236z" />
    <glyph glyph-name="uniFBA9" unicode="&#x6c1;" horiz-adv-x="901" arabic-form="medial" 
d="M332 -54q0 -121 104 -177q78 337 260 434q62 33 131 33h74q60 0 74 -52q6 -22 6 -76q0 -108 -80 -108h-98q-45 0 -79 -41t-67.5 -123t-103.5 -368q-199 76 -305.5 168t-106.5 233q0 68 17 131h-158q-39 0 -59.5 20.5t-20.5 91.5t19.5 97.5t60.5 26.5h418
q-86 -221 -86 -290z" />
    <glyph glyph-name="uniFBAB" unicode="&#x6be;" horiz-adv-x="1245" arabic-form="final" 
d="M729 -262q102 0 102 117q-1 81 -75 127q-30 18 -76 18h-105q0 -262 154 -262zM575 236h52q102 0 152 65.5t50 142.5q0 152 -104 152q-74 0 -112 -72.5t-38 -177.5v-110zM1014 236h227q60 0 74 -52q6 -22 6 -76q0 -108 -80 -108h-221v-6q63 -57 63 -168q1 -220 -195 -299
q-66 -27 -159 -27q-389 0 -389 486v14h-109q-37 0 -46 -31.5t-11 -79.5h-129q-45 108 -45 175q0 110 60 145q46 27 133 27h147v79q0 248 103.5 386.5t284 138.5t279.5 -122q80 -99 80 -237.5t-73 -236.5v-8z" />
    <glyph glyph-name="uniFBAC" unicode="&#x6be;" horiz-adv-x="1341" arabic-form="initial" 
d="M572 312q14 47 14 95q0 92 -21.5 148.5t-62.5 56.5q-59 0 -77 -124q-5 -34 -5 -63.5t4 -60t14 -56.5q24 -62 68.5 -62t65.5 66zM797 395q0 -78 -33 -159h219q0 186 -69.5 289.5t-204.5 148.5q88 -110 88 -279zM446 911q381 0 587 -185t206 -536v-190h-1239
q-39 0 -59.5 20.5t-20.5 91.5t19.5 97.5t60.5 26.5h246q-29 76 -29 164.5t35 176t98 140.5l-137 -8v186q118 16 233 16z" />
    <glyph glyph-name="uniFBAD" unicode="&#x6be;" horiz-adv-x="1118" arabic-form="medial" 
d="M606 -262q103 0 103 117q-1 42 -23 75q-48 70 -129 70h-104q0 -262 153 -262zM453 236h51q102 0 152 66q51 66 51 143q0 151 -105 151q-74 0 -111.5 -72.5t-37.5 -177.5v-110zM606 -500q-389 0 -389 486v14h-217q-40 0 -60 20t-20 91.5t19.5 98t60.5 26.5h217v79
q0 248 103.5 386.5t284.5 138.5t279 -122q81 -100 81 -237.5t-74 -236.5v-8h227q60 0 74 -52q6 -22 6 -76q0 -108 -80 -108h-221v-6q64 -58 64 -168q-1 -219 -197 -299q-66 -27 -158 -27z" />
    <glyph glyph-name="uniFBAF" unicode="&#x6d2;" horiz-adv-x="880" arabic-form="final" 
d="M0 -72q0 147 128 227.5t384 80.5h369q38 0 59 -21t21 -91.5t-19.5 -97t-60.5 -26.5h-389q-240 0 -240 -61q0 -50 99.5 -72.5t326 -22.5t575.5 54v-238q-322 -59 -575.5 -59t-380.5 24.5t-192.5 68.5t-85 104.5t-19.5 129.5z" />
    <glyph glyph-name="uniFBB1" unicode="&#x6d3;" horiz-adv-x="880" arabic-form="final" 
d="M0 -72q0 147 128 227.5t384 80.5h369q38 0 59 -21t21 -91.5t-19.5 -97t-60.5 -26.5h-389q-240 0 -240 -61q0 -50 99.5 -72.5t326 -22.5t575.5 54v-238q-322 -59 -575.5 -59t-380.5 24.5t-192.5 68.5t-85 104.5t-19.5 129.5zM281 637q0 -68 84 -68h108v-143h-399v143h82
q-19 27 -19 79q0 97 56 146.5t120.5 49.5t116.5 -21v-135q-53 12 -76 12q-73 0 -73 -63z" />
    <glyph glyph-name="uniFBE8" unicode="&#x649;" horiz-adv-x="626" arabic-form="initial" 
d="M236 236v579h268v-815h-504q-40 0 -60 20t-20 91.5t19.5 98t60.5 26.5h236z" />
    <glyph glyph-name="uniFBE9" unicode="&#x649;" horiz-adv-x="671" arabic-form="medial" 
d="M125 236q70 0 97.5 21.5t27.5 96.5v461h266v-438q0 -76 28.5 -108.5t127.5 -32.5q38 0 59 -21t21 -91.5t-19.5 -97t-69.5 -26.5q-139 0 -198 104q-65 -90 -214 -101q-42 -3 -83 -3h-168q-40 0 -60 20t-20 91.5t19.5 98t60.5 26.5h125z" />
    <glyph glyph-name="uniFBFD" unicode="&#x6cc;" horiz-adv-x="1470" arabic-form="final" 
d="M1376 -112q0 -365 -700 -365q-373 1 -538 143q-138 119 -138 348v340h266v-331q0 -133 96 -193q96 -61 334 -61q238 1 350 57q78 40 78 98q0 68 -229 130q-72 20 -160 42v244q327 -104 479 -104h256q39 0 59.5 -20.5t20.5 -91.5t-19.5 -97.5t-60.5 -26.5h-104
q10 -46 10 -112z" />
    <glyph glyph-name="uniFBFE" unicode="&#x6cc;" horiz-adv-x="712" arabic-form="initial" 
d="M356 -344q0 59 43 102t102.5 43t102.5 -43t43 -102t-43 -102t-102.5 -43t-102.5 43t-43 102zM23 -344q0 59 43 102t102 43t102 -43t43 -102t-43 -102t-102 -43t-102 43t-43 102zM0 0q-60 0 -74 54q-6 22 -6 76q0 108 80 108h324v577h268v-815h-592z" />
    <glyph glyph-name="uniFBFF" unicode="&#x6cc;" horiz-adv-x="733" arabic-form="medial" 
d="M387 -344q0 59 43 102t102.5 43t102.5 -43t43 -102t-43 -102t-102.5 -43t-102.5 43t-43 102zM53 -344q0 59 43 102t102.5 43t102.5 -43t43 -102t-43 -102t-102.5 -43t-102.5 43t-43 102zM733 0q-170 0 -229 104q-65 -90 -214 -101q-42 -3 -83 -3h-207q-40 0 -60 20
t-20 91.5t19.5 98t60.5 26.5h164q70 0 97.5 21.5t27.5 96.5v461h266v-438q0 -76 40 -108.5t138 -32.5q60 0 74 -52q6 -22 6 -76q0 -108 -80 -108z" />
    <glyph glyph-name="uniFDF2" unicode="&#xfdf2;" horiz-adv-x="2854" arabic-form="isolated" 
d="M2720 1462v-1462h-264v1462h264zM262 540q0 -138 136 -139q76 0 120 15v262h-102q-78 0 -116 -40t-38 -98zM401 147q-145 0 -253 72q-146 97 -146 301q0 206 142 318q117 92 292 92h346v-613q0 -47 12.5 -64t57.5 -17h248q68 0 95.5 21.5t27.5 96.5v1108h266v-1085
q-1 -81 21 -103q38 -38 130 -38h299v1226h267v-1462h-566q-57 0 -110 19.5t-92 84.5q-65 -91 -211 -101q-43 -3 -86 -3h-307q-241 0 -293 166q-83 -19 -140 -19z" />
    <glyph glyph-name="uniFDFA" unicode="&#xfdfa;" horiz-adv-x="2164" arabic-form="isolated" 
d="M1952 86q-31 0 -41 -51q8 -37 63 -37q27 -1 31 22q-12 66 -53 66zM416 -90q24 0 22 12q-8 41 -47 70q-39 28 -70 28t-30 -24q0 -27 53 -55q48 -31 72 -31zM387 997q-41 -18 -84 -34q-68 -31 -70 -52q-3 -21 53 -21t103 28zM664 1362q0 -66 -43 -66q-27 0 -43 17
q-37 -31 -62 -31q-43 0 -43 48t6 63l13 12q-4 -76 34 -76q23 0 39 33l-4 47l19 29l8 -62q4 -33 30.5 -33t22.5 31l-6 45l14 21q15 -39 15 -78zM166 432q0 -20 66 -20t118 49l-4 78q-180 -72 -180 -107zM1669 1444l-12 -45l-400 -197l9 51zM1294 -248q0 -48 -8 -68t-36 -20
t-40 8q-52 -56 -82 -27t-42 29t-72 -35.5t-147 -35.5t-87 15t69 15q69 -1 95 5t77 38q53 32 71 33q18 0 40.5 -16.5t26.5 -16.5q31 0 36 31t24 31q8 0 8 -10t-2 -21q4 -8 22 -12q25 1 25 29t22 28zM2025 860q0 14 -35.5 32.5t-66.5 18.5t-103 -44t-104 -74q12 -2 68 -2
t149 18q92 18 92 51zM1233 76l-53 -64l-99 72l-57 -74l-102 74l59 72l96 -72l56 68zM975 915q-6 -135 -27 -149l-51 496l45 116zM1552 1081q0 -27 54 -53l-19 -49q-67 23 -67 83t53 89q260 150 432 209l-18 -51q-71 -25 -253 -113t-182 -115zM1956 176q24 0 66 -52t42 -136
t-82 -210t-180 -126q-45 0 -120.5 32.5t-75.5 47.5q0 8 9 8t56 -15.5t72 -15.5q139 -4 287 217l-15 45q-37 -53 -71 -53t-55 26.5t-23 65.5t31.5 102.5t58.5 63.5zM768 846q0 48 -74 284l27 68q82 -258 82 -310t-22 -106t-50 -53q-10 0 -18 6q-14 -43 -15 -80
q0 -154 187 -153q145 0 291 98q4 4 4 6q0 12 -98 28t-105 17q-25 18 27 82q123 51 131 109q2 10 2 28q0 199 -41 473l34 115q49 -434 78 -524q37 -117 148 -135l-10 196l43 92l16 -286q59 20 123 73q52 -36 76 -52t65 -21q43 47 140 119t135 71q38 1 89 -29q50 -30 50 -63
t-32 -83t-64 -64q-94 -43 -238 -43q-47 0 -98 4q-49 -96 -78 -97q-8 0 -8 22t45 87q-86 33 -99 53q-80 -53 -102 -53q14 -287 51 -360.5t172 -81.5l4 4q-43 33 -43 95q-1 62 57 138t126 76t116 -34q49 -34 50 -64q-51 18 -116 18t-121 -29t-56 -57t51 -78.5t90 -58.5
q37 4 139.5 36.5t136.5 51.5l-34 -76q-207 -109 -398 -109t-237 150q-61 -133 -115 -133t-139 90q-131 -115 -404 -115q-82 0 -143 11q19 -166 66 -209q90 -90 342 -90t356 65q31 76 57 76q8 -1 8 -23t-24 -84q12 -26 60 -26t95 24q43 135 68 136q8 0 8 -30t-20 -81
q64 -27 84 -27t22 6.5t-16 79.5l35 74q25 -74 24 -106q0 -137 -90 -138q-47 0 -98 39q-31 -53 -125 -53t-94 53q-96 -71 -406 -71q-172 0 -266 57q-119 72 -123 258l-45 -66q-35 -51 -53 -53q25 -43 25 -89t-33 -81q-16 -16 -50 -16t-118 47q-27 -63 -86 -96
q-14 -8 -48 -9.5t-45 -5.5l-22 -8q-12 0 -12 11t55 33t74 36l69 53q-20 37 -20 81t37 86t69 42q6 0 28 -12t52 -12t66 47l47 86q-78 25 -113 55q-61 55 -80 174h-4q-59 -102 -162 -102q-40 0 -76 15t-36 26q0 51 86 116t176 93l-4 34l41 68q16 -221 44 -287.5t114 -93.5
l-27 270l39 88l35 -368q109 -12 194 -12q213 0 363 81q27 78 37 78t10 -18.5t-8 -50.5q74 -72 120 -72q53 0 86 88l-26 330q-152 -6 -180 151h-4q-34 -132 -84 -147l4 -4q143 10 143 -80q0 -59 -51 -94q-174 -121 -328 -121q-94 0 -151.5 48t-57.5 122t33 149q-57 16 -78 88
h-4q-31 -104 -113 -104q-100 0 -96 158l-55 -50q-16 -14 -98 -14t-82 37q0 20 27.5 64.5t49.5 54.5l156 76v20l35 74l8 -246q4 -86 66 -86q31 0 60.5 21.5t33.5 46.5l-33 233l37 80l57 -330q19 -43 67 -43t48 27z" />
    <glyph glyph-name="uniFE82" unicode="&#x622;" horiz-adv-x="524" arabic-form="final" 
d="M606 108q0 -108 -80 -108h-86q-230 0 -294 162q-24 60 -23 147v1153h266v-1116q0 -72 25.5 -91t72.5 -19h39q60 0 74 -52q6 -22 6 -76zM-111 1724q98 95 181.5 95t194 -54.5t159.5 -54.5q80 0 108 92l107 -47q-35 -90 -80 -139t-131 -49t-199 52t-162.5 52t-111.5 -45z
" />
    <glyph glyph-name="uniFE84" unicode="&#x623;" horiz-adv-x="524" arabic-form="final" 
d="M606 108q0 -108 -80 -108h-86q-230 0 -294 162q-24 60 -23 147v1153h266v-1116q0 -72 25.5 -91t72.5 -19h39q60 0 74 -52q6 -22 6 -76zM256 1796q0 -67 84 -67h109v-144h-400v144h82q-18 25 -18 78q0 98 56.5 147t122 49t114.5 -21v-135q-53 12 -84 12.5t-48.5 -18
t-17.5 -45.5z" />
    <glyph glyph-name="uniFE86" unicode="&#x624;" horiz-adv-x="1019" arabic-form="final" 
d="M457 586q-144 0 -144 -190q0 -160 154 -160h135v122q0 98 -30.5 163t-114.5 65zM215 -426h-63v250h47q291 0 365 104q22 32 28 72h-127q-296 0 -383 206q-31 73 -31 165q0 187 112.5 320.5t305.5 133.5q315 0 381 -316q20 -97 20 -214v-59h150q38 0 59 -21t21 -91.5
t-19.5 -97t-60.5 -26.5h-156q-29 -223 -184.5 -324.5t-464.5 -101.5zM473 1264q0 -76 98 -76h127v-168h-467v168h95q-21 34 -21 92q0 107 64 166t138 59t140 -24v-158q-54 14 -94.5 14t-60 -21.5t-19.5 -51.5z" />
    <glyph glyph-name="uniFE88" unicode="&#x625;" horiz-adv-x="524" arabic-form="final" 
d="M606 108q0 -108 -80 -108h-86q-230 0 -294 162q-24 60 -23 147v1153h266v-1116q0 -72 25.5 -91t72.5 -19h39q60 0 74 -52q6 -22 6 -76zM260 -324q0 -66 84 -65h109v-143h-400v143h82q-18 25 -18 77q0 97 55 147t120 50t118 -20v-137q-53 12 -84 12t-48.5 -19t-17.5 -45z
" />
    <glyph glyph-name="uniFE8A" unicode="&#x626;" horiz-adv-x="1470" arabic-form="final" 
d="M1376 -112q0 -365 -700 -365q-373 1 -538 143q-138 119 -138 348v340h266v-331q0 -133 96 -193q96 -61 334 -61q238 1 350 57q78 40 78 98q0 68 -229 130q-72 20 -160 42v244q327 -104 479 -104h256q39 0 59.5 -20.5t20.5 -91.5t-19.5 -97.5t-60.5 -26.5h-104
q10 -46 10 -112zM289 792q0 -76 98 -75h127v-168h-467v168h94q-20 31 -20 91q0 108 64 167t136.5 59t141.5 -24v-158q-54 14 -94.5 14t-60 -22t-19.5 -52z" />
    <glyph glyph-name="uniFE8B" unicode="&#x626;" horiz-adv-x="626" arabic-form="initial" 
d="M236 236v579h268v-815h-504q-39 0 -59.5 20.5t-20.5 91.5t19.5 97.5t60.5 26.5h236zM367 1264q0 -76 98 -76h127v-168h-467v168h94q-20 32 -20 92q0 108 64 166.5t136.5 58.5t141.5 -24v-158q-54 14 -94.5 14t-60 -21.5t-19.5 -51.5z" />
    <glyph glyph-name="uniFE8C" unicode="&#x626;" horiz-adv-x="671" arabic-form="medial" 
d="M125 236q70 0 97.5 21.5t27.5 96.5v461h266v-438q0 -76 28.5 -108.5t127.5 -32.5q38 0 59 -21t21 -91.5t-19.5 -97t-69.5 -26.5q-139 0 -198 104q-65 -90 -214 -101q-42 -3 -83 -3h-168q-39 0 -59.5 20.5t-20.5 91.5t19.5 97.5t60.5 26.5h125zM399 1264q0 -76 99 -76h127
v-168h-467v168h94q-21 34 -21 92q0 107 65 166t138 59t139 -24v-158q-54 14 -94.5 14t-60 -21.5t-19.5 -51.5z" />
    <glyph glyph-name="uniFE8E" unicode="&#x627;" horiz-adv-x="524" arabic-form="final" 
d="M606 108q0 -108 -80 -108h-86q-230 0 -294 162q-24 60 -23 147v1153h266v-1116q0 -72 25.5 -91t72.5 -19h39q60 0 74 -52q6 -22 6 -76z" />
    <glyph glyph-name="uniFE90" unicode="&#x628;" horiz-adv-x="1832" arabic-form="final" 
d="M1824 0q-147 0 -206 104q-65 -90 -212 -101q-42 -3 -83 -3h-899q-241 0 -332.5 73t-91.5 251v338h266v-302q0 -77 44.5 -100.5t189.5 -23.5h780q70 0 97.5 21.5t27.5 96.5v461h264v-438q0 -76 32 -108.5t132 -32.5q60 0 74 -52q6 -22 6 -76.5t-19.5 -81t-69.5 -26.5z
M690 -344q0 59 43 102t102.5 43t102.5 -43t43 -102t-43 -102t-102.5 -43t-102.5 43t-43 102z" />
    <glyph glyph-name="uniFE91" unicode="&#x628;" horiz-adv-x="626" arabic-form="initial" 
d="M236 236v579h268v-815h-504q-40 0 -60 20t-20 91.5t19.5 98t60.5 26.5h236zM203 -338q0 59 43 102t102.5 43t102.5 -43t43 -102t-43 -102t-102.5 -43t-102.5 43t-43 102z" />
    <glyph glyph-name="uniFE92" unicode="&#x628;" horiz-adv-x="671" arabic-form="medial" 
d="M125 236q70 0 97.5 21.5t27.5 96.5v461h266v-438q0 -76 28.5 -108.5t127.5 -32.5q38 0 59 -21t21 -91.5t-19.5 -97t-69.5 -26.5q-139 0 -198 104q-65 -90 -214 -101q-42 -3 -83 -3h-168q-40 0 -60 20t-20 91.5t19.5 98t60.5 26.5h125zM238 -338q0 59 43 102t102 43
t102 -43t43 -102t-43 -102t-102 -43t-102 43t-43 102z" />
    <glyph glyph-name="uniFE94" unicode="&#x629;" horiz-adv-x="899" arabic-form="final" 
d="M397 147q-147 0 -253 72q-144 98 -144 302q0 205 142 317q117 92 290 92h348v-613q0 -47 12.5 -64t57.5 -17h49q60 0 74 -52q6 -22 6 -76q0 -108 -80 -108h-68q-242 0 -294 166q-83 -19 -140 -19zM417 381q57 0 97 14v283h-102q-76 0 -114 -40t-38 -106q0 -151 157 -151z
M471 1271.5q0 59.5 43 102.5t102.5 43t102.5 -43t43 -102.5t-43 -102.5t-102.5 -43t-102.5 43t-43 102.5zM137 1271.5q0 59.5 43 102.5t102.5 43t102.5 -43t43 -102.5t-43 -102.5t-102.5 -43t-102.5 43t-43 102.5z" />
    <glyph glyph-name="uniFE96" unicode="&#x62a;" horiz-adv-x="1832" arabic-form="final" 
d="M1824 0q-147 0 -206 104q-65 -90 -212 -101q-42 -3 -83 -3h-899q-241 0 -332.5 73t-91.5 251v338h266v-302q0 -77 44.5 -100.5t189.5 -23.5h780q70 0 97.5 21.5t27.5 96.5v461h264v-438q0 -76 32 -108.5t132 -32.5q60 0 74 -52q6 -22 6 -76.5t-19.5 -81t-69.5 -26.5z
M850 1050.5q0 59.5 43 102.5t102.5 43t102.5 -43t43 -102.5t-43 -102.5t-102.5 -43t-102.5 43t-43 102.5zM516 1050.5q0 59.5 43 102.5t102.5 43t102.5 -43t43 -102.5t-43 -102.5t-102.5 -43t-102.5 43t-43 102.5z" />
    <glyph glyph-name="uniFE97" unicode="&#x62a;" horiz-adv-x="626" arabic-form="initial" 
d="M236 236v579h268v-815h-504q-40 0 -60 20t-20 91.5t19.5 98t60.5 26.5h236zM369 1169.5q0 59.5 43 102.5t102 43t102 -43t43 -102.5t-43 -102.5t-102 -43t-102 43t-43 102.5zM35 1169.5q0 59.5 43 102.5t102.5 43t102.5 -43t43 -102.5t-43 -102.5t-102.5 -43t-102.5 43
t-43 102.5z" />
    <glyph glyph-name="uniFE98" unicode="&#x62a;" horiz-adv-x="671" arabic-form="medial" 
d="M125 236q70 0 97.5 21.5t27.5 96.5v461h266v-438q0 -76 28.5 -108.5t127.5 -32.5q38 0 59 -21t21 -91.5t-19.5 -97t-69.5 -26.5q-139 0 -198 104q-65 -90 -214 -101q-42 -3 -83 -3h-168q-40 0 -60 20t-20 91.5t19.5 98t60.5 26.5h125zM387 1169.5q0 59.5 43 102.5
t102.5 43t102.5 -43t43 -102.5t-43 -102.5t-102.5 -43t-102.5 43t-43 102.5zM53 1169.5q0 59.5 43 102.5t102.5 43t102.5 -43t43 -102.5t-43 -102.5t-102.5 -43t-102.5 43t-43 102.5z" />
    <glyph glyph-name="uniFE9A" unicode="&#x62b;" horiz-adv-x="1832" arabic-form="final" 
d="M1824 0q-147 0 -206 104q-65 -90 -212 -101q-42 -3 -83 -3h-899q-241 0 -332.5 73t-91.5 251v338h266v-302q0 -77 44.5 -100.5t189.5 -23.5h780q70 0 97.5 21.5t27.5 96.5v461h264v-438q0 -76 32 -108.5t132 -32.5q60 0 74 -52q6 -22 6 -76.5t-19.5 -81t-69.5 -26.5z
M690 1347.5q0 59.5 43 102.5t102.5 43t102.5 -43t43 -102.5t-43 -102.5t-102.5 -43t-102.5 43t-43 102.5zM852 1050.5q0 59.5 43 102.5t102.5 43t102.5 -43t43 -102.5t-43 -102.5t-102.5 -43t-102.5 43t-43 102.5zM518 1050.5q0 59.5 43 102.5t102.5 43t102.5 -43t43 -102.5
t-43 -102.5t-102.5 -43t-102.5 43t-43 102.5z" />
    <glyph glyph-name="uniFE9B" unicode="&#x62b;" horiz-adv-x="626" arabic-form="initial" 
d="M236 236v579h268v-815h-504q-40 0 -60 20t-20 91.5t19.5 98t60.5 26.5h236zM207 1466.5q0 59.5 43 102.5t102.5 43t102.5 -43t43 -102.5t-43 -102.5t-102.5 -43t-102.5 43t-43 102.5zM369 1169.5q0 59.5 43 102.5t102 43t102 -43t43 -102.5t-43 -102.5t-102 -43t-102 43
t-43 102.5zM35 1169.5q0 59.5 43 102.5t102.5 43t102.5 -43t43 -102.5t-43 -102.5t-102.5 -43t-102.5 43t-43 102.5z" />
    <glyph glyph-name="uniFE9C" unicode="&#x62b;" horiz-adv-x="671" arabic-form="medial" 
d="M125 236q70 0 97.5 21.5t27.5 96.5v461h266v-438q0 -76 28.5 -108.5t127.5 -32.5q38 0 59 -21t21 -91.5t-19.5 -97t-69.5 -26.5q-139 0 -198 104q-65 -90 -214 -101q-42 -3 -83 -3h-168q-40 0 -60 20t-20 91.5t19.5 98t60.5 26.5h125zM225 1466.5q0 59.5 43 102.5
t102.5 43t102.5 -43t43 -102.5t-43 -102.5t-102.5 -43t-102.5 43t-43 102.5zM387 1169.5q0 59.5 43 102.5t102.5 43t102.5 -43t43 -102.5t-43 -102.5t-102.5 -43t-102.5 43t-43 102.5zM53 1169.5q0 59.5 43 102.5t102.5 43t102.5 -43t43 -102.5t-43 -102.5t-102.5 -43
t-102.5 43t-43 102.5z" />
    <glyph glyph-name="uniFE9E" unicode="&#x62c;" horiz-adv-x="1306" arabic-form="final" 
d="M608 860q282 0 428 -186q126 -161 138 -438h133q38 0 58.5 -20.5t20.5 -91.5t-19 -97.5t-60 -26.5h-736q-145 0 -222 -78t-77 -207t88.5 -203.5t242.5 -74.5t355 94l103 -190q-229 -154 -467 -154q-417 -1 -549 291q-45 100 -45 231q0 252 157 389.5t416 137.5h340
q-12 180 -95 276t-265 96q-123 0 -248 -39v238q155 53 303 53zM502 -282.5q0 59.5 43 102.5t102.5 43t102.5 -43t43 -102.5t-43 -102.5t-102.5 -43t-102.5 43t-43 102.5z" />
    <glyph glyph-name="uniFE9F" unicode="&#x62c;" horiz-adv-x="1097" arabic-form="initial" 
d="M432.5 860q149.5 0 259.5 -55q304 -152 303 -615v-190h-995q-39 0 -59.5 20.5t-20.5 91.5t19.5 97.5t60.5 26.5h733q-13 179 -95.5 275.5t-264.5 96.5q-112 0 -246 -39v238q156 53 305.5 53zM322 -340q0 59 43 102t102 43t102 -43t43 -102t-43 -102t-102 -43t-102 43
t-43 102z" />
    <glyph glyph-name="uniFEA0" unicode="&#x62c;" horiz-adv-x="1126" arabic-form="medial" 
d="M429 860q283 0 429 -186q126 -160 135 -438h133q60 0 74 -52q6 -22 6 -76q0 -108 -80 -108h-1126q-39 0 -59.5 20.5t-20.5 91.5t19.5 97.5t60.5 26.5h733q-13 178 -94 275t-266 97q-115 0 -246 -39v238q155 53 302 53zM322 -340q0 59 43 102t102 43t102 -43t43 -102
t-43 -102t-102 -43t-102 43t-43 102z" />
    <glyph glyph-name="uniFEA2" unicode="&#x62d;" horiz-adv-x="1306" arabic-form="final" 
d="M608 860q282 0 428 -186q126 -161 138 -438h133q38 0 58.5 -20.5t20.5 -91.5t-19 -97.5t-60 -26.5h-736q-145 0 -222 -78t-77 -207t88.5 -203.5t242.5 -74.5t355 94l103 -190q-229 -154 -467 -154q-417 -1 -549 291q-45 100 -45 231q0 252 157 389.5t416 137.5h340
q-12 180 -95 276t-265 96q-123 0 -248 -39v238q155 53 303 53z" />
    <glyph glyph-name="uniFEA3" unicode="&#x62d;" horiz-adv-x="1097" arabic-form="initial" 
d="M432.5 860q149.5 0 259.5 -55q304 -152 303 -615v-190h-995q-39 0 -59.5 20.5t-20.5 91.5t19.5 97.5t60.5 26.5h733q-13 179 -95.5 275.5t-264.5 96.5q-112 0 -246 -39v238q156 53 305.5 53z" />
    <glyph glyph-name="uniFEA4" unicode="&#x62d;" horiz-adv-x="1126" arabic-form="medial" 
d="M429 860q283 0 429 -186q126 -160 135 -438h133q60 0 74 -52q6 -22 6 -76q0 -108 -80 -108h-1126q-39 0 -59.5 20.5t-20.5 91.5t19.5 97.5t60.5 26.5h733q-13 178 -94 275t-266 97q-115 0 -246 -39v238q155 53 302 53z" />
    <glyph glyph-name="uniFEA6" unicode="&#x62e;" horiz-adv-x="1306" arabic-form="final" 
d="M608 860q282 0 428 -186q126 -161 138 -438h133q38 0 58.5 -20.5t20.5 -91.5t-19 -97.5t-60 -26.5h-736q-145 0 -222 -78t-77 -207t88.5 -203.5t242.5 -74.5t355 94l103 -190q-229 -154 -467 -154q-417 -1 -549 291q-45 100 -45 231q0 252 157 389.5t416 137.5h340
q-12 180 -95 276t-265 96q-123 0 -248 -39v238q155 53 303 53zM434 1169.5q0 59.5 43 102.5t102.5 43t102.5 -43t43 -102.5t-43 -102.5t-102.5 -43t-102.5 43t-43 102.5z" />
    <glyph glyph-name="uniFEA7" unicode="&#x62e;" horiz-adv-x="1097" arabic-form="initial" 
d="M432.5 860q149.5 0 259.5 -55q304 -152 303 -615v-190h-995q-39 0 -59.5 20.5t-20.5 91.5t19.5 97.5t60.5 26.5h733q-13 179 -95.5 275.5t-264.5 96.5q-112 0 -246 -39v238q156 53 305.5 53zM250 1169.5q0 59.5 43 102.5t102.5 43t102.5 -43t43 -102.5t-43 -102.5
t-102.5 -43t-102.5 43t-43 102.5z" />
    <glyph glyph-name="uniFEA8" unicode="&#x62e;" horiz-adv-x="1126" arabic-form="medial" 
d="M429 860q283 0 429 -186q126 -160 135 -438h133q60 0 74 -52q6 -22 6 -76q0 -108 -80 -108h-1126q-39 0 -59.5 20.5t-20.5 91.5t19.5 97.5t60.5 26.5h733q-13 178 -94 275t-266 97q-115 0 -246 -39v238q155 53 302 53zM250 1169.5q0 59.5 43 102.5t102.5 43t102.5 -43
t43 -102.5t-43 -102.5t-102.5 -43t-102.5 43t-43 102.5z" />
    <glyph glyph-name="uniFEAA" unicode="&#x62f;" horiz-adv-x="958" arabic-form="final" 
d="M949 0q-105 0 -160.5 23t-116.5 79q-59 -68 -128 -85t-149 -17h-356v236h405q49 0 73 15t24 37t-19.5 54.5t-72.5 108.5l-187 276l244 156l246 -416q85 -143 124 -187t80 -44t61.5 -20.5t20.5 -91.5t-19.5 -97.5t-69.5 -26.5z" />
    <glyph glyph-name="uniFEAC" unicode="&#x630;" horiz-adv-x="958" arabic-form="final" 
d="M949 0q-105 0 -160.5 23t-116.5 79q-59 -68 -128 -85t-149 -17h-356v236h405q49 0 73 15t24 37t-19.5 54.5t-72.5 108.5l-187 276l244 156l246 -416q85 -143 124 -187t80 -44t61.5 -20.5t20.5 -91.5t-19.5 -97.5t-69.5 -26.5zM209 1169.5q0 59.5 43 102.5t102.5 43
t102.5 -43t43 -102.5t-43 -102.5t-102.5 -43t-102.5 43t-43 102.5z" />
    <glyph glyph-name="uniFEAE" unicode="&#x631;" horiz-adv-x="681" arabic-form="final" 
d="M682 0q-100 0 -156 66q-4 -271 -120 -379q-116 -109 -386 -113v250q161 4 204 65q42 61 42 226v610h264v-348q0 -73 44 -107t106 -34t76 -52q6 -22 6 -76q0 -108 -80 -108z" />
    <glyph glyph-name="uniFEB0" unicode="&#x632;" horiz-adv-x="681" arabic-form="final" 
d="M682 0q-100 0 -156 66q-4 -271 -120 -379q-116 -109 -386 -113v250q161 4 204 65q42 61 42 226v610h264v-348q0 -73 44 -107t106 -34t76 -52q6 -22 6 -76q0 -108 -80 -108zM252 1169.5q0 59.5 43 102.5t102.5 43t102.5 -43t43 -102.5t-43 -102.5t-102.5 -43t-102.5 43
t-43 102.5z" />
    <glyph glyph-name="uniFEB2" unicode="&#x633;" horiz-adv-x="2375" arabic-form="final" 
d="M2376 0q-158 0 -219 109q-59 -72 -129 -90.5t-122 -18.5q-213 0 -284 106q-88 -106 -262 -106q-86 0 -150.5 24.5t-91.5 47.5q-6 -444 -328 -526q-104 -26 -235 -27q-555 0 -555 530v281h262v-283q0 -283 297 -283q154 0 226.5 58.5t72.5 210.5v692h264v-348
q0 -66 36 -103.5t102.5 -37.5t109.5 18t43 80v391h266v-348q1 -118 87 -136q24 -5 66 -5t76 19t34 85v475h266v-438q0 -76 34.5 -108.5t133.5 -32.5q38 0 59 -21t21 -91.5t-19.5 -97t-60.5 -26.5z" />
    <glyph glyph-name="uniFEB3" unicode="&#x633;" horiz-adv-x="1697" arabic-form="initial" 
d="M504 377q0 -141 147 -141q59 0 101.5 18t42.5 80v391h266v-348q0 -141 121 -141h127v579h266v-815h-313q-109 0 -164.5 25.5t-93.5 80.5q-76 -96 -210 -104q-36 -2 -69 -2q-104 0 -175 34t-101 72q-55 -72 -143.5 -89t-225.5 -17h-80q-40 0 -60 20t-20 91.5t19.5 98
t60.5 26.5h84q97 0 119 12q39 21 39 86v391h262v-348z" />
    <glyph glyph-name="uniFEB4" unicode="&#x633;" horiz-adv-x="1738" arabic-form="medial" 
d="M1049 377q1 -141 129 -141q66 0 100.5 19t34.5 85v475h264v-438q0 -76 30.5 -108.5t131.5 -32.5q38 0 59 -21t21 -91.5t-19.5 -97t-60.5 -26.5q-150 0 -211 109q-59 -73 -129 -91q-71 -18 -137 -18q-172 0 -269 106q-63 -70 -127.5 -88t-140.5 -18q-201 0 -289 106
q-55 -72 -143 -89t-225 -17h-68q-39 0 -59.5 20.5t-20.5 91.5t19.5 97.5t60.5 26.5h72q97 0 119 12q38 21 38 86v391h265v-348q0 -66 35.5 -103.5t103 -37.5t109.5 18t42 80v391h265v-348z" />
    <glyph glyph-name="uniFEB6" unicode="&#x634;" horiz-adv-x="2375" arabic-form="final" 
d="M2376 0q-158 0 -219 109q-59 -72 -129 -90.5t-122 -18.5q-213 0 -284 106q-88 -106 -262 -106q-86 0 -150.5 24.5t-91.5 47.5q-6 -444 -328 -526q-104 -26 -235 -27q-555 0 -555 530v281h262v-283q0 -283 297 -283q154 0 226.5 58.5t72.5 210.5v692h264v-348
q0 -66 36 -103.5t102.5 -37.5t109.5 18t43 80v391h266v-348q1 -118 87 -136q24 -5 66 -5t76 19t34 85v475h266v-438q0 -76 34.5 -108.5t133.5 -32.5q38 0 59 -21t21 -91.5t-19.5 -97t-60.5 -26.5zM1393 1466.5q0 59.5 43 102.5t102 43t102 -43t43 -102.5t-43 -102.5
t-102 -43t-102 43t-43 102.5zM1554 1169.5q0 59.5 43 102.5t102.5 43t102.5 -43t43 -102.5t-43 -102.5t-102.5 -43t-102.5 43t-43 102.5zM1221 1169.5q0 59.5 43 102.5t102 43t102 -43t43 -102.5t-43 -102.5t-102 -43t-102 43t-43 102.5z" />
    <glyph glyph-name="uniFEB7" unicode="&#x634;" horiz-adv-x="1697" arabic-form="initial" 
d="M504 377q0 -141 147 -141q59 0 101.5 18t42.5 80v391h266v-348q0 -141 121 -141h127v579h266v-815h-313q-109 0 -164.5 25.5t-93.5 80.5q-76 -96 -210 -104q-36 -2 -69 -2q-104 0 -175 34t-101 72q-55 -72 -143.5 -89t-225.5 -17h-80q-40 0 -60 20t-20 91.5t19.5 98
t60.5 26.5h84q97 0 119 12q39 21 39 86v391h262v-348zM778 1466.5q0 59.5 43 102.5t102.5 43t102.5 -43t43 -102.5t-43 -102.5t-102.5 -43t-102.5 43t-43 102.5zM940 1169.5q0 59.5 43 102.5t102.5 43t102.5 -43t43 -102.5t-43 -102.5t-102.5 -43t-102.5 43t-43 102.5z
M606 1169.5q0 59.5 43 102.5t102.5 43t102.5 -43t43 -102.5t-43 -102.5t-102.5 -43t-102.5 43t-43 102.5z" />
    <glyph glyph-name="uniFEB8" unicode="&#x634;" horiz-adv-x="1738" arabic-form="medial" 
d="M1049 377q1 -141 129 -141q66 0 100.5 19t34.5 85v475h264v-438q0 -76 30.5 -108.5t131.5 -32.5q38 0 59 -21t21 -91.5t-19.5 -97t-60.5 -26.5q-150 0 -211 109q-59 -73 -129 -91q-71 -18 -137 -18q-172 0 -269 106q-63 -70 -127.5 -88t-140.5 -18q-201 0 -289 106
q-55 -72 -143 -89t-225 -17h-68q-39 0 -59.5 20.5t-20.5 91.5t19.5 97.5t60.5 26.5h72q97 0 119 12q38 21 38 86v391h265v-348q0 -66 35.5 -103.5t103 -37.5t109.5 18t42 80v391h265v-348zM778 1466.5q0 59.5 43 102.5t102.5 43t102.5 -43t43 -102.5t-43 -102.5t-102.5 -43
t-102.5 43t-43 102.5zM940 1169.5q0 59.5 43 102.5t102.5 43t102.5 -43t43 -102.5t-43 -102.5t-102.5 -43t-102.5 43t-43 102.5zM606 1169.5q0 59.5 43 102.5t102.5 43t102.5 -43t43 -102.5t-43 -102.5t-102.5 -43t-102.5 43t-43 102.5z" />
    <glyph glyph-name="uniFEBA" unicode="&#x635;" horiz-adv-x="2689" arabic-form="final" 
d="M2259 236v96q0 104 -46 171.5t-169 67.5t-234 -97t-161 -238h610zM2081 842q205 0 323.5 -124t118.5 -351v-131h162q60 0 74 -52q6 -22 6 -76q0 -108 -80 -108h-1235q-198 0 -280 43q-26 14 -50 33q-6 -448 -328 -530q-104 -26 -235 -27q-557 0 -557 530v281h264v-283
q0 -283 297 -283q154 0 225.5 58.5t71.5 210.5v692h266v-348q0 -70 51 -104q51 -35 207 -35q88 255 272 430q183 174 427 174z" />
    <glyph glyph-name="uniFEBB" unicode="&#x635;" horiz-adv-x="1916" arabic-form="initial" 
d="M1540 236v96q0 104 -46 171.5t-169 67.5t-234 -97t-161 -238h610zM1362 842q205 0 323.5 -124t118.5 -351v-367h-1073q-104 0 -177 34t-105 72q-55 -72 -143.5 -89t-225.5 -17h-80q-40 0 -60 20t-20 91.5t19.5 98t60.5 26.5h84q97 0 119 12q39 21 39 86v391h262v-348
q0 -66 36 -102.5t124 -36.5q88 255 271 429q183 175 427 175z" />
    <glyph glyph-name="uniFEBC" unicode="&#x635;" horiz-adv-x="1966" arabic-form="medial" 
d="M1540 236v96q0 104 -46 171.5t-169 67.5t-234 -97t-161 -238h610zM1362 842q205 0 323.5 -124t118.5 -351v-131h162q60 0 74 -52q6 -22 6 -76q0 -108 -80 -108h-1235q-104 0 -177 34t-105 72q-53 -72 -141.5 -89t-227.5 -17h-80q-40 0 -60 20t-20 91.5t19.5 98t60.5 26.5
h84q97 0 119 12q39 21 39 86v391h264v-348q0 -66 33 -102.5t125 -36.5q88 255 271 429q183 175 427 175z" />
    <glyph glyph-name="uniFEBE" unicode="&#x636;" horiz-adv-x="2689" arabic-form="final" 
d="M2259 236v96q0 104 -46 171.5t-169 67.5t-234 -97t-161 -238h610zM2081 842q205 0 323.5 -124t118.5 -351v-131h162q60 0 74 -52q6 -22 6 -76q0 -108 -80 -108h-1235q-198 0 -280 43q-26 14 -50 33q-6 -448 -328 -530q-104 -26 -235 -27q-557 0 -557 530v281h264v-283
q0 -283 297 -283q154 0 225.5 58.5t71.5 210.5v692h266v-348q0 -70 51 -104q51 -35 207 -35q88 255 272 430q183 174 427 174zM1931 1169.5q0 59.5 43 102.5t102.5 43t102.5 -43t43 -102.5t-43 -102.5t-102.5 -43t-102.5 43t-43 102.5z" />
    <glyph glyph-name="uniFEBF" unicode="&#x636;" horiz-adv-x="1916" arabic-form="initial" 
d="M1540 236v96q0 104 -46 171.5t-169 67.5t-234 -97t-161 -238h610zM1362 842q205 0 323.5 -124t118.5 -351v-367h-1073q-104 0 -177 34t-105 72q-55 -72 -143.5 -89t-225.5 -17h-80q-40 0 -60 20t-20 91.5t19.5 98t60.5 26.5h84q97 0 119 12q39 21 39 86v391h262v-348
q0 -66 36 -102.5t124 -36.5q88 255 271 429q183 175 427 175zM1186 1169.5q0 59.5 43 102.5t102.5 43t102.5 -43t43 -102.5t-43 -102.5t-102.5 -43t-102.5 43t-43 102.5z" />
    <glyph glyph-name="uniFEC0" unicode="&#x636;" horiz-adv-x="1966" arabic-form="medial" 
d="M1540 236v96q0 104 -46 171.5t-169 67.5t-234 -97t-161 -238h610zM1362 842q205 0 323.5 -124t118.5 -351v-131h162q60 0 74 -52q6 -22 6 -76q0 -108 -80 -108h-1235q-104 0 -177 34t-105 72q-53 -72 -141.5 -89t-227.5 -17h-80q-40 0 -60 20t-20 91.5t19.5 98t60.5 26.5
h84q97 0 119 12q39 21 39 86v391h264v-348q0 -66 33 -102.5t125 -36.5q88 255 271 429q183 175 427 175zM1214 1169.5q0 59.5 43 102.5t102.5 43t102.5 -43t43 -102.5t-43 -102.5t-102.5 -43t-102.5 43t-43 102.5z" />
    <glyph glyph-name="uniFEC2" unicode="&#x637;" horiz-adv-x="1611" arabic-form="final" 
d="M1186 367q0 225 -201 225q-125 0 -236 -103q-112 -103 -165 -253h602v131zM1020 842q215 0 323.5 -126t108.5 -349v-131h160q38 0 59 -21t21 -91.5t-19.5 -97t-60.5 -26.5h-1579v236h274v1226h264v-897q67 124 190 201q123 76 259 76z" />
    <glyph glyph-name="uniFEC3" unicode="&#x637;" horiz-adv-x="1501" arabic-form="initial" 
d="M954 842q219 0 327 -126t108 -349v-367h-1389q-40 0 -60 20t-20 91.5t19.5 98t60.5 26.5h242v1226h266v-897q62 121 187 199t259 78zM1122 367q0 225 -200 225q-126 0 -236 -103t-166 -253h602v131z" />
    <glyph glyph-name="uniFEC4" unicode="&#x637;" horiz-adv-x="1548" arabic-form="medial" 
d="M1122 367q0 225 -200 225q-126 0 -236 -103t-166 -253h602v131zM244 236v1226h264v-897q67 124 190 201q123 76 258 76q215 0 324 -126t109 -349v-131h159q60 0 74 -52q6 -22 6 -76q0 -108 -80 -108h-1548q-40 0 -60 20t-20 91.5t19.5 98t60.5 26.5h244z" />
    <glyph glyph-name="uniFEC6" unicode="&#x638;" horiz-adv-x="1611" arabic-form="final" 
d="M1186 367q0 225 -201 225q-125 0 -236 -103q-112 -103 -165 -253h602v131zM1020 842q215 0 323.5 -126t108.5 -349v-131h160q38 0 59 -21t21 -91.5t-19.5 -97t-60.5 -26.5h-1579v236h274v1226h264v-897q67 124 190 201q123 76 259 76zM860 1169.5q0 59.5 43 102.5
t102.5 43t102.5 -43t43 -102.5t-43 -102.5t-102.5 -43t-102.5 43t-43 102.5z" />
    <glyph glyph-name="uniFEC7" unicode="&#x638;" horiz-adv-x="1501" arabic-form="initial" 
d="M954 842q219 0 327 -126t108 -349v-367h-1389q-40 0 -60 20t-20 91.5t19.5 98t60.5 26.5h242v1226h266v-897q62 121 187 199t259 78zM1122 367q0 225 -200 225q-126 0 -236 -103t-166 -253h602v131zM797 1169.5q0 59.5 43 102.5t102 43t102 -43t43 -102.5t-43 -102.5
t-102 -43t-102 43t-43 102.5z" />
    <glyph glyph-name="uniFEC8" unicode="&#x638;" horiz-adv-x="1548" arabic-form="medial" 
d="M1122 367q0 225 -200 225q-126 0 -236 -103t-166 -253h602v131zM244 236v1226h264v-897q67 124 190 201q123 76 258 76q215 0 324 -126t109 -349v-131h159q60 0 74 -52q6 -22 6 -76q0 -108 -80 -108h-1548q-40 0 -60 20t-20 91.5t19.5 98t60.5 26.5h244zM788 1169.5
q0 59.5 43 102.5t102.5 43t102.5 -43t43 -102.5t-43 -102.5t-102.5 -43t-102.5 43t-43 102.5z" />
    <glyph glyph-name="uniFECA" unicode="&#x639;" horiz-adv-x="1132" arabic-form="final" 
d="M561 82q-278 -138 -278 -333q0 -108 86 -166t217 -58t356 94l102 -192q-239 -152 -481.5 -152t-402.5 121.5t-160 339.5q0 339 383 497l-217 261q9 40 36 102t58 98q144 148 361 148q177 0 273.5 -84t96.5 -201q0 -70 -48 -160t-140 -161h330q38 0 58.5 -20.5t20.5 -91.5
t-19 -97.5t-60 -26.5h-330q-53 0 -120 20.5t-122 61.5zM729 516q0 94 -119 94t-196 -55q33 -50 77 -99.5t69.5 -78.5t47.5 -49q55 35 88 91t33 97z" />
    <glyph glyph-name="uniFECB" unicode="&#x639;" horiz-adv-x="962" arabic-form="initial" 
d="M111 423q0 201 138.5 312t317.5 111q127 0 234 -43v-242q-195 31 -226 31q-121 0 -172 -51.5t-51 -124.5q0 -180 223 -180h324v-236h-899q-39 0 -59.5 20.5t-20.5 91.5t19.5 97.5t60.5 26.5h152q-41 79 -41 187z" />
    <glyph glyph-name="uniFECC" unicode="&#x639;" horiz-adv-x="1083" arabic-form="medial" 
d="M0 0q-39 0 -59.5 20.5t-20.5 91.5t19.5 97.5t60.5 26.5h141q119 0 181 12l-205 246q27 122 94 200q144 148 360 148q178 0 274.5 -84t96.5 -201q0 -70 -48 -160t-140 -161h329q60 0 74 -52q6 -22 6 -76q0 -108 -80 -108h-329q-140 0 -242 76q-200 -76 -362 -76h-150z
M680 516q0 94 -119 94t-196 -55q39 -59 105.5 -133t88.5 -94q55 35 88 91t33 97z" />
    <glyph glyph-name="uniFECE" unicode="&#x63a;" horiz-adv-x="1132" arabic-form="final" 
d="M561 82q-278 -138 -278 -333q0 -108 86 -166t217 -58t356 94l102 -192q-239 -152 -481.5 -152t-402.5 121.5t-160 339.5q0 339 383 497l-217 261q9 40 36 102t58 98q144 148 361 148q177 0 273.5 -84t96.5 -201q0 -70 -48 -160t-140 -161h330q38 0 58.5 -20.5t20.5 -91.5
t-19 -97.5t-60 -26.5h-330q-53 0 -120 20.5t-122 61.5zM729 516q0 94 -119 94t-196 -55q33 -50 77 -99.5t69.5 -78.5t47.5 -49q55 35 88 91t33 97zM469 1169.5q0 59.5 43 102.5t102.5 43t102.5 -43t43 -102.5t-43 -102.5t-102.5 -43t-102.5 43t-43 102.5z" />
    <glyph glyph-name="uniFECF" unicode="&#x63a;" horiz-adv-x="962" arabic-form="initial" 
d="M111 423q0 201 138.5 312t317.5 111q127 0 234 -43v-242q-195 31 -226 31q-121 0 -172 -51.5t-51 -124.5q0 -180 223 -180h324v-236h-899q-39 0 -59.5 20.5t-20.5 91.5t19.5 97.5t60.5 26.5h152q-41 79 -41 187zM432 1169.5q0 59.5 43 102.5t102.5 43t102.5 -43
t43 -102.5t-43 -102.5t-102.5 -43t-102.5 43t-43 102.5z" />
    <glyph glyph-name="uniFED0" unicode="&#x63a;" horiz-adv-x="1083" arabic-form="medial" 
d="M0 0q-39 0 -59.5 20.5t-20.5 91.5t19.5 97.5t60.5 26.5h141q119 0 181 12l-205 246q27 122 94 200q144 148 360 148q178 0 274.5 -84t96.5 -201q0 -70 -48 -160t-140 -161h329q60 0 74 -52q6 -22 6 -76q0 -108 -80 -108h-329q-140 0 -242 76q-200 -76 -362 -76h-150z
M680 516q0 94 -119 94t-196 -55q39 -59 105.5 -133t88.5 -94q55 35 88 91t33 97zM424 1169.5q0 59.5 43 102.5t102.5 43t102.5 -43t43 -102.5t-43 -102.5t-102.5 -43t-102.5 43t-43 102.5z" />
    <glyph glyph-name="uniFED2" unicode="&#x641;" horiz-adv-x="2084" arabic-form="final" 
d="M1376 424q0 -106 49.5 -147t116.5 -41h117v155q-1 99 -21 136q-40 73 -116 73q-112 0 -138 -112q-8 -32 -8 -64zM1118 396q0 186 112 316t312.5 130t301.5 -148q79 -116 79 -297v-161h162q38 0 59 -21t21 -91.5t-19.5 -97t-60.5 -26.5h-1659q-241 0 -333.5 73.5
t-92.5 250.5v338h266v-302q0 -77 44.5 -100.5t189.5 -23.5h649q-31 64 -31 160zM1372 1169.5q0 59.5 43 102.5t102.5 43t102.5 -43t43 -102.5t-43 -102.5t-102.5 -43t-102.5 43t-43 102.5z" />
    <glyph glyph-name="uniFED3" unicode="&#x641;" horiz-adv-x="1064" arabic-form="initial" 
d="M147 396q0 186 112 316t313.5 130t301.5 -148q78 -115 78 -297v-397h-952q-39 0 -59.5 20.5t-20.5 91.5t19.5 97.5t60.5 26.5h178q-31 64 -31 160zM553 600q-147 0 -147 -191q0 -91 49 -132t118 -41h115v155q0 209 -135 209zM410 1169.5q0 59.5 43 102.5t102 43t102 -43
t43 -102.5t-43 -102.5t-102 -43t-102 43t-43 102.5z" />
    <glyph glyph-name="uniFED4" unicode="&#x641;" horiz-adv-x="1110" arabic-form="medial" 
d="M553 600q-147 0 -147 -191q0 -91 49 -132t118 -41h117v155q0 99 -20 136q-40 73 -117 73zM150 395q0 188 111.5 317.5t312 129.5t300.5 -148q78 -115 78 -297v-161h158q60 0 74 -52q6 -22 6 -76q0 -108 -80 -108h-1110q-39 0 -59.5 20.5t-20.5 91.5t19.5 97.5t60.5 26.5
h180q-30 62 -30 159zM412 1169.5q0 59.5 43 102.5t102 43t102 -43t43 -102.5t-43 -102.5t-102 -43t-102 43t-43 102.5z" />
    <glyph glyph-name="uniFED6" unicode="&#x642;" horiz-adv-x="1523" arabic-form="final" 
d="M950 586q-143 0 -143 -180q0 -98 41 -134t113 -36h133v122q0 98 -31 163t-113 65zM652 -477q-317 0 -484.5 120.5t-167.5 381.5v329h266v-272q0 -166 94.5 -239.5t311.5 -73.5q362 0 409 231h-123q-298 0 -384 206q-30 73 -31 165q0 187 112.5 320.5t307.5 133.5
q399 0 399 -530v-59h162q38 0 59 -21t21 -91.5t-19.5 -97t-60.5 -26.5h-174q-39 -229 -210 -353t-488 -124zM1012 1169.5q0 59.5 43 102.5t102.5 43t102.5 -43t43 -102.5t-43 -102.5t-102.5 -43t-102.5 43t-43 102.5zM678 1169.5q0 59.5 43 102.5t102.5 43t102.5 -43
t43 -102.5t-43 -102.5t-102.5 -43t-102.5 43t-43 102.5z" />
    <glyph glyph-name="uniFED7" unicode="&#x642;" horiz-adv-x="1097" arabic-form="initial" 
d="M578 1169.5q0 59.5 43 102.5t102 43t102 -43t43 -102.5t-43 -102.5t-102 -43t-102 43t-43 102.5zM244 1169.5q0 59.5 43 102.5t102.5 43t102.5 -43t43 -102.5t-43 -102.5t-102.5 -43t-102.5 43t-43 102.5zM172 396q0 188 112 317t314 129t301 -148q78 -117 78 -297v-397
h-952q-39 0 -59.5 20.5t-20.5 91.5t19.5 97.5t60.5 26.5h178q-31 64 -31 160zM578 600q-148 0 -148 -191q0 -91 49 -132t119 -41h115v155q0 209 -135 209z" />
    <glyph glyph-name="uniFED8" unicode="&#x642;" horiz-adv-x="1110" arabic-form="medial" 
d="M553 600q-147 0 -147 -191q0 -91 49 -132t118 -41h117v155q0 99 -20 136q-40 73 -117 73zM150 395q0 188 111.5 317.5t312 129.5t300.5 -148q78 -115 78 -297v-161h158q60 0 74 -52q6 -22 6 -76q0 -108 -80 -108h-1110q-39 0 -59.5 20.5t-20.5 91.5t19.5 97.5t60.5 26.5
h180q-30 62 -30 159zM569 1169.5q0 59.5 43 102.5t102.5 43t102.5 -43t43 -102.5t-43 -102.5t-102.5 -43t-102.5 43t-43 102.5zM236 1169.5q0 59.5 43 102.5t102 43t102 -43t43 -102.5t-43 -102.5t-102 -43t-102 43t-43 102.5z" />
    <glyph glyph-name="uniFEDA" unicode="&#x643;" horiz-adv-x="1832" arabic-form="final" 
d="M1824 0q-147 0 -206 104q-65 -90 -212 -101q-42 -3 -83 -3h-899q-241 0 -332.5 73t-91.5 251v338h266v-302q0 -77 44.5 -100.5t189.5 -23.5h780q70 0 97.5 21.5t27.5 96.5v1108h264v-1085q0 -76 32 -108.5t132 -32.5q60 0 74 -52q6 -22 6 -76.5t-19.5 -81t-69.5 -26.5z
M911.5 1012q43.5 0 98.5 -21v-135q-53 12 -84 12t-48.5 -18.5t-17.5 -45t17.5 -47t66.5 -20.5h109v-143h-402v143h82q-18 25 -18 78t16.5 89t43 59.5t60 36t77 12.5z" />
    <glyph glyph-name="uniFEDB" unicode="&#x643;" horiz-adv-x="985" arabic-form="initial" 
d="M477 236q121 0 121 88q0 76 -169 232t-366 257q39 188 146 242l715 315v-274l-484 -201v-6q224 -145 331 -309q85 -130 85 -265q0 -209 -175 -285q-71 -30 -185 -30h-496q-40 0 -60 20t-20 91.5t19.5 98t60.5 26.5h477z" />
    <glyph glyph-name="uniFEDC" unicode="&#x643;" horiz-adv-x="1042" arabic-form="medial" 
d="M451 236q129 0 129 86q0 90 -129 221.5t-398 263.5q21 168 67 209q14 12 27 20l760 330v-279l-458 -196v-8q277 -174 382 -463q33 -90 81.5 -137t119 -47t84.5 -52q6 -22 6 -76q0 -108 -80 -108q-92 0 -136 16q-87 33 -142 113q-91 -116 -243 -126q-48 -3 -103 -3h-418
q-39 0 -59.5 20.5t-20.5 91.5t19.5 97.5t60.5 26.5h451z" />
    <glyph glyph-name="uniFEDE" unicode="&#x644;" horiz-adv-x="1286" arabic-form="final" 
d="M557 -520q-557 0 -557 530v322h266v-312q0 -143 70 -218.5t225.5 -75.5t227 64.5t71.5 215.5v1456h264v-1226h162q60 0 74 -52q6 -22 6 -76q0 -108 -80 -108h-164q-18 -416 -334 -494q-102 -26 -231 -26z" />
    <glyph glyph-name="uniFEDF" unicode="&#x644;" horiz-adv-x="626" arabic-form="initial" 
d="M236 236v1226h268v-1462h-504q-40 0 -60 20t-20 91.5t19.5 98t60.5 26.5h236z" />
    <glyph glyph-name="uniFEE0" unicode="&#x644;" horiz-adv-x="663" arabic-form="medial" 
d="M125 236q70 0 97.5 21.5t27.5 96.5v1108h266v-1085q0 -83 20 -104q35 -37 128 -37q38 0 58 -20t20.5 -91.5t-18.5 -98t-69 -26.5t-101.5 19.5t-88.5 84.5q-65 -90 -214 -101q-42 -3 -83 -3h-168q-40 0 -60 20t-20 91.5t19.5 98t60.5 26.5h125z" />
    <glyph glyph-name="uniFEE2" unicode="&#x645;" horiz-adv-x="1259" arabic-form="final" 
d="M819 383q0 74 -37 119t-102 49q-78 -2 -131 -68.5t-70 -191.5q225 -123 304 -26q36 44 36 118zM1318.5 215.5q20.5 -20.5 20.5 -91.5t-19 -97.5t-60 -26.5q-160 0 -248 129q-89 -154 -305 -154q-176 0 -363 123q-41 -20 -58.5 -70.5t-17.5 -142.5v-698h-270v702
q0 200 52 288.5t212 152.5q32 234 178 364q115 102 270 101.5t258 -116t103 -304.5l-2 -45q31 -70 137 -89q28 -5 60 -5t52.5 -20.5z" />
    <glyph glyph-name="uniFEE3" unicode="&#x645;" horiz-adv-x="1144" arabic-form="initial" 
d="M109 0h-109q-39 0 -59.5 20.5t-20.5 91.5t19.5 97.5t60.5 26.5h90q55 0 84 40q28 40 64 142q132 376 428 377q170 0 273 -115.5t103 -299t-92.5 -294.5t-267 -111t-344.5 109q-53 -59 -108.5 -71.5t-120.5 -12.5zM634 221q76 0 112 44q36 43 36 95q0 190 -131 191
q-65 0 -121.5 -63.5t-93.5 -192.5q122 -74 198 -74z" />
    <glyph glyph-name="uniFEE4" unicode="&#x645;" horiz-adv-x="1226" arabic-form="medial" 
d="M109 0h-109q-39 0 -59.5 20.5t-20.5 91.5t19.5 97.5t60.5 26.5h90q55 0 84 40q28 40 64 142q132 376 428 377q163 0 269.5 -117.5t106.5 -302.5l-2 -51q27 -49 82.5 -68.5t87.5 -19.5q54 0 75.5 -21t21.5 -91.5t-19.5 -97t-60.5 -26.5q-166 0 -254 129
q-92 -154 -295 -154q-170 0 -340 109q-53 -59 -108.5 -71.5t-120.5 -12.5zM634 221q76 0 112 44q36 43 36 95q0 190 -143 191q-132 -8 -203 -256q122 -74 198 -74z" />
    <glyph glyph-name="uniFEE6" unicode="&#x646;" horiz-adv-x="1277" arabic-form="final" 
d="M557 -481q-557 0 -557 530v281h266v-271q0 -143 74 -219t224.5 -76t223 65t72.5 216v512h264v-178q0 -143 154 -143q60 0 74 -52q6 -22 6 -76q0 -108 -80 -108q-29 0 -78 14.5t-78 53.5q-10 -440 -330 -522q-104 -26 -235 -27zM434 770q0 59 43 102t102.5 43t102.5 -43
t43 -102t-43 -102t-102.5 -43t-102.5 43t-43 102z" />
    <glyph glyph-name="uniFEE7" unicode="&#x646;" horiz-adv-x="624" arabic-form="initial" 
d="M217 1169.5q0 59.5 43 102.5t102.5 43t102.5 -43t43 -102.5t-43 -102.5t-102.5 -43t-102.5 43t-43 102.5zM233 236v579h269v-815h-504q-40 0 -60 20t-20 91.5t19.5 98t60.5 26.5h235z" />
    <glyph glyph-name="uniFEE8" unicode="&#x646;" horiz-adv-x="671" arabic-form="medial" 
d="M125 236q70 0 97.5 21.5t27.5 96.5v461h266v-438q0 -76 28.5 -108.5t127.5 -32.5q38 0 59 -21t21 -91.5t-19.5 -97t-69.5 -26.5q-139 0 -198 104q-65 -90 -214 -101q-42 -3 -83 -3h-168q-40 0 -60 20t-20 91.5t19.5 98t60.5 26.5h125zM236 1169.5q0 59.5 43 102.5t102 43
t102 -43t43 -102.5t-43 -102.5t-102 -43t-102 43t-43 102.5z" />
    <glyph glyph-name="uniFEE9" unicode="&#x647;" horiz-adv-x="1370" arabic-form="isolated" 
d="M600 312q14 48 14 96q0 204 -84 204q-58 0 -76 -124q-5 -34 -5 -63.5t4 -60t14 -56.5q23 -62 68.5 -62t64.5 66zM825 393q0 -80 -32 -157h217q0 186 -69 289.5t-204 148.5q88 -111 88 -281zM475 911q381 0 587 -185t206 -536v-190h-1014q-25 0 -31 -31.5t-8 -79.5h-168
q-47 121 -47 182q0 102 72 140q48 25 143 25h59q-64 164 6 340q34 88 99 141l-137 -8v186q118 16 233 16z" />
    <glyph glyph-name="uniFEEA" unicode="&#x647;" horiz-adv-x="899" arabic-form="final" 
d="M397 147q-147 0 -253 72q-144 98 -144 302q0 205 142 317q117 92 290 92h348v-613q0 -47 12.5 -64t57.5 -17h49q60 0 74 -52q6 -22 6 -76q0 -108 -80 -108h-68q-242 0 -294 166q-83 -19 -140 -19zM417 381q57 0 97 14v283h-102q-76 0 -114 -40t-38 -106q0 -151 157 -151z
" />
    <glyph glyph-name="uniFEEB" unicode="&#x647;" horiz-adv-x="1341" arabic-form="initial" 
d="M572 312q14 47 14 95q0 92 -21.5 148.5t-62.5 56.5q-59 0 -77 -124q-5 -34 -5 -63.5t4 -60t14 -56.5q24 -62 68.5 -62t65.5 66zM797 395q0 -78 -33 -159h219q0 186 -69.5 289.5t-204.5 148.5q88 -110 88 -279zM446 911q381 0 587 -185t206 -536v-190h-1239
q-39 0 -59.5 20.5t-20.5 91.5t19.5 97.5t60.5 26.5h246q-29 76 -29 164.5t35 176t98 140.5l-137 -8v186q118 16 233 16z" />
    <glyph glyph-name="uniFEEC" unicode="&#x647;" horiz-adv-x="1118" arabic-form="medial" 
d="M606 -262q103 0 103 117q-1 42 -23 75q-48 70 -129 70h-104q0 -262 153 -262zM453 236h51q102 0 152 66q51 66 51 143q0 151 -105 151q-74 0 -111.5 -72.5t-37.5 -177.5v-110zM606 -500q-389 0 -389 486v14h-217q-40 0 -60 20t-20 91.5t19.5 98t60.5 26.5h217v79
q0 248 103.5 386.5t284.5 138.5t279 -122q81 -100 81 -237.5t-74 -236.5v-8h227q60 0 74 -52q6 -22 6 -76q0 -108 -80 -108h-221v-6q64 -58 64 -168q-1 -219 -197 -299q-66 -27 -158 -27z" />
    <glyph glyph-name="uniFEEE" unicode="&#x648;" horiz-adv-x="1019" arabic-form="final" 
d="M457 586q-144 0 -144 -190q0 -160 154 -160h135v122q0 98 -30.5 163t-114.5 65zM215 -426h-63v250h47q291 0 365 104q22 32 28 72h-127q-296 0 -383 206q-31 73 -31 165q0 187 112.5 320.5t305.5 133.5q315 0 381 -316q20 -97 20 -214v-59h150q38 0 59 -21t21 -91.5
t-19.5 -97t-60.5 -26.5h-156q-29 -223 -184.5 -324.5t-464.5 -101.5z" />
    <glyph glyph-name="uniFEF0" unicode="&#x649;" horiz-adv-x="1470" arabic-form="final" 
d="M1376 -112q0 -365 -700 -365q-373 1 -538 143q-138 119 -138 348v340h266v-331q0 -133 96 -193q96 -61 334 -61q238 1 350 57q78 40 78 98q0 68 -229 130q-72 20 -160 42v244q327 -104 479 -104h256q39 0 59.5 -20.5t20.5 -91.5t-19.5 -97.5t-60.5 -26.5h-104
q10 -46 10 -112z" />
    <glyph glyph-name="uniFEF2" unicode="&#x64a;" horiz-adv-x="1470" arabic-form="final" 
d="M1376 -112q0 -365 -700 -365q-373 1 -538 143q-138 119 -138 348v340h266v-331q0 -133 96 -193q96 -61 334 -61q238 1 350 57q78 40 78 98q0 68 -229 130q-72 20 -160 42v244q327 -104 479 -104h256q39 0 59.5 -20.5t20.5 -91.5t-19.5 -97.5t-60.5 -26.5h-104
q10 -46 10 -112zM696 -772q0 59 43 102t102.5 43t102.5 -43t43 -102t-43 -102.5t-102.5 -43.5t-102.5 43.5t-43 102.5zM362 -772q0 59 43.5 102t102.5 43t102 -43t43 -102t-43 -102.5t-102 -43.5t-102.5 43.5t-43.5 102.5z" />
    <glyph glyph-name="uniFEF3" unicode="&#x64a;" horiz-adv-x="712" arabic-form="initial" 
d="M356 -344q0 59 43 102t102.5 43t102.5 -43t43 -102t-43 -102t-102.5 -43t-102.5 43t-43 102zM23 -344q0 59 43 102t102 43t102 -43t43 -102t-43 -102t-102 -43t-102 43t-43 102zM0 0q-60 0 -74 54q-6 22 -6 76q0 108 80 108h324v577h268v-815h-592z" />
    <glyph glyph-name="uniFEF4" unicode="&#x64a;" horiz-adv-x="733" arabic-form="medial" 
d="M387 -344q0 59 43 102t102.5 43t102.5 -43t43 -102t-43 -102t-102.5 -43t-102.5 43t-43 102zM53 -344q0 59 43 102t102.5 43t102.5 -43t43 -102t-43 -102t-102.5 -43t-102.5 43t-43 102zM733 0q-170 0 -229 104q-65 -90 -214 -101q-42 -3 -83 -3h-207q-40 0 -60 20
t-20 91.5t19.5 98t60.5 26.5h164q70 0 97.5 21.5t27.5 96.5v461h266v-438q0 -76 40 -108.5t138 -32.5q60 0 74 -52q6 -22 6 -76q0 -108 -80 -108z" />
    <glyph glyph-name=".notdef" horiz-adv-x="569" 
 />
    <glyph glyph-name=".null" horiz-adv-x="0" 
 />
    <glyph glyph-name="nonmarkingreturn" unicode="&#xd;" horiz-adv-x="0" 
 />
    <glyph glyph-name="space" unicode=" " horiz-adv-x="569" 
 />
    <glyph glyph-name="exclam" unicode="!" horiz-adv-x="569" 
d="M125 315h321v-315h-321v315zM133 1370h303v-301l-80 -631h-145l-78 631v301z" />
    <glyph glyph-name="quotedbl" unicode="&#x22;" horiz-adv-x="948" 
d="M174 1462h219v-657h-219v657zM555 1462h219v-657h-219v657z" />
    <glyph glyph-name="numbersign" unicode="#" horiz-adv-x="1138" 
d="M498 844l-37 -254h198l35 254h-196zM68 406v184h194l37 254h-170v184h195l57 406h199l-58 -406h199l55 406h199l-55 -406h151v-184h-178l-35 -254h152v-184h-179l-55 -406h-198l55 406h-197l-57 -406h-199l58 406h-170z" />
    <glyph glyph-name="dollar" unicode="$" horiz-adv-x="1138" 
d="M169.5 1370q136.5 114 338.5 127v158h121v-158q308 -33 381 -181.5t80 -254.5h-291q-2 82 -51.5 139t-118.5 57v-362q25 -6 192.5 -45.5t243.5 -170t76 -282.5q0 -47 -22.5 -115.5t-122.5 -184t-367 -132.5v-174h-121v174q-467 33 -510 510h291q-2 -115 61.5 -183.5
t157.5 -86.5v428q-26 10 -85 24t-131.5 42t-165.5 101t-93 265q0 191 136.5 305zM850 402q0 81 -49 122.5t-172 73.5v-393q143 15 182 83t39 114zM508 1257q-75 0 -129.5 -43.5t-54.5 -118.5q0 -76 43 -112.5t141 -58.5v333z" />
    <glyph glyph-name="percent" unicode="%" horiz-adv-x="2048" 
d="M1686 370q0 246 -127 246q-86 0 -113 -68.5t-27 -138.5q0 -143 23 -213.5t108 -70.5q136 -1 136 245zM1298 660.5q88 109.5 263 109.5t254 -108t79 -339t-128 -291.5t-220 -60.5t-156.5 32t-122 109.5t-57.5 258t88 290zM1368 1479h174l-844 -1524h-178zM502 1309
q-140 0 -140 -256q0 -100 22.5 -168t109.5 -68q135 0 135 246t-127 246zM492 664q-338 0 -338 285.5t88 399t262 113.5q175 0 254.5 -112.5t79.5 -343.5t-128 -286.5t-218 -55.5z" />
    <glyph glyph-name="ampersand" unicode="&#x26;" horiz-adv-x="1402" 
d="M66 410q0 268 327 424q-59 72 -99 143.5t-40 157.5q0 156 113.5 250t276.5 94q164 0 278 -92t114 -259q0 -226 -260 -364l189 -232q39 69 53 175h252q-21 -209 -142 -361l297 -346h-356l-119 145q-178 -174 -397 -174t-353 118t-134 321zM342 406q0 -81 63.5 -138
t143.5 -57t138 36t110 93l-250 305q-138 -57 -171.5 -126t-33.5 -113zM782 1134q0 68 -40 109t-93 41t-92 -36t-39 -100t37 -112.5t78 -99.5q61 39 105 84.5t44 113.5z" />
    <glyph glyph-name="quotesingle" unicode="'" horiz-adv-x="569" 
d="M176 1462h219v-657h-219v657z" />
    <glyph glyph-name="parenleft" unicode="(" horiz-adv-x="606" 
d="M397 567q0 -508 221 -940h-241q-271 450 -271 922q0 384 101.5 617t169.5 331h244q-224 -422 -224 -930z" />
    <glyph glyph-name="parenright" unicode=")" horiz-adv-x="606" 
d="M209 556q0 508 -221 941h241q271 -450 271 -924q0 -372 -101.5 -610.5t-169.5 -335.5h-243q223 421 223 929z" />
    <glyph glyph-name="asterisk" unicode="*" horiz-adv-x="833" 
d="M332 1462h164v-256l237 90l55 -157l-241 -80l151 -201l-135 -100l-151 211l-144 -211l-137 100l152 201l-238 80l55 157l232 -90v256z" />
    <glyph glyph-name="plus" unicode="+" horiz-adv-x="1228" 
d="M725 627h408v-219h-408v-408h-219v408h-408v219h408v407h219v-407z" />
    <glyph glyph-name="comma" unicode="," horiz-adv-x="569" 
d="M125 315h321v-315q0 -134 -90.5 -226.5t-228.5 -113.5v147q64 12 106.5 68t38.5 125h-147v315z" />
    <glyph glyph-name="hyphen" unicode="-" horiz-adv-x="833" 
d="M109 684h616v-250h-616v250z" />
    <glyph glyph-name="period" unicode="." horiz-adv-x="569" 
d="M123 315h321v-315h-321v315z" />
    <glyph glyph-name="slash" unicode="/" horiz-adv-x="759" 
d="M549 1497h233l-571 -1532h-234z" />
    <glyph glyph-name="zero" unicode="0" horiz-adv-x="1138" 
d="M334 711q0 -49 4 -136.5t25.5 -168t68.5 -138t135 -57.5t137.5 57.5t75 153t25.5 343.5t-64.5 353t-173.5 105q-224 0 -228.5 -231.5t-4.5 -280.5zM43 720q0 212 42 354.5t113.5 228.5t167 122.5t267 36.5t317.5 -172t146 -570t-145.5 -573.5t-448 -175.5t-381 268.5
t-78.5 480.5z" />
    <glyph glyph-name="one" unicode="1" horiz-adv-x="1138" 
d="M803 0h-291v930h-360v219q263 -7 335 98t84 187h232v-1434z" />
    <glyph glyph-name="two" unicode="2" horiz-adv-x="1138" 
d="M580 1462q219 0 363 -121.5t144 -326.5q0 -260 -154.5 -365.5t-294.5 -195.5t-220 -203h678v-250h-1053q0 224 97.5 339.5t180 177t152.5 109.5t197 128.5t127 231.5q0 107 -60.5 166.5t-140.5 59.5t-161 -57.5t-81 -271.5h-278q-8 251 92 371t199 164t213 44z" />
    <glyph glyph-name="three" unicode="3" horiz-adv-x="1138" 
d="M772 1048q0 76 -61 125.5t-157 49.5t-152 -73t-54 -183h-276q8 225 141 360t338 135t351.5 -108.5t146.5 -288.5q0 -102 -50.5 -183t-150.5 -110v-4q119 -27 186.5 -116t67.5 -206q0 -221 -158 -348t-390 -127t-376.5 140.5t-140.5 382.5h276q7 -194 98 -238.5t171 -44.5
t148.5 61.5t68.5 153.5t-32 135t-88.5 65.5t-211.5 22.5v205q198 -17 251.5 50.5t53.5 143.5z" />
    <glyph glyph-name="four" unicode="4" horiz-adv-x="1138" 
d="M639 1069h-6l-371 -498h377v498zM639 332h-606v266l622 836h260v-863h191v-239h-191v-332h-276v332z" />
    <glyph glyph-name="five" unicode="5" horiz-adv-x="1138" 
d="M659 975q204 0 323.5 -139.5t119.5 -353.5t-158 -364.5t-377 -148.5t-372.5 121.5t-157.5 335.5h291q10 -96 74.5 -155.5t167.5 -59.5t172 82.5t69 196.5t-67 190t-181 76q-78 0 -127 -28t-92 -87h-262l141 793h801v-240h-592l-57 -326l4 -4q111 111 280 111z" />
    <glyph glyph-name="six" unicode="6" horiz-adv-x="1138" 
d="M414 666.5q-60 -76.5 -60 -185.5t62.5 -189.5t165.5 -80.5t163 78.5t60 185.5q0 108 -56.5 188t-165.5 80t-169 -76.5zM655 963q92 0 180.5 -40t147.5 -107q113 -128 113 -335q0 -206 -140.5 -358t-361.5 -152q-297 0 -424 210.5t-127 522.5t141 535t422 223
q186 0 313.5 -103.5t151.5 -293.5h-276q-14 72 -65.5 125t-129.5 53q-137 0 -202 -139t-70 -297l4 -4q110 160 323 160z" />
    <glyph glyph-name="seven" unicode="7" horiz-adv-x="1138" 
d="M80 1163v271h979v-250q-214 -185 -339.5 -527t-129.5 -657h-311q25 319 150.5 617t330.5 546h-680z" />
    <glyph glyph-name="eight" unicode="8" horiz-adv-x="1138" 
d="M352 1044q0 -132 88 -160t131 -28q90 0 152.5 48t62.5 140q0 127 -73.5 163t-151.5 36t-143.5 -51.5t-65.5 -147.5zM88 1066q0 187 145.5 291.5t337.5 104.5q239 0 334.5 -99t120.5 -167t25 -119q0 -106 -53.5 -186t-155.5 -115v-4q129 -29 198.5 -122t69.5 -217
q0 -226 -160 -344t-380 -118t-380.5 115t-160.5 334q0 137 71.5 229t198.5 123v4q-104 29 -157.5 109t-53.5 181zM572 662q-105 0 -179 -58.5t-74 -167.5t73 -177.5t180 -68.5t177 67t70 171q0 103 -71 168.5t-176 65.5z" />
    <glyph glyph-name="nine" unicode="9" horiz-adv-x="1138" 
d="M554 690q110 0 170 76.5t60 186.5q0 111 -63 190.5t-164 79.5q-102 0 -162.5 -77.5t-60.5 -184.5q0 -179 82 -225t138 -46zM217 550q-174 79 -174 404q0 209 141 358.5t361 149.5q297 0 424 -210.5t127 -520.5t-140.5 -535t-423.5 -225q-186 0 -313 103.5t-151 294.5h276
q14 -72 65.5 -125.5t129.5 -53.5q137 0 199 134.5t73 302.5l-4 4q-110 -160 -324 -160q-92 0 -266 79z" />
    <glyph glyph-name="colon" unicode=":" horiz-adv-x="569" 
d="M446 725h-321v315h321v-315zM125 315h321v-315h-321v315z" />
    <glyph glyph-name="semicolon" unicode=";" horiz-adv-x="569" 
d="M446 725h-321v315h321v-315zM125 315h321v-315q0 -134 -90.5 -226.5t-228.5 -113.5v147q64 12 106.5 68t38.5 125h-147v315z" />
    <glyph glyph-name="less" unicode="&#x3c;" horiz-adv-x="1228" 
d="M1135 817l-752 -299l752 -299v-235l-1041 413v242l1041 414v-236z" />
    <glyph glyph-name="equal" unicode="=" horiz-adv-x="1228" 
d="M1133 188h-1035v220h1035v-220zM1133 627h-1035v219h1035v-219z" />
    <glyph glyph-name="greater" unicode="&#x3e;" horiz-adv-x="1228" 
d="M94 219l752 299l-752 299v236l1041 -414v-242l-1041 -413v235z" />
    <glyph glyph-name="question" unicode="?" horiz-adv-x="1138" 
d="M395 315h322v-315h-322v315zM1073 1102q0 -185 -72 -256t-135 -116.5t-108.5 -91t-57.5 -122.5v-78h-276v92q10 169 78.5 233t125.5 110t90.5 87.5t33.5 124.5q0 82 -46.5 127t-114.5 45q-118 0 -171 -73.5t-53 -192.5h-301q4 223 140 364.5t374 141.5q128 0 225.5 -40
t182.5 -125t85 -230z" />
    <glyph glyph-name="at" unicode="@" horiz-adv-x="1638" 
d="M387 627q0 202 125.5 362t321.5 160q66 0 135 -32t104 -111l33 110h168l-129 -528q-17 -57 -17 -96t35 -39q94 0 168 109t74 250q0 253 -156 387t-407 134q-252 0 -412 -170.5t-160 -435.5t168.5 -431.5t435.5 -166.5q129 0 245 44t196 124h172q-104 -160 -268.5 -246
t-342.5 -86t-321 58.5t-250.5 161t-169 242.5t-61.5 303t61.5 303.5t168 242.5t247.5 161.5t291 59.5t278.5 -45t227 -126t158 -196.5t59.5 -265.5t-56.5 -262.5t-135.5 -184t-159.5 -105t-138.5 -33.5t-97.5 32.5t-43.5 83.5h-4q-72 -119 -212.5 -119t-235.5 104t-95 247z
M596 638q0 -66 44 -116.5t108 -50.5q111 0 185.5 96.5t74.5 212.5q0 76 -46.5 125t-106.5 49t-107.5 -27.5t-81 -71.5t-52 -97.5t-18.5 -119.5z" />
    <glyph glyph-name="A" unicode="A" horiz-adv-x="1402" 
d="M510 565h379l-184 537h-5zM541 1462h329l547 -1462h-334l-110 326h-547l-115 -326h-325z" />
    <glyph glyph-name="B" unicode="B" horiz-adv-x="1441" 
d="M985 1044q0 168 -221 168h-301v-342h325q86 0 141.5 41t55.5 133zM1296 1100q0 -208 -198 -305q135 -39 201.5 -136.5t66.5 -221.5q0 -224 -150 -330.5t-366 -106.5h-709v1462h688q342 0 404.5 -130t62.5 -232zM1044 442q0 209 -231 209h-350v-401h344q237 0 237 192z
" />
    <glyph glyph-name="C" unicode="C" horiz-adv-x="1517" 
d="M772 1227q-84 0 -159.5 -42t-144.5 -145t-69 -310t97 -350.5t301 -143.5q147 0 230 91t101 236h312q-24 -273 -198.5 -435.5t-444.5 -162.5q-330 0 -524.5 216.5t-194.5 546.5t193.5 549.5t525.5 219.5q247 0 425 -139.5t205 -386.5h-311q-16 107 -107.5 181.5
t-236.5 74.5z" />
    <glyph glyph-name="D" unicode="D" horiz-adv-x="1517" 
d="M463 270h287q249 0 306.5 159t57.5 275q0 237 -96.5 362.5t-325.5 125.5h-229v-922zM141 1462h631q296 0 480 -186t184 -528t-172 -545t-492 -203h-631v1462z" />
    <glyph glyph-name="E" unicode="E" horiz-adv-x="1327" 
d="M141 1462h1094v-270h-772v-313h708v-250h-708v-359h788v-270h-1110v1462z" />
    <glyph glyph-name="F" unicode="F" horiz-adv-x="1214" 
d="M141 1462h1028v-270h-706v-338h612v-250h-612v-604h-322v1462z" />
    <glyph glyph-name="G" unicode="G" horiz-adv-x="1554" 
d="M797 -35q-330 0 -524.5 216.5t-194.5 546.5t193.5 549.5t525.5 219.5q238 0 415.5 -139.5t200.5 -376.5h-307q-29 123 -111.5 184.5t-194.5 61.5q-206 0 -303.5 -145t-97.5 -352t97 -350.5t301 -143.5q158 0 245.5 80.5t102.5 234.5h-324v240h615v-791h-205l-33 166
q-156 -201 -401 -201z" />
    <glyph glyph-name="H" unicode="H" horiz-adv-x="1517" 
d="M141 1462h322v-561h592v561h321v-1462h-321v631h-592v-631h-322v1462z" />
    <glyph glyph-name="I" unicode="I" horiz-adv-x="604" 
d="M141 1462h322v-1462h-322v1462z" />
    <glyph glyph-name="J" unicode="J" horiz-adv-x="1138" 
d="M997 461q0 -383 -189.5 -439.5t-289.5 -56.5q-210 0 -349.5 114.5t-139.5 338.5v127h290v-66q0 -178 65 -210.5t125 -32.5q110 0 138.5 65t28.5 174v987h321v-1001z" />
    <glyph glyph-name="K" unicode="K" horiz-adv-x="1478" 
d="M141 1462h322v-606l571 606h402l-572 -577l627 -885h-404l-440 657l-184 -186v-471h-322v1462z" />
    <glyph glyph-name="L" unicode="L" horiz-adv-x="1214" 
d="M141 1462h322v-1192h713v-270h-1035v1462z" />
    <glyph glyph-name="M" unicode="M" horiz-adv-x="1857" 
d="M141 1462h453l342 -1005h4l324 1005h452v-1462h-301v1036h-4l-358 -1036h-248l-359 1026h-4v-1026h-301v1462z" />
    <glyph glyph-name="N" unicode="N" horiz-adv-x="1517" 
d="M141 1462h320l610 -981h4v981h301v-1462h-321l-609 979h-4v-979h-301v1462z" />
    <glyph glyph-name="O" unicode="O" horiz-adv-x="1593" 
d="M496 379q97 -143 301 -143t300.5 143.5t96.5 350.5q0 206 -96.5 351.5t-300.5 145.5t-301 -145t-97 -352q0 -208 97 -351zM1322 1277q194 -220 194 -549t-195 -546t-524.5 -217t-524 216.5t-194.5 546.5t193.5 549.5t525 219.5t525.5 -220z" />
    <glyph glyph-name="P" unicode="P" horiz-adv-x="1366" 
d="M463 774h250q129 0 182 32t76.5 75t23.5 141.5t-76 144t-206 45.5h-250v-438zM141 1462h660q255 0 380.5 -136t125.5 -333t-125.5 -333t-380.5 -136h-338v-524h-322v1462z" />
    <glyph glyph-name="Q" unicode="Q" horiz-adv-x="1593" 
d="M1104 389q90 121 90 334t-96.5 358.5t-300.5 145.5t-301 -145t-97 -352t97 -350.5t301 -143.5q108 0 129 20l-138 125l150 160zM78 728q0 330 193.5 549.5t525 219.5t525.5 -220t194 -547q0 -326 -191 -544l182 -166l-149 -157l-207 188q-151 -86 -338 -86
q-347 0 -541 216.5t-194 546.5z" />
    <glyph glyph-name="R" unicode="R" horiz-adv-x="1478" 
d="M463 801h352q109 0 165 49.5t56 157.5t-56 156t-165 48h-352v-411zM1358 1059q0 -275 -232 -367v-4q160 -43 185.5 -169t30 -214t13 -171t46.5 -134h-322q-31 76 -42.5 264t-71.5 247.5t-181 59.5h-321v-571h-322v1462h789q192 0 310 -116.5t118 -286.5z" />
    <glyph glyph-name="S" unicode="S" horiz-adv-x="1329" 
d="M920 1026q-13 221 -280 221q-101 0 -165.5 -42t-64.5 -124q0 -43 16 -69.5t74 -52t216 -65.5q157 -40 199.5 -51.5t122.5 -43t161 -122.5t81 -243q0 -208 -159.5 -338.5t-436.5 -130.5q-276 0 -457.5 134t-177.5 386h311q0 -137 92.5 -203.5t231.5 -66.5q183 0 234 63.5
t51 120.5t-38 94t-99.5 63t-139.5 43t-158 39q-200 53 -318 143t-118 286t163 313t400 117t403.5 -116.5t166.5 -354.5h-311z" />
    <glyph glyph-name="T" unicode="T" horiz-adv-x="1251" 
d="M465 1192h-438v270h1198v-270h-439v-1192h-321v1192z" />
    <glyph glyph-name="U" unicode="U" horiz-adv-x="1517" 
d="M1382 553q0 -297 -165.5 -442.5t-460.5 -145.5t-458 144.5t-163 443.5v909h322v-909q0 -147 62.5 -232t236.5 -85t239.5 76.5t65.5 240.5v909h321v-909z" />
    <glyph glyph-name="V" unicode="V" horiz-adv-x="1290" 
d="M821 0h-362l-475 1462h331l326 -1028h4l330 1028h332z" />
    <glyph glyph-name="W" unicode="W" horiz-adv-x="1933" 
d="M1534 0h-320l-247 995h-4l-244 -995h-326l-387 1462h322l231 -995h4l254 995h301l250 -1007h4l240 1007h315z" />
    <glyph glyph-name="X" unicode="X" horiz-adv-x="1366" 
d="M500 766l-471 696h372l287 -467l297 467h352l-469 -698l510 -764h-383l-319 506l-326 -506h-362z" />
    <glyph glyph-name="Y" unicode="Y" horiz-adv-x="1366" 
d="M842 0h-322v569l-538 893h362l342 -577l340 577h358l-542 -901v-561z" />
    <glyph glyph-name="Z" unicode="Z" horiz-adv-x="1327" 
d="M109 1192v270h1151v-254l-785 -938h805v-270h-1233v254l784 938h-722z" />
    <glyph glyph-name="bracketleft" unicode="[" horiz-adv-x="681" 
d="M139 1497h541v-229h-250v-1411h250v-230h-541v1870z" />
    <glyph glyph-name="backslash" unicode="\" horiz-adv-x="759" 
d="M782 -35h-233l-572 1532h234z" />
    <glyph glyph-name="bracketright" unicode="]" horiz-adv-x="681" 
d="M543 -373h-541v230h250v1411h-250v229h541v-1870z" />
    <glyph glyph-name="asciicircum" unicode="^" horiz-adv-x="1228" 
d="M477 1434h275l352 -789h-240l-250 563l-249 -563h-240z" />
    <glyph glyph-name="underscore" unicode="_" 
d="M0 -154h1024v-102h-1024v102z" />
    <glyph glyph-name="grave" unicode="`" horiz-adv-x="530" 
d="M-98 1481h321l197 -291h-203z" />
    <glyph glyph-name="a" unicode="a" horiz-adv-x="1175" 
d="M596 1087q315 0 390 -103t75 -198v-550q0 -178 37 -236h-295q-17 54 -21 102q-127 -131 -356 -131q-158 0 -259 80.5t-101 237.5q0 232 168 277.5t275 56t155.5 22.5t77 36t28.5 70q0 82 -49 112t-139 30q-178 0 -193 -160h-291q11 187 152.5 270.5t345.5 83.5zM535 166
q235 0 235 244v108q-41 -36 -175 -51t-186.5 -54.5t-52.5 -111.5q0 -135 179 -135z" />
    <glyph glyph-name="b" unicode="b" horiz-adv-x="1251" 
d="M824 771q-63 97 -185 97t-185 -97t-63 -243q0 -227 91.5 -282.5t155.5 -55.5t111.5 28t92.5 98t45 214t-63 241zM387 135v-135h-276v1462h290v-532h5q53 82 144 119.5t180 37.5t167 -32.5t140.5 -100t101.5 -173t39 -314t-131.5 -352.5t-307.5 -144q-260 0 -348 164h-4z
" />
    <glyph glyph-name="c" unicode="c" horiz-adv-x="1175" 
d="M616 868q-125 0 -186 -101.5t-61 -281.5t87.5 -237.5t171.5 -57.5t141.5 58.5t72.5 157.5h280q-29 -211 -164 -323t-361 -112t-372.5 154t-146.5 399t144.5 404t395.5 159q203 0 345 -105t153 -296h-285q-29 182 -215 182z" />
    <glyph glyph-name="d" unicode="d" horiz-adv-x="1251" 
d="M801.5 775q-60.5 93 -192.5 93t-192.5 -97t-60.5 -241q0 -222 94 -281t164 -59t118 29t89 97t41 217t-60.5 242zM862 135q-97 -164 -323 -164t-349.5 165.5t-123.5 398.5t123.5 392.5t345.5 159.5q94 0 179 -39.5t134 -117.5h4v532h291v-1462h-277v135h-4z" />
    <glyph glyph-name="e" unicode="e" horiz-adv-x="1175" 
d="M823 643q-41 225 -213 225q-143 0 -199 -70.5t-61 -154.5h473zM600 -29q-249 0 -395 155.5t-146 400.5t152.5 402.5t400.5 157.5t383.5 -185t118.5 -443h-764q12 -269 260 -269q88 0 151.5 44.5t78.5 93.5h256q-116 -357 -496 -357z" />
    <glyph glyph-name="f" unicode="f" horiz-adv-x="681" 
d="M528 1462q6 0 154 -8v-217q-54 6 -110 6t-81.5 -27.5t-25.5 -93.5v-63h201v-195h-201v-864h-291v864h-174v195h174v82q0 226 132 273.5t222 47.5z" />
    <glyph glyph-name="g" unicode="g" horiz-adv-x="1251" 
d="M600 250q123 0 187.5 86.5t64.5 206.5q0 227 -89 276t-155 49q-118 0 -178.5 -84.5t-60.5 -216.5q0 -211 83.5 -264t147.5 -53zM848 195q-92 -164 -329 -164q-215 0 -328 148t-113 375t121 380t336 153t313 -169h4v141h276v-991q0 -360 -214 -414.5t-313 -54.5
q-197 0 -337 85t-151 255h288q36 -146 217 -146q121 0 178.5 74t55.5 188v140h-4z" />
    <glyph glyph-name="h" unicode="h" horiz-adv-x="1214" 
d="M111 1462h290v-551h7q55 90 140.5 133t185.5 43q201 0 285.5 -111t84.5 -325v-651h-291v598q0 131 -42.5 195.5t-152.5 64.5t-163.5 -70.5t-53.5 -232.5v-555h-290v1462z" />
    <glyph glyph-name="i" unicode="i" horiz-adv-x="528" 
d="M410 1223h-291v239h291v-239zM119 1059h291v-1059h-291v1059z" />
    <glyph glyph-name="j" unicode="j" horiz-adv-x="569" 
d="M428 1223h-291v239h291v-239zM28 -133q42 0 75.5 17.5t33.5 76.5v1098h291v-1112q0 -168 -80 -244t-262 -76q-80 0 -125 8v240q25 -8 67 -8z" />
    <glyph glyph-name="k" unicode="k" horiz-adv-x="1175" 
d="M137 1462h291v-784l367 381h344l-400 -389l445 -670h-353l-290 473l-113 -108v-365h-291v1462z" />
    <glyph glyph-name="l" unicode="l" horiz-adv-x="528" 
d="M119 1462h291v-1462h-291v1462z" />
    <glyph glyph-name="m" unicode="m" horiz-adv-x="1855" 
d="M734 1087q218 0 296 -176q47 70 127.5 123t178.5 53q196 0 298.5 -91.5t102.5 -286.5v-709h-291v600q0 133 -22.5 175t-58.5 62.5t-164 20.5t-128 -268v-590h-291v594q0 129 -26 196.5t-147 67.5t-160 -83t-39 -161v-614h-291v1059h274v-144h4q119 172 337 172z" />
    <glyph glyph-name="n" unicode="n" horiz-adv-x="1214" 
d="M393 911q109 176 337 176q206 0 290 -111t84 -325v-651h-291v598q0 131 -42.5 195.5t-152.5 64.5t-163.5 -70.5t-53.5 -232.5v-555h-290v1059h276v-148h6z" />
    <glyph glyph-name="o" unicode="o" horiz-adv-x="1251" 
d="M369 528.5q0 -63.5 12 -124t42 -108.5t79 -77t122.5 -29t124 29t80 77t42 108.5t12.5 124t-12.5 125t-42 108.5t-80 76.5t-124 29.5t-122.5 -29.5t-79 -76.5t-42 -108.5t-12 -125zM78 528q0 127 39 230.5t110.5 176.5t172 112.5t225.5 39.5t226 -39.5t173 -112.5
t111 -176.5t39 -230.5t-39 -229t-111 -175t-173 -113t-226 -40t-225.5 40t-172 113t-110.5 175t-39 229z" />
    <glyph glyph-name="p" unicode="p" horiz-adv-x="1251" 
d="M674.5 190q101.5 0 162 94.5t60.5 241.5q0 229 -92 285.5t-163 56.5q-130 0 -190.5 -96.5t-60.5 -245.5q0 -226 91 -281t192.5 -55zM391 924q100 163 325 163q224 0 348 -162.5t124 -398.5q0 -235 -122 -395t-343 -160q-96 0 -180 41t-137 119h-5v-504h-290v1432h276
v-135h4z" />
    <glyph glyph-name="q" unicode="q" horiz-adv-x="1251" 
d="M356 529q0 -144 60 -241.5t192 -97.5t193 94t61 240q0 230 -90 287t-160 57t-119 -28.5t-93 -97.5t-44 -213zM1143 -373h-291v506h-4q-51 -86 -144.5 -124t-178.5 -38q-183 0 -321 136t-138 395t123.5 422t351.5 163q98 0 185 -37.5t136 -125.5h4v135h277v-1432z" />
    <glyph glyph-name="r" unicode="r" horiz-adv-x="796" 
d="M676 817q-138 0 -206.5 -92t-68.5 -248v-477h-290v1059h276v-197h4q41 100 134.5 162.5t203.5 62.5q33 0 64 -10v-270q-49 10 -117 10z" />
    <glyph glyph-name="s" unicode="s" horiz-adv-x="1099" 
d="M537 893q-162 0 -162 -98q0 -69 74.5 -94t134.5 -37.5t122 -26.5q156 -35 245 -99.5t89 -183.5q0 -207 -138.5 -295t-344.5 -88q-328 0 -411 134.5t-87 238.5h277q0 -88 64 -133t172 -45t143 48t35 84q0 63 -77 97t-196 59q-120 25 -256.5 69t-136.5 228t131.5 260
t382 76t328.5 -119.5t86 -217.5h-277q-6 84 -63.5 113.5t-134.5 29.5z" />
    <glyph glyph-name="t" unicode="t" horiz-adv-x="720" 
d="M188 240v624h-176v195h176v317h291v-317h213v-195h-213v-524q0 -74 24.5 -98.5t86.5 -24.5t102 8v-227q-62 -10 -150 -10q-178 0 -266 52.5t-88 199.5z" />
    <glyph glyph-name="u" unicode="u" horiz-adv-x="1214" 
d="M821 147q-107 -176 -335 -176q-205 0 -290 110t-85 327v651h290v-598q0 -131 42 -195.5t153 -64.5t164 70.5t53 232.5v555h291v-1059h-277v147h-6z" />
    <glyph glyph-name="v" unicode="v" horiz-adv-x="1064" 
d="M696 0h-323l-363 1059h305l224 -723h4l223 723h289z" />
    <glyph glyph-name="w" unicode="w" horiz-adv-x="1667" 
d="M1321 0h-299l-188 711h-5l-180 -711h-301l-336 1059h307l195 -719h4l176 719h283l180 -717h4l195 717h299z" />
    <glyph glyph-name="x" unicode="x" horiz-adv-x="1099" 
d="M381 557l-348 502h332l186 -277l184 277h322l-348 -496l391 -563h-332l-221 334l-221 -334h-326z" />
    <glyph glyph-name="y" unicode="y" horiz-adv-x="1062" 
d="M268 -373q-79 0 -178 11v239q124 -12 166 -9q41 3 66.5 22.5t38 48t12.5 62.5t-13 65l-372 993h311l240 -725h4l231 725h301l-442 -1192q-47 -127 -131 -183.5t-234 -56.5z" />
    <glyph glyph-name="z" unicode="z" horiz-adv-x="1062" 
d="M86 840v219h893v-219l-551 -621h590v-219h-973v219l551 621h-510z" />
    <glyph glyph-name="braceleft" unicode="{" horiz-adv-x="681" 
d="M461 6q0 -149 110 -149h111v-230h-260q-84 0 -168 75t-84 202v399q0 85 -62 127.5t-126 42.5v178q65 0 126.5 46.5t61.5 138.5v385q0 127 84.5 201.5t167.5 74.5h260v-229h-111q-110 0 -110 -150v-311q0 -131 -66 -183.5t-137 -58.5v-6q120 -10 161.5 -86t41.5 -139v-328
z" />
    <glyph glyph-name="bar" unicode="|" horiz-adv-x="456" 
d="M119 1610h219v-2048h-219v2048z" />
    <glyph glyph-name="braceright" unicode="}" horiz-adv-x="681" 
d="M221 1118q0 150 -110 150h-111v229h260q83 0 167.5 -74.5t84.5 -201.5v-385q0 -92 61.5 -138.5t126.5 -46.5v-178q-64 0 -126 -42.5t-62 -127.5v-399q0 -127 -84 -202t-168 -75h-260v230h111q110 0 110 149v328q0 114 67 166.5t136 58.5v6q-127 11 -165 88.5t-38 153.5
v311z" />
    <glyph glyph-name="asciitilde" unicode="~" horiz-adv-x="1228" 
d="M391 477q-91 0 -125.5 -60.5t-46.5 -86.5l-82 190q85 176 256 176q77 0 181 -45t159 -69.5t91 -24.5t61.5 13.5t47 34t40 47t37.5 53.5l82 -191q-58 -83 -115 -129.5t-144 -46.5t-206 70q-120 70 -236 69z" />
    <glyph glyph-name="xx.gaf" unicode="&#xa0;" horiz-adv-x="0" 
d="M-88 1135q12 248 178 333l647 293v-262z" />
    <glyph glyph-name="exclamdown" unicode="&#xa1;" horiz-adv-x="569" 
d="M436 -375h-303v393l80 631h145l78 -631v-393zM446 772h-321v315h321v-315z" />
    <glyph glyph-name="cent" unicode="&#xa2;" horiz-adv-x="1138" 
d="M171 909q128 158 361 178v175h121v-175q175 0 313 -111t146 -292h-285q-6 74 -55 126t-119 58v-678q74 12 126 79.5t52 146.5h285q-16 -193 -143 -310t-320 -135v-207h-121v207q-213 12 -351 165t-138 384t128 389zM334 540q0 -284 198 -350v676q-102 -26 -150 -115.5
t-48 -210.5z" />
    <glyph glyph-name="sterling" unicode="&#xa3;" horiz-adv-x="1138" 
d="M416 43q-136 0 -236 -78l-127 191q156 98 194 191t38 147t-39 139h-203v174h131q-31 39 -61.5 114t-30.5 163q0 176 137 294.5t379 118.5t374 -133t132 -379h-277q-7 109 -48 190.5t-175 81.5q-90 0 -145.5 -51t-55.5 -137t27 -146.5t57 -115.5h273v-174h-215
q16 -50 16 -136q0 -147 -168 -278l4 -4q74 47 131 47t134 -16t116 -23.5t80 -7.5t83 14.5t97 73.5l123 -207q-135 -131 -288 -130.5t-227 26.5q-73 26 -118 38.5t-112 12.5z" />
    <glyph glyph-name="currency" unicode="&#xa4;" horiz-adv-x="1138" 
d="M61 718q0 183 103 300l-115 110l105 107l112 -113q127 101 302 101t309 -101l110 113l103 -107l-111 -110q98 -110 98 -297t-98 -305l111 -117l-103 -104l-110 116q-120 -104 -307 -104q-186 0 -304 104l-112 -116l-105 104l115 117q-103 119 -103 302zM242 714
q0 -142 96.5 -240.5t233.5 -98.5t231 100.5t94 239t-94.5 239.5t-232.5 101q-137 0 -232.5 -99.5t-95.5 -241.5z" />
    <glyph glyph-name="yen" unicode="&#xa5;" horiz-adv-x="1138" 
d="M424 0v283h-322v194h322v94l-29 60h-293v194h195l-315 637h333l271 -637l264 637h332l-318 -637h195v-194h-293l-31 -60v-94h324v-194h-324v-283h-311z" />
    <glyph glyph-name="brokenbar" unicode="&#xa6;" horiz-adv-x="456" 
d="M338 842h-219v512h219v-512zM119 330h219v-512h-219v512z" />
    <glyph glyph-name="section" unicode="&#xa7;" horiz-adv-x="1138" 
d="M20 637q0 221 220 299q-43 47 -65.5 94t-22.5 123t37.5 142.5t128 134t271.5 67.5q180 0 301.5 -107t121.5 -288h-254q0 76 -46 126t-114 50t-119 -35t-51 -87t30.5 -86t80 -64.5t112 -58t176 -83t202.5 -138.5t89 -200q0 -116 -58.5 -197t-154.5 -116q113 -86 113 -245
t-133 -250t-303 -91q-325 0 -393 146.5t-68 251.5h254q8 -179 200 -179q63 0 107.5 34t44.5 90t-28.5 92t-78 67t-112 59.5t-177 81t-213 141.5t-98.5 226zM835.5 382.5q28.5 36.5 28.5 79.5q0 73 -92 126l-338 190q-12 6 -25 14.5t-33 6.5q-42 -4 -72 -48.5t-30 -99.5
q0 -54 66 -90l369 -201q35 -14 67 -14q31 0 59.5 36.5z" />
    <glyph glyph-name="dieresis" unicode="&#xa8;" horiz-adv-x="530" 
d="M-84 1462h277v-239h-277v239zM338 1462h276v-239h-276v239z" />
    <glyph glyph-name="copyright" unicode="&#xa9;" horiz-adv-x="1638" 
d="M832 281q-84 0 -165 34.5t-170 129.5t-89 294q0 198 118 326.5t318 128.5q145 0 247.5 -83t122.5 -234h-159q-16 72 -73.5 112.5t-137.5 40.5q-117 0 -178.5 -82t-61.5 -208t68 -211t165 -85t152 43t66 117h166q-23 -148 -127.5 -235.5t-261.5 -87.5zM242 731
q0 -259 166 -430.5t410 -171.5t411.5 172t167.5 430t-168 430t-411 172q-244 0 -410 -171.5t-166 -430.5zM33 731q0 174 64.5 316.5t173 242t251 153.5t298 54t298 -54t251 -153.5t173 -242t64.5 -316.5t-64.5 -315.5t-173 -241.5t-251 -154.5t-298 -54.5t-298 54.5
t-251 154.5t-173 241.5t-64.5 315.5z" />
    <glyph glyph-name="ordfeminine" unicode="&#xaa;" horiz-adv-x="704" 
d="M371 1462q297 0 297 -182v-340q0 -108 24 -154h-207q-10 31 -14 64q-79 -82 -221 -82q-96 0 -163 48t-67 157q0 147 110 173t180.5 32t116.5 17.5t46 53.5q0 53 -36 66.5t-79 13.5q-100 0 -108 -90h-209q33 223 330 223zM229 974q0 -73 104 -73q138 0 138 154v41
q-23 -20 -64.5 -25.5t-78.5 -13.5t-68 -24.5t-31 -58.5z" />
    <glyph glyph-name="guillemotleft" unicode="&#xab;" horiz-adv-x="909" 
d="M86 420v276l322 252v-246l-185 -145l185 -147v-246zM502 420v276l321 252v-246l-184 -145l184 -147v-246z" />
    <glyph glyph-name="logicalnot" unicode="&#xac;" horiz-adv-x="1228" 
d="M1130 203h-219v409h-813v219h1032v-628z" />
    <glyph glyph-name="registered" unicode="&#xae;" horiz-adv-x="1638" 
d="M1004 924q0 106 -177 106h-143v-225h152q84 0 126 23.5t42 95.5zM514 1163h324q162 0 249 -57t87 -208t-89.5 -182.5t-136.5 -35.5l230 -375h-179l-208 367h-107v-367h-170v858zM407.5 302q165.5 -173 410.5 -173t412 174t167 430t-168 428t-411 172q-244 0 -410 -171.5
t-166 -429t165.5 -430.5zM33 732q0 175 64.5 316.5t173 241t251 153.5t298 54t298 -54t251 -153.5t173 -241t64.5 -316.5t-64.5 -316.5t-173 -241.5t-251 -154.5t-298 -54.5t-298 54.5t-251 154.5t-173 241.5t-64.5 316.5z" />
    <glyph glyph-name="macron" unicode="&#xaf;" horiz-adv-x="530" 
d="M-117 1415h764v-153h-764v153z" />
    <glyph glyph-name="degree" unicode="&#xb0;" horiz-adv-x="819" 
d="M240 1159q0 -37 14 -69.5t37.5 -57t54.5 -39t63.5 -14.5t63.5 14.5t54.5 39t38 57t14.5 69.5t-14.5 70t-38 57.5t-54.5 38.5t-63.5 14t-63.5 -14t-54.5 -38.5t-37.5 -57.5t-14 -70zM106 1159.5q0 63.5 24 118.5t65 96t96 64.5t118.5 23.5t119 -23.5t96.5 -64.5t64.5 -96
t23.5 -118.5t-23.5 -119t-64.5 -96.5t-96.5 -64.5t-119 -23.5t-118.5 23.5t-96 64.5t-65 96.5t-24 119z" />
    <glyph glyph-name="plusminus" unicode="&#xb1;" horiz-adv-x="1228" 
d="M98 219h1035v-219h-1035v219zM725 768h408v-219h-408v-268h-219v268h-408v219h408v268h219v-268z" />
    <glyph glyph-name="twosuperior" unicode="&#xb2;" horiz-adv-x="802" 
d="M428 1462q135 0 227.5 -72.5t92.5 -203.5q0 -96 -48.5 -156.5t-118 -105.5t-143 -87t-127.5 -114h428v-164h-684q0 204 124.5 292t192.5 129.5t117.5 82t49.5 100.5q0 61 -34 98t-84 37q-87 0 -123 -62t-32 -130h-209q-2 158 90.5 257t280.5 99z" />
    <glyph glyph-name="threesuperior" unicode="&#xb3;" horiz-adv-x="802" 
d="M336 1094q89 0 141.5 15.5t52.5 73.5t-38.5 86.5t-96.5 28.5t-94.5 -43t-34.5 -104h-196q4 143 91 227t231 84t239.5 -66t95.5 -186q0 -61 -34 -110t-101 -66v-4q78 -14 122 -68t44 -126q0 -138 -100.5 -216.5t-260.5 -78.5t-258 84t-94 243h197q4 -66 42 -114.5
t107 -48.5t113.5 35.5t44.5 85.5q0 87 -59 105.5t-154 18.5v144z" />
    <glyph glyph-name="acute" unicode="&#xb4;" horiz-adv-x="530" 
d="M313 1190h-202l196 291h322z" />
    <glyph glyph-name="paragraph" unicode="&#xb6;" horiz-adv-x="1269" 
d="M453 731q-215 0 -332 97.5t-117 261.5q0 293 192.5 332.5t299.5 39.5h600v-1802h-209v1638h-225v-1638h-209v1071z" />
    <glyph glyph-name="periodcentered" unicode="&#xb7;" horiz-adv-x="569" 
d="M113 589q0 71 51 122t122 51t122 -51.5t51 -117.5t-49.5 -121.5t-120.5 -55.5q-116 0 -146 68.5t-30 104.5z" />
    <glyph glyph-name="cedilla" unicode="&#xb8;" horiz-adv-x="530" 
d="M518 -236q0 -210 -239 -210q-118 0 -172 17t-82 28l43 98q87 -37 171 -37q83 0 83 70q0 39 -24 52t-62 13t-78 -14l-43 49l121 174h100l-80 -113h4q20 11 62 11q83 1 139.5 -36t56.5 -102z" />
    <glyph glyph-name="onesuperior" unicode="&#xb9;" horiz-adv-x="802" 
d="M592 559h-209v561h-225v154q98 -4 173 34t89 136h172v-885z" />
    <glyph glyph-name="ordmasculine" unicode="&#xba;" horiz-adv-x="751" 
d="M244 1114q0 -35 7 -68.5t23.5 -61.5t41 -45t59.5 -17t60.5 17t42 45t23.5 61.5t7 68.5t-7 70t-23.5 62.5t-42 45t-60.5 17.5t-59.5 -17.5t-41 -45t-23.5 -62.5t-7 -70zM25 1114q0 162 95 255t255 93t256 -93t96 -255t-96 -254t-256 -92t-255 92t-95 254z" />
    <glyph glyph-name="guillemotright" unicode="&#xbb;" horiz-adv-x="909" 
d="M408 696v-276l-322 -256v246l184 147l-184 145v246zM823 696v-276l-321 -256v246l184 147l-184 145v246z" />
    <glyph glyph-name="onequarter" unicode="&#xbc;" horiz-adv-x="1826" 
d="M1411 641h-4l-233 -295h237v295zM1411 182h-393v191l385 487h205v-514h116v-164h-116v-182h-197v182zM483 559h-209v561h-225v154q98 -4 173 34t89 136h172v-885zM1159 1479h174l-844 -1524h-178z" />
    <glyph glyph-name="onehalf" unicode="&#xbd;" horiz-adv-x="1820" 
d="M1413 903q135 0 227.5 -72.5t92.5 -203.5q0 -96 -48.5 -156.5t-118 -106t-143 -87t-127.5 -113.5h428v-164h-684q0 204 114 284.5t159 108.5q110 69 160.5 110t50.5 101q0 61 -34 98t-84 37q-86 0 -122.5 -61.5t-32.5 -130.5h-209q-2 158 90.5 257t280.5 99zM483 559
h-209v561h-225v154q98 -4 173 34t89 136h172v-885zM1159 1479h174l-844 -1524h-178z" />
    <glyph glyph-name="threequarters" unicode="&#xbe;" horiz-adv-x="1820" 
d="M1452 641h-4l-234 -295h238v295zM1452 182h-393v191l385 487h205v-514h116v-164h-116v-182h-197v182zM371 1094q89 0 141.5 16t52.5 73q0 58 -38.5 86.5t-96.5 28.5t-94.5 -43t-34.5 -104h-197q4 143 91.5 227t231.5 84t239.5 -66t95.5 -186q0 -61 -34 -110t-101 -66v-4
q78 -14 122 -68t44 -126q0 -138 -100.5 -216.5t-260.5 -78.5t-258 84t-94 243h196q4 -66 42 -114.5t108 -48.5t114 35.5t44 85.5q0 87 -59 105.5t-154 18.5v144zM1337 1479h174l-843 -1524h-179z" />
    <glyph glyph-name="questiondown" unicode="&#xbf;" horiz-adv-x="1138" 
d="M743 772h-321v315h321v-315zM66 -6q0 189 77 262.5t135 114.5t104 87t56 122v77h277v-92q-10 -168 -79 -232.5t-125.5 -110t-90 -87t-33.5 -124.5q0 -82 45.5 -127.5t113.5 -45.5q115 0 168.5 75t53.5 191h301q-4 -220 -139 -362.5t-372 -142.5q-128 0 -225 39.5
t-182 124.5t-85 231z" />
    <glyph glyph-name="Agrave" unicode="&#xc0;" horiz-adv-x="1402" 
d="M338 1884h321l197 -291h-203zM510 565h379l-184 537h-5zM541 1462h329l547 -1462h-334l-110 326h-547l-115 -326h-325z" />
    <glyph glyph-name="Aacute" unicode="&#xc1;" horiz-adv-x="1402" 
d="M750 1593h-203l196 291h322zM510 565h379l-184 537h-5zM541 1462h329l547 -1462h-334l-110 326h-547l-115 -326h-325z" />
    <glyph glyph-name="Acircumflex" unicode="&#xc2;" horiz-adv-x="1402" 
d="M569 1884h267l225 -291h-240l-127 166l-131 -166h-221zM510 565h379l-184 537h-5zM541 1462h329l547 -1462h-334l-110 326h-547l-115 -326h-325z" />
    <glyph glyph-name="Atilde" unicode="&#xc3;" horiz-adv-x="1402" 
d="M856 1632q-68 0 -173 35t-146 35t-58.5 -23.5t-27.5 -62.5h-125q24 109 62 157t83 70.5t97 22.5t83 -12l93 -36t108 -24q45 0 65.5 21.5t18.5 50.5h141q-30 -104 -75.5 -169t-145.5 -65zM510 565h379l-184 537h-5zM541 1462h329l547 -1462h-334l-110 326h-547l-115 -326
h-325z" />
    <glyph glyph-name="Adieresis" unicode="&#xc4;" horiz-adv-x="1402" 
d="M352 1866h277v-240h-277v240zM774 1866h277v-240h-277v240zM510 565h379l-184 537h-5zM541 1462h329l547 -1462h-334l-110 326h-547l-115 -326h-325z" />
    <glyph glyph-name="Aring" unicode="&#xc5;" horiz-adv-x="1402" 
d="M451 1747q0 51 19 97t53 80t80 53.5t97.5 19.5t97.5 -19.5t80.5 -53.5t54 -80t19.5 -97t-19.5 -97t-54 -80t-80.5 -53.5t-97.5 -19.5t-97.5 19.5t-80 53.5t-53 80t-19 97zM571 1747q0 -59 35 -101t94.5 -42t95 42t35.5 101t-35.5 101t-95 42t-94.5 -42t-35 -101zM510 565
h379l-184 537h-5zM541 1462h329l547 -1462h-334l-110 326h-547l-115 -326h-325z" />
    <glyph glyph-name="AE" unicode="&#xc6;" horiz-adv-x="2009" 
d="M1917 1462v-270h-680v-313h639v-250h-639v-359h696v-270h-1007v326h-459l-148 -326h-342l699 1462h1241zM926 565v627h-70l-283 -627h353z" />
    <glyph glyph-name="Ccedilla" unicode="&#xc7;" horiz-adv-x="1517" 
d="M1012 -236q0 -210 -240 -210q-117 0 -171 17t-83 28l43 98q87 -37 171 -37q83 0 83 70q0 39 -23.5 52t-62.5 13t-78 -14l-43 49l99 141q-289 27 -459 239t-170 530t193.5 537.5t525.5 219.5q247 0 425 -139.5t205 -386.5h-311q-16 107 -107.5 181.5t-205.5 74.5
q-209 0 -306.5 -145t-97.5 -352t97 -350.5t301 -143.5q147 0 230 91t101 236h312q-24 -271 -196 -432.5t-441 -165.5l-53 -74h4q20 11 62 11q84 1 140 -36t56 -102z" />
    <glyph glyph-name="Egrave" unicode="&#xc8;" horiz-adv-x="1327" 
d="M301 1884h322l196 -291h-203zM141 1462h1094v-270h-772v-313h708v-250h-708v-359h788v-270h-1110v1462z" />
    <glyph glyph-name="Eacute" unicode="&#xc9;" horiz-adv-x="1327" 
d="M713 1593h-203l197 291h321zM141 1462h1094v-270h-772v-313h708v-250h-708v-359h788v-270h-1110v1462z" />
    <glyph glyph-name="Ecircumflex" unicode="&#xca;" horiz-adv-x="1327" 
d="M532 1884h267l225 -291h-240l-127 166l-131 -166h-221zM141 1462h1094v-270h-772v-313h708v-250h-708v-359h788v-270h-1110v1462z" />
    <glyph glyph-name="Edieresis" unicode="&#xcb;" horiz-adv-x="1327" 
d="M315 1866h277v-240h-277v240zM737 1866h277v-240h-277v240zM141 1462h1094v-270h-772v-313h708v-250h-708v-359h788v-270h-1110v1462z" />
    <glyph glyph-name="Igrave" unicode="&#xcc;" horiz-adv-x="604" 
d="M-61 1884h321l197 -291h-203zM141 1462h322v-1462h-322v1462z" />
    <glyph glyph-name="Iacute" unicode="&#xcd;" horiz-adv-x="604" 
d="M350 1593h-203l197 291h322zM141 1462h322v-1462h-322v1462z" />
    <glyph glyph-name="Icircumflex" unicode="&#xce;" horiz-adv-x="604" 
d="M170 1884h266l226 -291h-240l-127 166l-131 -166h-221zM141 1462h322v-1462h-322v1462z" />
    <glyph glyph-name="Idieresis" unicode="&#xcf;" horiz-adv-x="604" 
d="M-47 1866h276v-240h-276v240zM375 1866h276v-240h-276v240zM141 1462h322v-1462h-322v1462z" />
    <glyph glyph-name="Eth" unicode="&#xd0;" horiz-adv-x="1517" 
d="M463 874h328v-239h-328v-365h287q249 0 306.5 159t57.5 275q0 237 -96.5 362.5t-325.5 125.5h-229v-318zM141 637h-135v237h135v588h631q296 0 480 -186t184 -528t-172 -545t-492 -203h-631v637z" />
    <glyph glyph-name="Ntilde" unicode="&#xd1;" horiz-adv-x="1517" 
d="M914 1632q-69 0 -174 35t-146 35t-58.5 -23.5t-27.5 -62.5h-125q24 109 62 157t82.5 70.5t96.5 22.5t83.5 -12t93.5 -36t108 -24q45 0 65.5 21.5t18.5 50.5h142q-30 -104 -75 -169t-146 -65zM141 1462h320l610 -981h4v981h301v-1462h-321l-609 979h-4v-979h-301v1462z
" />
    <glyph glyph-name="Ograve" unicode="&#xd2;" horiz-adv-x="1593" 
d="M434 1884h322l196 -291h-202zM496 379q97 -143 301 -143t300.5 143.5t96.5 350.5q0 206 -96.5 351.5t-300.5 145.5t-301 -145t-97 -352q0 -208 97 -351zM1322 1277q194 -220 194 -549t-195 -546t-524.5 -217t-524 216.5t-194.5 546.5t193.5 549.5t525 219.5t525.5 -220z
" />
    <glyph glyph-name="Oacute" unicode="&#xd3;" horiz-adv-x="1593" 
d="M846 1593h-203l197 291h321zM496 379q97 -143 301 -143t300.5 143.5t96.5 350.5q0 206 -96.5 351.5t-300.5 145.5t-301 -145t-97 -352q0 -208 97 -351zM1322 1277q194 -220 194 -549t-195 -546t-524.5 -217t-524 216.5t-194.5 546.5t193.5 549.5t525 219.5t525.5 -220z
" />
    <glyph glyph-name="Ocircumflex" unicode="&#xd4;" horiz-adv-x="1593" 
d="M666 1884h266l225 -291h-239l-127 166l-132 -166h-221zM496 379q97 -143 301 -143t300.5 143.5t96.5 350.5q0 206 -96.5 351.5t-300.5 145.5t-301 -145t-97 -352q0 -208 97 -351zM1322 1277q194 -220 194 -549t-195 -546t-524.5 -217t-524 216.5t-194.5 546.5
t193.5 549.5t525 219.5t525.5 -220z" />
    <glyph glyph-name="Otilde" unicode="&#xd5;" horiz-adv-x="1593" 
d="M952 1632q-69 0 -173 35q-105 35 -146 35t-58.5 -23.5t-27.5 -62.5h-125q24 109 62 157t83 70.5t97 22.5t83 -12l93 -36t108 -24q45 0 65.5 21.5t18.5 50.5h142q-30 -104 -76.5 -169t-145.5 -65zM496 379q97 -143 301 -143t300.5 143.5t96.5 350.5q0 206 -96.5 351.5
t-300.5 145.5t-301 -145t-97 -352q0 -208 97 -351zM1322 1277q194 -220 194 -549t-195 -546t-524.5 -217t-524 216.5t-194.5 546.5t193.5 549.5t525 219.5t525.5 -220z" />
    <glyph glyph-name="Odieresis" unicode="&#xd6;" horiz-adv-x="1593" 
d="M449 1866h276v-240h-276v240zM870 1866h277v-240h-277v240zM496 379q97 -143 301 -143t300.5 143.5t96.5 350.5q0 206 -96.5 351.5t-300.5 145.5t-301 -145t-97 -352q0 -208 97 -351zM1322 1277q194 -220 194 -549t-195 -546t-524.5 -217t-524 216.5t-194.5 546.5
t193.5 549.5t525 219.5t525.5 -220z" />
    <glyph glyph-name="multiply" unicode="&#xd7;" horiz-adv-x="1228" 
d="M131 190l330 328l-326 328l156 155l325 -327l328 327l156 -155l-330 -328l330 -328l-156 -155l-328 330l-329 -330z" />
    <glyph glyph-name="Oslash" unicode="&#xd8;" horiz-adv-x="1593" 
d="M797 236q204 0 300.5 143.5t96.5 321.5t-55 303l-604 -668q100 -100 262 -100zM797 1227q-204 0 -301 -145t-97 -330t58 -303l606 673q-105 105 -266 105zM246 215q-168 204 -168 523t193.5 539t525.5 220q277 0 460 -158l164 183l103 -90l-172 -191q164 -209 164 -525
t-195 -533.5t-524 -217.5q-271 0 -457 156l-170 -189l-100 88z" />
    <glyph glyph-name="Ugrave" unicode="&#xd9;" horiz-adv-x="1517" 
d="M395 1884h322l196 -291h-202zM1382 553q0 -297 -165.5 -442.5t-460.5 -145.5t-458 144.5t-163 443.5v909h322v-909q0 -147 62.5 -232t236.5 -85t239.5 76.5t65.5 240.5v909h321v-909z" />
    <glyph glyph-name="Uacute" unicode="&#xda;" horiz-adv-x="1517" 
d="M807 1593h-203l197 291h321zM1382 553q0 -297 -165.5 -442.5t-460.5 -145.5t-458 144.5t-163 443.5v909h322v-909q0 -147 62.5 -232t236.5 -85t239.5 76.5t65.5 240.5v909h321v-909z" />
    <glyph glyph-name="Ucircumflex" unicode="&#xdb;" horiz-adv-x="1517" 
d="M627 1884h266l225 -291h-239l-127 166l-131 -166h-222zM1382 553q0 -297 -165.5 -442.5t-460.5 -145.5t-458 144.5t-163 443.5v909h322v-909q0 -147 62.5 -232t236.5 -85t239.5 76.5t65.5 240.5v909h321v-909z" />
    <glyph glyph-name="Udieresis" unicode="&#xdc;" horiz-adv-x="1517" 
d="M410 1866h276v-240h-276v240zM831 1866h277v-240h-277v240zM1382 553q0 -297 -165.5 -442.5t-460.5 -145.5t-458 144.5t-163 443.5v909h322v-909q0 -147 62.5 -232t236.5 -85t239.5 76.5t65.5 240.5v909h321v-909z" />
    <glyph glyph-name="Yacute" unicode="&#xdd;" horiz-adv-x="1366" 
d="M731 1593h-203l197 291h322zM842 0h-322v569l-538 893h362l342 -577l340 577h358l-542 -901v-561z" />
    <glyph glyph-name="Thorn" unicode="&#xde;" horiz-adv-x="1366" 
d="M463 575h250q129 0 182 32t76.5 75t23.5 141.5t-76.5 144.5t-205.5 46h-250v-439zM141 1462h322v-198h338q255 0 380.5 -136t125.5 -333t-125.5 -333t-380.5 -136h-338v-326h-322v1462z" />
    <glyph glyph-name="germandbls" unicode="&#xdf;" horiz-adv-x="1251" 
d="M115 1006q0 491 481 491q197 0 331 -100t134 -293q0 -96 -52.5 -177t-138.5 -108v-4q125 -26 196 -126.5t71 -217.5q0 -218 -128 -359t-317 -141q-86 0 -168 13v237q33 -10 84 -10q103 0 170.5 71.5t67.5 179.5t-60.5 177.5t-189.5 69.5q-34 0 -72 -4v192q24 -4 55 -4
q82 0 143.5 46.5t61.5 122.5q0 123 -59.5 159t-142.5 36q-82 0 -129 -54t-47 -146v-1057h-291v1006z" />
    <glyph glyph-name="agrave" unicode="&#xe0;" horiz-adv-x="1175" 
d="M225 1481h322l196 -291h-202zM596 1087q315 0 390 -103t75 -198v-550q0 -178 37 -236h-295q-17 54 -21 102q-127 -131 -356 -131q-158 0 -259 80.5t-101 237.5q0 232 168 277.5t275 56t155.5 22.5t77 36t28.5 70q0 82 -49 112t-139 30q-178 0 -193 -160h-291
q11 187 152.5 270.5t345.5 83.5zM535 166q235 0 235 244v108q-41 -36 -175 -51t-186.5 -54.5t-52.5 -111.5q0 -135 179 -135z" />
    <glyph glyph-name="aacute" unicode="&#xe1;" horiz-adv-x="1175" 
d="M637 1190h-203l197 291h321zM596 1087q315 0 390 -103t75 -198v-550q0 -178 37 -236h-295q-17 54 -21 102q-127 -131 -356 -131q-158 0 -259 80.5t-101 237.5q0 232 168 277.5t275 56t155.5 22.5t77 36t28.5 70q0 82 -49 112t-139 30q-178 0 -193 -160h-291
q11 187 152.5 270.5t345.5 83.5zM535 166q235 0 235 244v108q-41 -36 -175 -51t-186.5 -54.5t-52.5 -111.5q0 -135 179 -135z" />
    <glyph glyph-name="acircumflex" unicode="&#xe2;" horiz-adv-x="1175" 
d="M457 1481h266l225 -291h-239l-127 166l-131 -166h-222zM596 1087q315 0 390 -103t75 -198v-550q0 -178 37 -236h-295q-17 54 -21 102q-127 -131 -356 -131q-158 0 -259 80.5t-101 237.5q0 232 168 277.5t275 56t155.5 22.5t77 36t28.5 70q0 82 -49 112t-139 30
q-178 0 -193 -160h-291q11 187 152.5 270.5t345.5 83.5zM535 166q235 0 235 244v108q-41 -36 -175 -51t-186.5 -54.5t-52.5 -111.5q0 -135 179 -135z" />
    <glyph glyph-name="atilde" unicode="&#xe3;" horiz-adv-x="1175" 
d="M744 1229q-72 1 -144 25t-106.5 34t-72.5 10t-55.5 -23.5t-27.5 -62.5h-125q25 111 80.5 180.5t177.5 69.5q42 0 130 -36t136 -35q47 0 67.5 21.5t18.5 49.5h142q-29 -102 -74.5 -167.5t-146.5 -65.5zM596 1087q315 0 390 -103t75 -198v-550q0 -178 37 -236h-295
q-17 54 -21 102q-127 -131 -356 -131q-158 0 -259 80.5t-101 237.5q0 232 168 277.5t275 56t155.5 22.5t77 36t28.5 70q0 82 -49 112t-139 30q-178 0 -193 -160h-291q11 187 152.5 270.5t345.5 83.5zM535 166q235 0 235 244v108q-41 -36 -175 -51t-186.5 -54.5t-52.5 -111.5
q0 -135 179 -135z" />
    <glyph glyph-name="adieresis" unicode="&#xe4;" horiz-adv-x="1175" 
d="M240 1462h276v-239h-276v239zM662 1462h276v-239h-276v239zM596 1087q315 0 390 -103t75 -198v-550q0 -178 37 -236h-295q-17 54 -21 102q-127 -131 -356 -131q-158 0 -259 80.5t-101 237.5q0 232 168 277.5t275 56t155.5 22.5t77 36t28.5 70q0 82 -49 112t-139 30
q-178 0 -193 -160h-291q11 187 152.5 270.5t345.5 83.5zM535 166q235 0 235 244v108q-41 -36 -175 -51t-186.5 -54.5t-52.5 -111.5q0 -135 179 -135z" />
    <glyph glyph-name="aring" unicode="&#xe5;" horiz-adv-x="1175" 
d="M338 1343.5q0 51.5 19.5 97.5t53 79.5t80 53t97.5 19.5t97 -19.5t81 -53t54.5 -79.5t19.5 -97.5t-19.5 -97.5t-54.5 -79.5t-81 -53t-97 -19.5t-97.5 19.5t-80 53t-53 79.5t-19.5 97.5zM459 1343.5q0 -59.5 34.5 -101.5t94 -42t95.5 42t36 101.5t-36 101.5t-95.5 42
t-94 -42t-34.5 -101.5zM596 1087q315 0 390 -103t75 -198v-550q0 -178 37 -236h-295q-17 54 -21 102q-127 -131 -356 -131q-158 0 -259 80.5t-101 237.5q0 232 168 277.5t275 56t155.5 22.5t77 36t28.5 70q0 82 -49 112t-139 30q-178 0 -193 -160h-291q11 187 152.5 270.5
t345.5 83.5zM535 166q235 0 235 244v108q-41 -36 -175 -51t-186.5 -54.5t-52.5 -111.5q0 -135 179 -135z" />
    <glyph glyph-name="ae" unicode="&#xe6;" horiz-adv-x="1857" 
d="M1507 643q0 166 -86 208t-167 42t-146.5 -74t-65.5 -176h465zM788 805q0 88 -192 88t-199 -164h-291q7 186 148 272t352 86q252 0 350 -143q61 72 144.5 107.5t213.5 35.5q244 0 364 -178.5t120 -449.5h-756q-4 -114 68 -203.5t184 -89.5q181 0 211 166h283
q-46 -170 -179 -265.5t-309 -95.5q-115 0 -221 42t-174 139q-102 -135 -237.5 -158t-203.5 -23q-159 0 -272.5 76t-113.5 240q0 233 151.5 275t290.5 61.5t183.5 34t64.5 37t20 110.5zM419.5 198q50.5 -32 109.5 -32q114 0 186.5 56.5t72.5 162.5v131q-38 -30 -91.5 -39.5
t-89.5 -14.5t-68.5 -11.5t-63.5 -15.5t-68.5 -35.5t-37.5 -97.5q0 -72 50.5 -104z" />
    <glyph glyph-name="ccedilla" unicode="&#xe7;" horiz-adv-x="1175" 
d="M842 -236q0 -210 -240 -210q-117 0 -171 17t-83 28l43 98q87 -37 171 -37q83 0 83 70q0 39 -23.5 52t-62.5 13t-78 -14l-43 49l103 147q-206 20 -334.5 167.5t-128.5 385.5q0 239 144.5 398t395.5 159q203 0 345 -105t153 -296h-285q-29 182 -215 182q-125 0 -186 -101.5
t-61 -281.5t87.5 -237.5t171.5 -57.5t141.5 58.5t72.5 157.5h280q-27 -205 -155.5 -315.5t-329.5 -117.5l-57 -82h4q20 11 62 11q84 1 140 -36t56 -102z" />
    <glyph glyph-name="egrave" unicode="&#xe8;" horiz-adv-x="1175" 
d="M225 1481h322l196 -291h-202zM823 643q-41 225 -213 225q-143 0 -199 -70.5t-61 -154.5h473zM600 -29q-249 0 -395 155.5t-146 400.5t152.5 402.5t400.5 157.5t383.5 -185t118.5 -443h-764q12 -269 260 -269q88 0 151.5 44.5t78.5 93.5h256q-116 -357 -496 -357z" />
    <glyph glyph-name="eacute" unicode="&#xe9;" horiz-adv-x="1175" 
d="M637 1190h-203l197 291h321zM823 643q-41 225 -213 225q-143 0 -199 -70.5t-61 -154.5h473zM600 -29q-249 0 -395 155.5t-146 400.5t152.5 402.5t400.5 157.5t383.5 -185t118.5 -443h-764q12 -269 260 -269q88 0 151.5 44.5t78.5 93.5h256q-116 -357 -496 -357z" />
    <glyph glyph-name="ecircumflex" unicode="&#xea;" horiz-adv-x="1175" 
d="M457 1481h266l225 -291h-239l-127 166l-131 -166h-222zM823 643q-41 225 -213 225q-143 0 -199 -70.5t-61 -154.5h473zM600 -29q-249 0 -395 155.5t-146 400.5t152.5 402.5t400.5 157.5t383.5 -185t118.5 -443h-764q12 -269 260 -269q88 0 151.5 44.5t78.5 93.5h256
q-116 -357 -496 -357z" />
    <glyph glyph-name="edieresis" unicode="&#xeb;" horiz-adv-x="1175" 
d="M240 1462h276v-239h-276v239zM662 1462h276v-239h-276v239zM823 643q-41 225 -213 225q-143 0 -199 -70.5t-61 -154.5h473zM600 -29q-249 0 -395 155.5t-146 400.5t152.5 402.5t400.5 157.5t383.5 -185t118.5 -443h-764q12 -269 260 -269q88 0 151.5 44.5t78.5 93.5h256
q-116 -357 -496 -357z" />
    <glyph glyph-name="igrave" unicode="&#xec;" horiz-adv-x="528" 
d="M-98 1481h321l197 -291h-203zM119 1059h291v-1059h-291v1059z" />
    <glyph glyph-name="iacute" unicode="&#xed;" horiz-adv-x="528" 
d="M313 1190h-202l196 291h322zM119 1059h291v-1059h-291v1059z" />
    <glyph glyph-name="icircumflex" unicode="&#xee;" horiz-adv-x="528" 
d="M133 1481h266l226 -291h-240l-127 166l-131 -166h-221zM119 1059h291v-1059h-291v1059z" />
    <glyph glyph-name="idieresis" unicode="&#xef;" horiz-adv-x="528" 
d="M-84 1462h277v-239h-277v239zM338 1462h276v-239h-276v239zM119 1059h291v-1059h-291v1059z" />
    <glyph glyph-name="eth" unicode="&#xf0;" horiz-adv-x="1251" 
d="M567 1036q141 0 258 -82h4q-37 86 -97 150.5t-111 109.5l-230 -114l-119 114l220 111q-90 63 -173 102l189 142q111 -61 203 -135l252 127l106 -121l-233 -117q164 -158 253 -342t85 -422q0 -258 -152.5 -423t-397 -165t-395.5 149.5t-151 374.5q0 224 120.5 382.5
t368.5 158.5zM657 190q106 0 166 97.5t60 231.5t-64 228.5t-195 94.5t-193 -92.5t-62 -221.5q0 -230 91 -284t197 -54z" />
    <glyph glyph-name="ntilde" unicode="&#xf1;" horiz-adv-x="1214" 
d="M445 1298q-44 0 -61 -23.5t-28 -62.5h-125q25 112 81.5 181t176.5 69q43 0 131 -36t136 -35q47 0 67.5 21.5t18.5 49.5h141q-29 -102 -75 -167.5t-146 -65.5q-71 1 -172 35t-145 34zM393 911q109 176 337 176q206 0 290 -111t84 -325v-651h-291v598q0 131 -42.5 195.5
t-152.5 64.5t-163.5 -70.5t-53.5 -232.5v-555h-290v1059h276v-148h6z" />
    <glyph glyph-name="ograve" unicode="&#xf2;" horiz-adv-x="1251" 
d="M262 1481h322l196 -291h-202zM369 528.5q0 -63.5 12 -124t42 -108.5t79 -77t122.5 -29t124 29t80 77t42 108.5t12.5 124t-12.5 125t-42 108.5t-80 76.5t-124 29.5t-122.5 -29.5t-79 -76.5t-42 -108.5t-12 -125zM78 528q0 127 39 230.5t110.5 176.5t172 112.5t225.5 39.5
t226 -39.5t173 -112.5t111 -176.5t39 -230.5t-39 -229t-111 -175t-173 -113t-226 -40t-225.5 40t-172 113t-110.5 175t-39 229z" />
    <glyph glyph-name="oacute" unicode="&#xf3;" horiz-adv-x="1251" 
d="M674 1190h-203l197 291h321zM369 528.5q0 -63.5 12 -124t42 -108.5t79 -77t122.5 -29t124 29t80 77t42 108.5t12.5 124t-12.5 125t-42 108.5t-80 76.5t-124 29.5t-122.5 -29.5t-79 -76.5t-42 -108.5t-12 -125zM78 528q0 127 39 230.5t110.5 176.5t172 112.5t225.5 39.5
t226 -39.5t173 -112.5t111 -176.5t39 -230.5t-39 -229t-111 -175t-173 -113t-226 -40t-225.5 40t-172 113t-110.5 175t-39 229z" />
    <glyph glyph-name="ocircumflex" unicode="&#xf4;" horiz-adv-x="1251" 
d="M494 1481h266l225 -291h-240l-127 166l-131 -166h-221zM369 528.5q0 -63.5 12 -124t42 -108.5t79 -77t122.5 -29t124 29t80 77t42 108.5t12.5 124t-12.5 125t-42 108.5t-80 76.5t-124 29.5t-122.5 -29.5t-79 -76.5t-42 -108.5t-12 -125zM78 528q0 127 39 230.5
t110.5 176.5t172 112.5t225.5 39.5t226 -39.5t173 -112.5t111 -176.5t39 -230.5t-39 -229t-111 -175t-173 -113t-226 -40t-225.5 40t-172 113t-110.5 175t-39 229z" />
    <glyph glyph-name="otilde" unicode="&#xf5;" horiz-adv-x="1251" 
d="M780 1229q-72 1 -143 25q-72 24 -106.5 34t-72.5 10t-55.5 -23.5t-27.5 -62.5h-125q25 111 80.5 180.5t177.5 69.5q42 0 130 -36t136 -35q47 0 67.5 21.5t18.5 49.5h141q-30 -105 -76 -169t-145 -64zM369 528.5q0 -63.5 12 -124t42 -108.5t79 -77t122.5 -29t124 29t80 77
t42 108.5t12.5 124t-12.5 125t-42 108.5t-80 76.5t-124 29.5t-122.5 -29.5t-79 -76.5t-42 -108.5t-12 -125zM78 528q0 127 39 230.5t110.5 176.5t172 112.5t225.5 39.5t226 -39.5t173 -112.5t111 -176.5t39 -230.5t-39 -229t-111 -175t-173 -113t-226 -40t-225.5 40
t-172 113t-110.5 175t-39 229z" />
    <glyph glyph-name="odieresis" unicode="&#xf6;" horiz-adv-x="1251" 
d="M276 1462h277v-239h-277v239zM698 1462h277v-239h-277v239zM369 528.5q0 -63.5 12 -124t42 -108.5t79 -77t122.5 -29t124 29t80 77t42 108.5t12.5 124t-12.5 125t-42 108.5t-80 76.5t-124 29.5t-122.5 -29.5t-79 -76.5t-42 -108.5t-12 -125zM78 528q0 127 39 230.5
t110.5 176.5t172 112.5t225.5 39.5t226 -39.5t173 -112.5t111 -176.5t39 -230.5t-39 -229t-111 -175t-173 -113t-226 -40t-225.5 40t-172 113t-110.5 175t-39 229z" />
    <glyph glyph-name="divide" unicode="&#xf7;" horiz-adv-x="1228" 
d="M492.5 212q50.5 52 122.5 52q71 0 122 -50t51 -118t-50.5 -123t-120.5 -55t-122.5 52.5t-52.5 121.5q0 68 50.5 120zM492.5 1064q50.5 52 122.5 52q71 0 122 -51t51 -119t-50 -122t-121 -54q-72 0 -123.5 51.5t-51.5 121.5q0 69 50.5 121zM98 627h1035v-219h-1035v219z
" />
    <glyph glyph-name="oslash" unicode="&#xf8;" horiz-adv-x="1251" 
d="M1032 924q142 -150 142 -399t-150.5 -401.5t-398.5 -152.5q-199 0 -338 103l-121 -137l-76 65l123 139q-135 147 -135 394t149 399.5t398 152.5q195 0 333 -98l109 125l76 -65zM451 260q62 -70 187 -70t185 97.5t60 220.5t-33 207zM369 551q0 -126 30 -199l396 451
q-61 66 -170 65q-134 0 -195 -95.5t-61 -221.5z" />
    <glyph glyph-name="ugrave" unicode="&#xf9;" horiz-adv-x="1214" 
d="M244 1481h321l197 -291h-203zM821 147q-107 -176 -335 -176q-205 0 -290 110t-85 327v651h290v-598q0 -131 42 -195.5t153 -64.5t164 70.5t53 232.5v555h291v-1059h-277v147h-6z" />
    <glyph glyph-name="uacute" unicode="&#xfa;" horiz-adv-x="1214" 
d="M655 1190h-202l196 291h322zM821 147q-107 -176 -335 -176q-205 0 -290 110t-85 327v651h290v-598q0 -131 42 -195.5t153 -64.5t164 70.5t53 232.5v555h291v-1059h-277v147h-6z" />
    <glyph glyph-name="ucircumflex" unicode="&#xfb;" horiz-adv-x="1214" 
d="M475 1481h266l226 -291h-240l-127 166l-131 -166h-221zM821 147q-107 -176 -335 -176q-205 0 -290 110t-85 327v651h290v-598q0 -131 42 -195.5t153 -64.5t164 70.5t53 232.5v555h291v-1059h-277v147h-6z" />
    <glyph glyph-name="udieresis" unicode="&#xfc;" horiz-adv-x="1214" 
d="M258 1462h277v-239h-277v239zM680 1462h276v-239h-276v239zM821 147q-107 -176 -335 -176q-205 0 -290 110t-85 327v651h290v-598q0 -131 42 -195.5t153 -64.5t164 70.5t53 232.5v555h291v-1059h-277v147h-6z" />
    <glyph glyph-name="yacute" unicode="&#xfd;" horiz-adv-x="1062" 
d="M580 1190h-203l196 291h322zM268 -373q-79 0 -178 11v239q124 -12 166 -9q41 3 66.5 22.5t38 48t12.5 62.5t-13 65l-372 993h311l240 -725h4l231 725h301l-442 -1192q-47 -127 -131 -183.5t-234 -56.5z" />
    <glyph glyph-name="thorn" unicode="&#xfe;" horiz-adv-x="1251" 
d="M834.5 769.5q-62.5 98.5 -192.5 98.5t-190.5 -96.5t-60.5 -245.5q0 -226 91 -281t163 -55t120 29t90 94.5t42 211.5t-62.5 244.5zM707 1087q233 0 357 -162.5t124 -398.5q0 -235 -122 -395t-343 -160q-96 0 -180 41t-137 119h-5v-504h-290v1835h290v-538h5
q100 163 301 163z" />
    <glyph glyph-name="ydieresis" unicode="&#xff;" horiz-adv-x="1062" 
d="M182 1462h277v-239h-277v239zM604 1462h277v-239h-277v239zM268 -373q-79 0 -178 11v239q124 -12 166 -9q41 3 66.5 22.5t38 48t12.5 62.5t-13 65l-372 993h311l240 -725h4l231 725h301l-442 -1192q-47 -127 -131 -183.5t-234 -56.5z" />
    <glyph glyph-name="dotlessi" unicode="&#x131;" horiz-adv-x="528" 
d="M119 1059h291v-1059h-291v1059z" />
    <glyph glyph-name="Lslash" unicode="&#x141;" horiz-adv-x="1214" 
d="M141 1462h322v-569l432 303v-229l-432 -303v-394h713v-270h-1035v438l-164 -114v229l164 115v794z" />
    <glyph glyph-name="lslash" unicode="&#x142;" horiz-adv-x="528" 
d="M119 1462h291v-438l137 109v-209l-137 -109v-815h-291v586l-137 -109v209l137 109v667z" />
    <glyph glyph-name="OE" unicode="&#x152;" horiz-adv-x="2238" 
d="M1102 918q0 136 -88.5 222.5t-211.5 86.5q-213 0 -308 -146.5t-95 -353.5q0 -327 139.5 -409t241.5 -82q147 0 234.5 92t87.5 241v349zM764 1497q236 0 346 -139h4v104h1024v-270h-725v-313h664v-250h-664v-359h739v-270h-1038v111h-4q-66 -72 -161 -109t-191 -37
q-162 0 -289 61.5t-214 166t-132 241.5t-45 288.5t46 292t134 248t216 171t290 63.5z" />
    <glyph glyph-name="oe" unicode="&#x153;" horiz-adv-x="1896" 
d="M1337 1087q121 0 310.5 -98t189.5 -530h-756q0 -115 62.5 -192t189.5 -77q156 0 213 146h283q-51 -174 -183.5 -269.5t-312.5 -95.5q-111 0 -216 41t-167 140q-79 -134 -200 -157.5t-175 -23.5q-234 0 -365.5 162t-131.5 401t144 396t389 157t352 -167q50 76 151.5 121.5
t222.5 45.5zM598 190q127 0 178 99.5t51 241.5t-32.5 207t-76.5 97.5t-115 32.5q-126 0 -180 -100t-54 -244q0 -216 79.5 -275t149.5 -59zM1314 868q-114 0 -171.5 -65.5t-61.5 -159.5h465q-4 102 -61 163.5t-171 61.5z" />
    <glyph glyph-name="Scaron" unicode="&#x160;" horiz-adv-x="1329" 
d="M799 1593h-267l-227 291h230l131 -166l133 166h225zM920 1026q-13 221 -280 221q-101 0 -165.5 -42t-64.5 -124q0 -43 16 -69.5t74 -52t216 -65.5q157 -40 199.5 -51.5t122.5 -43t161 -122.5t81 -243q0 -208 -159.5 -338.5t-436.5 -130.5q-276 0 -457.5 134t-177.5 386
h311q0 -137 92.5 -203.5t231.5 -66.5q183 0 234 63.5t51 120.5t-38 94t-99.5 63t-139.5 43t-158 39q-200 53 -318 143t-118 286t163 313t400 117t403.5 -116.5t166.5 -354.5h-311z" />
    <glyph glyph-name="scaron" unicode="&#x161;" horiz-adv-x="1099" 
d="M684 1190h-266l-228 291h230l131 -166l133 166h225zM537 893q-162 0 -162 -98q0 -69 74.5 -94t134.5 -37.5t122 -26.5q156 -35 245 -99.5t89 -183.5q0 -207 -138.5 -295t-344.5 -88q-328 0 -411 134.5t-87 238.5h277q0 -88 64 -133t172 -45t143 48t35 84q0 63 -77 97
t-196 59q-120 25 -256.5 69t-136.5 228t131.5 260t382 76t328.5 -119.5t86 -217.5h-277q-6 84 -63.5 113.5t-134.5 29.5z" />
    <glyph glyph-name="Ydieresis" unicode="&#x178;" horiz-adv-x="1366" 
d="M334 1866h276v-240h-276v240zM756 1866h276v-240h-276v240zM842 0h-322v569l-538 893h362l342 -577l340 577h358l-542 -901v-561z" />
    <glyph glyph-name="Zcaron" unicode="&#x17d;" horiz-adv-x="1327" 
d="M799 1593h-267l-227 291h230l131 -166l133 166h225zM109 1192v270h1151v-254l-785 -938h805v-270h-1233v254l784 938h-722z" />
    <glyph glyph-name="zcaron" unicode="&#x17e;" horiz-adv-x="1062" 
d="M666 1190h-267l-227 291h229l131 -166l134 166h225zM86 840v219h893v-219l-551 -621h590v-219h-973v219l551 621h-510z" />
    <glyph glyph-name="florin" unicode="&#x192;" horiz-adv-x="1138" 
d="M913 1278q-65 0 -97 -30.5t-44 -96.5l-51 -266h201l-33 -195h-205l-115 -635q-39 -220 -126 -311.5t-302 -91.5q-87 0 -151 6l39 219q39 -6 82 -6q78 -2 106.5 36t40.5 109l129 674h-188l37 195h186l49 260q36 194 128.5 273t293.5 79q82 0 154 -14l-37 -219
q-32 14 -97 14z" />
    <glyph glyph-name="circumflex" unicode="&#x2c6;" horiz-adv-x="530" 
d="M133 1481h266l226 -291h-240l-127 166l-131 -166h-221z" />
    <glyph glyph-name="caron" unicode="&#x2c7;" horiz-adv-x="530" 
d="M399 1190h-266l-227 291h229l131 -166l133 166h226z" />
    <glyph glyph-name="breve" unicode="&#x2d8;" horiz-adv-x="530" 
d="M256 1343q191 0 225 146h129q-38 -299 -364 -299q-147 0 -230.5 75.5t-95.5 223.5h133q16 -110 94 -128t109 -18z" />
    <glyph glyph-name="dotaccent" unicode="&#x2d9;" horiz-adv-x="530" 
d="M127 1462h276v-239h-276v239z" />
    <glyph glyph-name="ring" unicode="&#x2da;" horiz-adv-x="530" 
d="M14 1343.5q0 51.5 19.5 97.5t53.5 79.5t80 53t97 19.5t97.5 -19.5t81 -53t54 -79.5t19.5 -97.5t-19.5 -97.5t-54 -79.5t-81 -53t-97.5 -19.5t-97 19.5t-80 53t-53.5 79.5t-19.5 97.5zM135 1343.5q0 -59.5 35 -101.5t94.5 -42t95 42t35.5 101.5t-35.5 101.5t-95 42
t-94.5 -42t-35 -101.5z" />
    <glyph glyph-name="ogonek" unicode="&#x2db;" horiz-adv-x="530" 
d="M385 6q-170 -156 -170 -249q0 -42 24.5 -61.5t55.5 -19.5q73 0 119 62l98 -45q-109 -139 -274 -139q-133 0 -176.5 59t-43.5 125q0 129 234 268h133z" />
    <glyph glyph-name="tilde" unicode="&#x2dc;" horiz-adv-x="530" 
d="M420 1229q-71 1 -172 35t-145 34t-61 -23.5t-28 -62.5h-125q25 112 81.5 181t176.5 69q43 0 131 -36t136 -35q47 0 67.5 21.5t18.5 49.5h141q-29 -102 -75 -167.5t-146 -65.5z" />
    <glyph glyph-name="hungarumlaut" unicode="&#x2dd;" horiz-adv-x="530" 
d="M512 1190h-203l187 291h321zM88 1190h-203l187 291h321z" />
    <glyph glyph-name="pi" unicode="&#x3c0;" horiz-adv-x="1206" 
d="M784 252v541h-432v-793h-207v793h-143v196h1151v-196h-162v-510q0 -62 14.5 -91.5t60.5 -29.5t93 20v-155q-88 -41 -163 -41q-131 0 -171.5 66.5t-40.5 199.5z" />
    <glyph glyph-name="uni060C" unicode="&#x60c;" horiz-adv-x="708" 
d="M438 0h-327v317q0 132 91 223t234 117v-151q-61 -12 -103 -66.5t-42 -117.5h147v-322z" />
    <glyph glyph-name="uni061B" unicode="&#x61b;" horiz-adv-x="704" 
d="M469 483h-328v318q0 130 91 221t235 119v-152q-61 -12 -103 -66.5t-42 -117.5h147v-322zM150 315h321v-315h-321v315z" />
    <glyph glyph-name="uni061F" unicode="&#x61f;" horiz-adv-x="1208" 
d="M457 315h321v-315h-321v315zM602 1176q-151 0 -151 -162q0 -62 33.5 -105.5t80.5 -77.5q88 -66 129 -127.5t49 -175.5v-86h-256v74q-14 68 -54 112t-93 79l-18 12q-80 65 -123 134t-43 195t112.5 238.5t347.5 112.5q195 0 318 -130.5t131 -330.5h-277q-7 163 -72 200.5
t-114 37.5z" />
    <glyph glyph-name="uni0640" unicode="&#x640;" horiz-adv-x="303" 
d="M0 0q-40 0 -60 20t-20 91.5t19.5 98t60.5 26.5h303q60 0 74 -52q6 -22 6 -76q0 -108 -80 -108h-303z" />
    <glyph glyph-name="uni0647" unicode="&#x647;" horiz-adv-x="903" 
d="M113.5 696q113.5 146 287.5 146t287 -129t113 -344q-1 -251 -221 -345q-76 -32 -174.5 -32t-171 22.5t-124.5 68.5q-110 96 -110 281.5t113.5 331.5zM254 393q0 -168 145 -168q150 0 150 152q0 92 -38 157.5t-111 65.5t-109.5 -63.5t-36.5 -143.5z" />
    <glyph glyph-name="uni064B" unicode="&#x64b;" horiz-adv-x="0" 
d="M246 1464l-492 -67v98l492 70v-101zM246 1638l-492 -69v98l492 70v-99z" />
    <glyph glyph-name="uni064C" unicode="&#x64c;" horiz-adv-x="0" 
d="M-195 1681q80 -165 188 -165t142 73q-29 -10 -81 -10t-93 38t-41 106.5t46 115.5t113 47t114 -46t47 -135q0 -156 -67 -218t-165 -62t-149.5 36t-85.5 89q-4 -2 -125 -69q-38 77 -45 88zM10 1724q0 -59 81 -59q25 0 59 12v15q0 51 -20.5 78.5t-53.5 27.5t-49.5 -24.5
t-16.5 -49.5z" />
    <glyph glyph-name="uni064D" unicode="&#x64d;" horiz-adv-x="0" 
d="M246 -573l-492 -68v98l492 70v-100zM246 -399l-492 -70v98l492 70v-98z" />
    <glyph glyph-name="uni064E" unicode="&#x64e;" horiz-adv-x="0" 
d="M246 1464l-492 -67v98l492 70v-101z" />
    <glyph glyph-name="uni064F" unicode="&#x64f;" horiz-adv-x="0" 
d="M-83 1516q112 0 149 73q-29 -10 -81.5 -10t-93.5 38t-41 106.5t45.5 115.5t112 47t113.5 -46t47 -148q0 -265 -258 -265q-61 0 -98 11v88q44 -10 105 -10zM-61 1724q0 -59 84 -59q27 0 57 12v15q0 51 -20.5 78.5t-53.5 27.5t-50 -24.5t-17 -49.5z" />
    <glyph glyph-name="uni0650" unicode="&#x650;" horiz-adv-x="0" 
d="M246 -399l-492 -70v98l492 70v-98z" />
    <glyph glyph-name="uni0651" unicode="&#x651;" horiz-adv-x="0" 
d="M-102 1509q59 0 59 80v94h102v-92q0 -49 19.5 -63.5t45.5 -14.5t35 18.5t9 53.5v135h102v-141q0 -170 -143 -170q-75 0 -117 57q-39 -57 -121 -57q-147 0 -147 170v141h102v-129q0 -82 54 -82z" />
    <glyph glyph-name="uni0652" unicode="&#x652;" horiz-adv-x="0" 
d="M-86 1593.5q0 -34.5 25.5 -60.5t60.5 -26t60.5 26t25.5 60.5t-25.5 59t-60.5 24.5t-60.5 -24.5t-25.5 -59zM-166 1590q0 69 48 118t116 49t117 -49t49 -118t-49 -116t-117 -47t-116 47t-48 116z" />
    <glyph glyph-name="uni0653" unicode="&#x653;" horiz-adv-x="0" 
d="M184 1710q81 0 109 92l106 -47q-35 -90 -80 -139t-113 -49q-106 0 -214 53q-115 51 -165 51t-112 -45l-65 98q98 95 182 95t193 -54.5t159 -54.5z" />
    <glyph glyph-name="uni0654" unicode="&#x654;" horiz-adv-x="0" 
d="M-31 1796q0 -67 84 -67h109v-144h-400v144h82q-18 25 -18 78q0 97 56 146.5t122 49.5t115 -21v-135q-53 12 -84 12.5t-48.5 -18t-17.5 -45.5z" />
    <glyph glyph-name="uni0655" unicode="&#x655;" horiz-adv-x="0" 
d="M-31 -324q0 -66 84 -65h109v-143h-400v143h82q-18 25 -18 77q0 95 55 146t120 51t118 -20v-137q-53 12 -84 12t-48.5 -19t-17.5 -45z" />
    <glyph glyph-name="uni0656" unicode="&#x656;" horiz-adv-x="0" 
d="M-49 -195h104v-415h-104v415z" />
    <glyph glyph-name="uni0658" unicode="&#x658;" horiz-adv-x="0" 
d="M213 1673v-168q0 -109 -58.5 -163t-154.5 -54t-154.5 55.5t-58.5 161.5v168h131v-172q0 -41 22.5 -64.5t60.5 -23.5t59.5 23.5t21.5 64.5v172h131z" />
    <glyph glyph-name="uni0660" unicode="&#x660;" 
d="M518 172l-244 246l244 231l240 -235z" />
    <glyph glyph-name="uni0661" unicode="&#x661;" 
d="M385 1217h262v-1217h-262v1217z" />
    <glyph glyph-name="uni0662" unicode="&#x662;" 
d="M401 0h-258v1217h263v-207q44 -19 136 -19q93 0 119.5 33t26.5 70v123h256v-107q0 -169 -101.5 -257.5t-235.5 -88.5t-206 16v-780z" />
    <glyph glyph-name="uni0663" unicode="&#x663;" 
d="M410 764q-83 0 -111 8v-772h-260v1217h264v-207q38 -15 76 -15q39 0 48 30t9 69v123h232v-107q0 -60 -9 -100q85 -29 105 -5.5t20 89.5v123h230v-107q0 -169 -76 -257.5t-197 -88.5q-75 0 -182 57q-66 -57 -149 -57z" />
    <glyph glyph-name="uni0664" unicode="&#x664;" 
d="M621 979q-129 0 -129 -123q0 -57 31.5 -93t97.5 -36h194v-238h-246q-53 0 -91 -23.5t-38 -100.5q0 -129 131 -129h316v-236h-320q-274 0 -331.5 124t-57.5 208q0 187 137 291q-88 91 -88 252t102.5 250t293.5 89h194v-235h-196z" />
    <glyph glyph-name="uni0665" unicode="&#x665;" 
d="M375 520q0 -272 145 -272q59 0 101.5 61.5t42.5 212.5q0 467 -144 467q-116 0 -130.5 -181t-14.5 -288zM121 445q0 229 32.5 374.5t87 234.5t127 127t200 38t240 -178.5t112.5 -579.5q0 -243 -115.5 -352t-287 -109t-284 108t-112.5 337z" />
    <glyph glyph-name="uni0666" unicode="&#x666;" 
d="M803 0h-260v946h-420v271h680v-1217z" />
    <glyph glyph-name="uni0667" unicode="&#x667;" 
d="M997 1204l-364 -1204h-238q-90 301 -182 603t-182 601h274l205 -821h6l201 821h280z" />
    <glyph glyph-name="uni0668" unicode="&#x668;" 
d="M29 -2l364 1204h238q90 -299 182 -601t182 -603h-274l-207 823h-6l-199 -823h-280z" />
    <glyph glyph-name="uni0669" unicode="&#x669;" 
d="M420 846q0 -74 88 -74h70v207h-70q-55 0 -71.5 -29.5t-16.5 -103.5zM836 1217v-1217h-258v539h-58q-247 0 -302.5 126t-55.5 209q0 162 93 252.5t263 90.5h318z" />
    <glyph glyph-name="uni066A" unicode="&#x66a;" horiz-adv-x="1304" 
d="M958 -16l-241 243l241 234l242 -238zM96 1010q111 111 244 235l238 -237l-238 -242zM115 82l870 1196l203 -143l-873 -1201z" />
    <glyph glyph-name="uni066B" unicode="&#x66b;" horiz-adv-x="647" 
d="M82 322h328v-318q0 -134 -95 -225t-231 -117v154q59 12 101 65t42 119h-145v322z" />
    <glyph glyph-name="uni066C" unicode="&#x66c;" horiz-adv-x="657" 
d="M82 322h328v-318q0 -134 -95 -226q-95 -91 -231 -116v154q59 12 101 65t42 119h-145v322z" />
    <glyph glyph-name="uni066D" unicode="&#x66d;" horiz-adv-x="702" 
d="M428 1204l109 -200l-37 -23l-162 164l-160 -164l-37 25l109 198l-207 105l16 43l224 -39l32 227h47l29 -227l227 39l17 -43z" />
    <glyph glyph-name="uni0670" unicode="&#x670;" horiz-adv-x="0" 
d="M-49 1761h104v-415h-104v415z" />
    <glyph glyph-name="uni06BE" unicode="&#x6be;" horiz-adv-x="1370" 
d="M600 312q14 48 14 96q0 204 -84 204q-58 0 -76 -124q-5 -34 -5 -63.5t4 -60t14 -56.5q23 -62 68.5 -62t64.5 66zM825 393q0 -80 -32 -157h217q0 186 -69 289.5t-204 148.5q88 -111 88 -281zM475 911q381 0 587 -185t206 -536v-190h-1014q-25 0 -31 -31.5t-8 -79.5h-168
q-47 121 -47 182q0 102 72 140q48 25 143 25h59q-64 164 6 340q34 88 99 141l-137 -8v186q118 16 233 16z" />
    <glyph glyph-name="uni06C2" unicode="&#x6c2;" horiz-adv-x="903" 
d="M113.5 696q113.5 146 287.5 146t287 -129t113 -344q-1 -251 -221 -345q-76 -32 -174.5 -32t-171 22.5t-124.5 68.5q-110 96 -110 281.5t113.5 331.5zM254 393q0 -168 145 -168q150 0 150 152q0 92 -38 157.5t-111 65.5t-109.5 -63.5t-36.5 -143.5zM387 1237q0 -68 84 -68
h109v-143h-400v143h82q-18 25 -18 78q0 99 56.5 148t122 49t114.5 -21v-135q-53 12 -84 12t-48.5 -18t-17.5 -45z" />
    <glyph glyph-name="uni06C3" unicode="&#x6c3;" horiz-adv-x="903" 
d="M113.5 696q113.5 146 287.5 146t287 -129t113 -344q-1 -251 -221 -345q-76 -32 -174.5 -32t-171 22.5t-124.5 68.5q-110 96 -110 281.5t113.5 331.5zM254 393q0 -168 145 -168q150 0 150 152q0 92 -38 157.5t-111 65.5t-109.5 -63.5t-36.5 -143.5zM432 1169.5
q0 59.5 43 102.5t102.5 43t102.5 -43t43 -102.5t-43 -102.5t-102.5 -43t-102.5 43t-43 102.5zM98 1169.5q0 59.5 43 102.5t102.5 43t102.5 -43t43 -102.5t-43 -102.5t-102.5 -43t-102.5 43t-43 102.5z" />
    <glyph glyph-name="uni06D4" unicode="&#x6d4;" horiz-adv-x="573" 
d="M256 236h250v-236h-277q-51 0 -137 19t-86 286q154 -69 250 -69z" />
    <glyph glyph-name="uni06D5" unicode="&#x6d5;" horiz-adv-x="903" 
d="M113.5 696q113.5 146 287.5 146t287 -129t113 -344q-1 -251 -221 -345q-76 -32 -174.5 -32t-171 22.5t-124.5 68.5q-110 96 -110 281.5t113.5 331.5zM254 393q0 -168 145 -168q150 0 150 152q0 92 -38 157.5t-111 65.5t-109.5 -63.5t-36.5 -143.5z" />
    <glyph glyph-name="uni06F0" unicode="&#x6f0;" 
d="M518 172l-244 246l244 231l240 -235z" />
    <glyph glyph-name="uni06F1" unicode="&#x6f1;" 
d="M385 1217h262v-1217h-262v1217z" />
    <glyph glyph-name="uni06F2" unicode="&#x6f2;" 
d="M566 764q-93 0 -165 16v-780h-258v1217h263v-207q44 -19 136 -19q93 0 120 33t26 70v123h256v-107q0 -88 -29 -154q-84 -192 -349 -192z" />
    <glyph glyph-name="uni06F3" unicode="&#x6f3;" 
d="M410 764q-83 0 -111 8v-772h-260v1217h264v-207q38 -15 76 -15q39 0 48 30t9 69v123h232v-107q0 -60 -9 -100q85 -29 111 2q14 16 14 82v123h230v-107q0 -169 -76 -257q-76 -89 -197 -89q-79 0 -182 57q-66 -57 -149 -57z" />
    <glyph glyph-name="uni06F4" unicode="&#x6f4;" 
d="M412 1108q0 254 266 254h88v-195q-80 -2 -117 -39.5t-37 -88.5t37 -115q82 18 108.5 66t28.5 128h215q-6 -347 -186 -387.5t-288 -40.5t-189 21v-711h-258v1217h262v-281q55 -16 131 -23q-61 103 -61 195z" />
    <glyph glyph-name="uni06F5" unicode="&#x6f5;" 
d="M484 281q1 0 14 10t24 10t27 -15t28.5 -24.5t32.5 -9.5q29 0 37 58.5t8 154.5q0 242 -34.5 379t-102.5 137q-139 0 -139 -516q0 -213 51 -213q23 0 47 24zM117 445q0 217 32.5 363t88 237.5t128 131.5t199.5 40t240 -184.5t113 -583.5q0 -307 -91.5 -378t-140.5 -71
t-85 8t-81 43q-64 -49 -155 -49q-119 0 -183.5 113t-64.5 330z" />
    <glyph glyph-name="uni06F6" unicode="&#x6f6;" 
d="M258 895q0 140 97 231t251 91h207v-228h-168q-99 0 -111 -44.5t-12 -72.5t31 -63t117 -35h145v-162l-332 -612h-288l305 565q-242 59 -242 330z" />
    <glyph glyph-name="uni06F7" unicode="&#x6f7;" 
d="M997 1204l-364 -1204h-238q-90 301 -182 603t-182 601h274l205 -821h6l201 821h280z" />
    <glyph glyph-name="uni06F8" unicode="&#x6f8;" 
d="M29 -2l364 1204h238q90 -299 182 -601t182 -603h-274l-207 823h-6l-199 -823h-280z" />
    <glyph glyph-name="uni06F9" unicode="&#x6f9;" 
d="M420 879q0 -41 17 -74t71 -33h70v207h-70q-56 1 -72 -29t-16 -71zM836 1217v-1217h-258v539h-58q-246 0 -331 189q-28 62 -27 146q0 162 93 252t263 91h318z" />
    <glyph glyph-name="uni2002" unicode="&#x2002;" 
 />
    <glyph glyph-name="uni2003" unicode="&#x2003;" horiz-adv-x="2048" 
 />
    <glyph glyph-name="uni2009" unicode="&#x2009;" horiz-adv-x="204" 
 />
    <glyph glyph-name="uni200A" unicode="&#x200a;" horiz-adv-x="40" 
 />
    <glyph glyph-name="uni200C" unicode="&#x200c;" horiz-adv-x="67" 
d="M68 4h-68v2701h68v-2701z" />
    <glyph glyph-name="uni200D" unicode="&#x200d;" horiz-adv-x="67" 
d="M68 0h-68v2613l-100 -100l-35 37l129 129l-129 131l35 35l131 -129l129 129l37 -35l-129 -129v-2l129 -129l-37 -37l-92 94v-2607z" />
    <glyph glyph-name="uni200E" unicode="&#x200e;" horiz-adv-x="65" 
d="M223 2638h-157v-2634h-66v2701h223v140l166 -166l-166 -166v125z" />
    <glyph glyph-name="uni200F" unicode="&#x200f;" horiz-adv-x="67" 
d="M68 2705v-2701h-68v2634h-158v-125l-166 166l166 166v-140h226z" />
    <glyph glyph-name="endash" unicode="&#x2013;" 
d="M0 684h1024v-250h-1024v250z" />
    <glyph glyph-name="emdash" unicode="&#x2014;" horiz-adv-x="2048" 
d="M266 684h1516v-250h-1516v250z" />
    <glyph glyph-name="quoteleft" unicode="&#x2018;" horiz-adv-x="569" 
d="M430 805h-291v313q-4 135 79.5 231.5t211.5 112.5v-135q-78 -27 -106.5 -79t-28.5 -128h135v-315z" />
    <glyph glyph-name="quoteright" unicode="&#x2019;" horiz-adv-x="569" 
d="M139 1462h291v-313q4 -134 -79.5 -231t-211.5 -113v135q78 27 106.5 79t28.5 128h-135v315z" />
    <glyph glyph-name="quotesinglbase" unicode="&#x201a;" horiz-adv-x="569" 
d="M139 315h291v-313q4 -134 -80 -231t-211 -113v135q78 27 106.5 79t28.5 128h-135v315z" />
    <glyph glyph-name="quotedblleft" unicode="&#x201c;" horiz-adv-x="948" 
d="M401 805h-290v313q-4 134 78.5 231t211.5 113v-135q-78 -27 -106.5 -79t-28.5 -128h135v-315zM838 805h-291v313q-4 135 79.5 231.5t211.5 112.5v-135q-78 -27 -107 -79t-29 -128h136v-315z" />
    <glyph glyph-name="quotedblright" unicode="&#x201d;" horiz-adv-x="948" 
d="M111 1462h290v-313q4 -133 -78.5 -230.5t-211.5 -113.5v135q78 27 106.5 79t28.5 128h-135v315zM547 1462h291v-313q4 -134 -79 -231t-212 -113v135q78 27 106.5 79t28.5 128h-135v315z" />
    <glyph glyph-name="quotedblbase" unicode="&#x201e;" horiz-adv-x="948" 
d="M111 315h290v-313q4 -133 -79 -230.5t-211 -113.5v135q78 27 106.5 79t28.5 128h-135v315zM547 315h291v-313q4 -134 -80 -231t-211 -113v135q78 27 106.5 79t28.5 128h-135v315z" />
    <glyph glyph-name="dagger" unicode="&#x2020;" horiz-adv-x="1138" 
d="M430 819h-381v240h381v403h277v-403h383v-240h-383v-1159h-277v1159z" />
    <glyph glyph-name="daggerdbl" unicode="&#x2021;" horiz-adv-x="1138" 
d="M430 55h-381v240h381v524h-381v240h381v403h277v-403h383v-240h-383v-524h383v-240h-383v-395h-277v395z" />
    <glyph glyph-name="bullet" unicode="&#x2022;" horiz-adv-x="1026" 
d="M147 731q0 76 29 142.5t78 115.5t115.5 78t142.5 29t142.5 -29t116.5 -78t79 -115.5t29 -142.5t-29 -142.5t-79 -116.5t-116.5 -78.5t-142.5 -28.5t-142.5 28.5t-115.5 78.5t-78 116.5t-29 142.5z" />
    <glyph glyph-name="ellipsis" unicode="&#x2026;" horiz-adv-x="2048" 
d="M1544 315h322v-315h-322v315zM862 315h322v-315h-322v315zM180 315h322v-315h-322v315z" />
    <glyph glyph-name="uni202A" unicode="&#x202a;" 
 />
    <glyph glyph-name="uni202B" unicode="&#x202b;" 
 />
    <glyph glyph-name="uni202C" unicode="&#x202c;" 
 />
    <glyph glyph-name="uni202D" unicode="&#x202d;" 
 />
    <glyph glyph-name="uni202E" unicode="&#x202e;" 
 />
    <glyph glyph-name="perthousand" unicode="&#x2030;" horiz-adv-x="2349" 
d="M901 317q0 247 110.5 303t192.5 56t138.5 -27.5t91 -76t50 -114t15.5 -181t-74 -211t-221 -95.5t-225 96t-78 250zM1155 1479h174l-844 -1524h-178zM444 1329q-118 0 -118 -168q0 -136 21 -203t95 -67q73 0 93 54.5t20 129.5q0 143 -19 198.5t-92 55.5zM141 1104
q0 248 110.5 303t192.5 55t138.5 -27.5t91.5 -75.5t50 -113.5t15 -182.5t-73.5 -211t-221.5 -94q-147 0 -225 96t-78 250zM1913 543q-119 0 -119 -169q0 -137 22 -203.5t93 -66.5q109 0 111.5 91.5t2.5 129.5q0 105 -18.5 161.5t-91.5 56.5zM1610 317q0 248 110.5 303.5
t192.5 55.5t138 -27.5t91 -76t50.5 -114t15.5 -181t-74.5 -211t-221.5 -95.5q-146 0 -224 96t-78 250zM1202 104q73 0 93 55.5t20 129.5q0 141 -19 197.5t-92 56.5q-107 0 -113 -81t-6 -151q0 -207 117 -207z" />
    <glyph glyph-name="guilsinglleft" unicode="&#x2039;" horiz-adv-x="493" 
d="M86 420v276l322 252v-246l-185 -145l185 -147v-246z" />
    <glyph glyph-name="guilsinglright" unicode="&#x203a;" horiz-adv-x="493" 
d="M408 696v-276l-322 -256v246l184 147l-184 145v246z" />
    <glyph glyph-name="fraction" unicode="&#x2044;" horiz-adv-x="342" 
d="M508 1479h174l-844 -1524h-178z" />
    <glyph glyph-name="Euro" unicode="&#x20ac;" horiz-adv-x="1138" 
d="M786 1212q-215 0 -286 -280h499l-63 -148h-459l-2 -86h436l-63 -147h-356q66 -324 303 -324q152 0 315 129l-2 -309q-139 -82 -315 -82q-259 0 -409 160t-194 426h-157l63 147h82v38q0 38 2 48h-149l63 148h105q49 248 202 391q162 156 406 156q174 0 373 -103l-125 -256
q-145 92 -269 92z" />
    <glyph glyph-name="trademark" unicode="&#x2122;" horiz-adv-x="2048" 
d="M815 1298h-240v-680h-208v680h-240v164h688v-164zM1901 618h-197v599h-4l-217 -599h-142l-217 599h-4v-599h-196v844h278l211 -555l211 555h277v-844z" />
    <glyph glyph-name="estimated" unicode="&#x212e;" horiz-adv-x="1536" 
d="M1139 760v370q-160 154 -377 154t-367 -154v-370h744zM395 668v-467q147 -152 371 -152q160 0 277.5 73t216.5 234l90 -53q-119 -186 -252 -266t-308 -80q-319 0 -502.5 204.5t-183.5 506.5t182 504t479 202q296 0 477.5 -197t187.5 -509h-1035z" />
    <glyph glyph-name="partialdiff" unicode="&#x2202;" horiz-adv-x="1122" 
d="M291 428q0 -194 88.5 -241.5t156.5 -47.5t122.5 39t107 130.5t47.5 232.5l-2 47q-115 137 -250 137t-202.5 -85t-67.5 -212zM512 1477q133 0 329.5 -122t196.5 -620q0 -320 -114.5 -540t-401.5 -220q-198 0 -320 132.5t-122 330.5t120.5 324.5t299.5 126.5t315 -119l2 61
q5 179 -74 327.5t-258 148.5q-103 0 -231 -99l-117 135q84 66 163 100t212 34z" />
    <glyph glyph-name="uni2206" unicode="&#x2206;" horiz-adv-x="1398" 
d="M684 1204l-369 -1003h758zM18 0l557 1458h226l581 -1458h-1364z" />
    <glyph glyph-name="product" unicode="&#x220f;" horiz-adv-x="1509" 
d="M1159 -438v1847h-811v-1847h-219v2048h1251v-2048h-221z" />
    <glyph glyph-name="summation" unicode="&#x2211;" horiz-adv-x="1316" 
d="M51 -438v176l627 858l-600 842v172h1161v-201h-868l571 -811l-608 -838h932v-198h-1215z" />
    <glyph glyph-name="minus" unicode="&#x2212;" horiz-adv-x="1228" 
d="M98 627h1035v-219h-1035v219z" />
    <glyph glyph-name="radical" unicode="&#x221a;" horiz-adv-x="1087" 
d="M680 -438h-207l-313 653l-103 -47l-82 174l293 133l273 -575l348 1710h223z" />
    <glyph glyph-name="infinity" unicode="&#x221e;" horiz-adv-x="1650" 
d="M426 705q-74 0 -117 -52.5t-43 -125.5t44 -120t134 -47t167 69.5t102 98.5q-177 177 -287 177zM1382 532q0 74 -43 124.5t-131 50.5t-119 -31l-151 -150q156 -168 287 -168q76 0 116.5 50t40.5 124zM1466.5 274q-92.5 -104 -247.5 -104t-255 93t-139 136
q-43 -43 -136 -134t-238 -91q-171 0 -266 100t-95 255q0 156 90.5 260t251.5 104t256.5 -97.5t136.5 -144.5q101 116 194 180t187 64q95 0 157 -27.5t129 -103t67 -231.5q0 -155 -92.5 -259z" />
    <glyph glyph-name="integral" unicode="&#x222b;" horiz-adv-x="1228" 
d="M465 1067q0 82 1 177t43.5 230.5t246.5 135.5q79 0 147 -39.5t68 -110.5q0 -43 -31 -71.5t-75 -28.5t-64.5 20.5t-31.5 46t-21 46t-32 20.5q-34 0 -34 -66l4 -272l2 -1073q0 -80 -3 -171t-47 -220t-239 -129q-128 0 -168.5 54t-40.5 95t27 70t71 29t65.5 -21.5
t32.5 -47.5t19.5 -47.5t39.5 -21.5t28.5 45t-2.5 56l-6 198v1096z" />
    <glyph glyph-name="approxequal" unicode="&#x2248;" horiz-adv-x="1214" 
d="M864 152q-68 0 -142.5 22.5t-146 48t-136 48t-116.5 22.5t-85 -44t-41 -97h-140q22 230 120.5 287t168.5 57t138.5 -21.5t137 -47.5t135.5 -47.5t127 -21.5q107 0 132 136h137q-21 -235 -121 -288.5t-168 -53.5zM911 774q82 0 107 135h139q-21 -233 -121 -287.5
t-168 -54.5t-142.5 22.5t-146 48.5t-136 48.5t-116.5 22.5t-84 -44t-42 -98h-140q22 233 121 288.5t167 55.5t138 -21.5t138.5 -47t136 -47t149.5 -21.5z" />
    <glyph glyph-name="notequal" unicode="&#x2260;" horiz-adv-x="1214" 
d="M76 203v209h354l125 239h-479v207h583l158 311l182 -92l-110 -219h250v-207h-357l-123 -239h480v-209h-584l-160 -312l-182 95l113 217h-250z" />
    <glyph glyph-name="lessequal" unicode="&#x2264;" horiz-adv-x="1214" 
d="M76 -72v207h1063v-207h-1063zM76 557v211l1063 367v-220l-781 -251l781 -240v-219z" />
    <glyph glyph-name="greaterequal" unicode="&#x2265;" horiz-adv-x="1214" 
d="M76 -72v207h1063v-207h-1063zM76 205v219l778 240l-778 251v220l1063 -367v-211z" />
    <glyph glyph-name="lozenge" unicode="&#x25ca;" horiz-adv-x="1214" 
d="M604 1323l-244 -594l244 -596l250 596zM702 -72h-194l-361 801l361 801h194l363 -801z" />
    <glyph glyph-name="uni25CC" unicode="&#x25cc;" horiz-adv-x="1865" 
d="M739 1322q0 -24 -17 -40t-41 -16t-40 16t-16 40t16 41t40 17t41 -17t17 -41zM518 1175q0 -24 -16.5 -41.5t-41 -17.5t-41 17.5t-16.5 41.5t16.5 41t41 17t41 -17t16.5 -41zM373 964q0 -24 -16.5 -40.5t-40.5 -16.5t-41 16.5t-17 40.5t17.5 41t41 17t40 -17t16.5 -41z
M319 704q0 -24 -16 -40.5t-40.5 -16.5t-41 16.5t-16.5 40.5t16.5 41t41 17t40.5 -17t16 -41zM371 450q0 -24 -17.5 -40.5t-41.5 -16.5t-40 16.5t-16 40.5t16.5 41t40 17t41 -17t17.5 -41zM518 229.5q0 -22.5 -16.5 -40t-41 -17.5t-41 17.5t-16.5 40t16.5 40t41 17.5
t41 -17.5t16.5 -40zM733 85q0 -24 -17.5 -40t-41 -16t-40 16t-16.5 40t16.5 41t40.5 17t41 -17t17 -41zM991 34q0 -24 -16.5 -41.5t-40 -17.5t-40.5 17.5t-17 41.5t17 41t41 17t40 -17t16 -41zM1245 83q0 -24 -16.5 -41t-40 -17t-41 17t-17.5 41t17.5 40t41.5 16t40 -16
t16 -40zM1466 229.5q0 -22.5 -16 -40t-41 -17.5t-41 17.5t-16 40t16 40t41 17.5t41 -17.5t16 -40zM1610 443q0 -24 -16.5 -40t-40.5 -16t-41 16.5t-17 40t17.5 41t41 17.5t40 -17.5t16.5 -41.5zM1661 704q0 -24 -16.5 -40.5t-40 -16.5t-41 16.5t-17.5 40.5t17.5 41t41.5 17
t40 -17t16 -41zM1610 957q0 -24 -16.5 -41t-40.5 -17t-41 17.5t-17 41t17.5 40t41 16.5t40 -16.5t16.5 -40.5zM1466 1175q0 -24 -16 -41.5t-41 -17.5t-41 17.5t-16 41.5t16 41t41 17t41 -17t16 -41zM1251 1320q0 -24 -16 -41t-40 -17t-41 17t-17 41t17 40t41 16t40 -16
t16 -40zM991 1373q0 -24 -16.5 -40t-40 -16t-40.5 16.5t-17 40t17 41t41 17.5t40 -17.5t16 -41.5z" />
    <glyph glyph-name="uni274A" unicode="&#x274a;" horiz-adv-x="659" 
d="M270 1260l-16 188h141l-14 -188l176 75l41 -137l-182 -47l121 -139l-111 -78l-98 151l-99 -153l-110 78l119 139l-183 45l41 135z" />
    <glyph glyph-name="fi" unicode="&#xfb01;" horiz-adv-x="1251" 
d="M528 1462q6 0 154 -8v-217q-54 6 -110 6t-81.5 -27.5t-25.5 -93.5v-63h201v-195h-201v-864h-291v864h-174v195h174v82q0 226 132 273.5t222 47.5zM842 1059h291v-1059h-291v1059zM1133 1223h-291v239h291v-239z" />
    <glyph glyph-name="fl" unicode="&#xfb02;" horiz-adv-x="1251" 
d="M528 1462q6 0 154 -8v-217q-54 6 -110 6t-81.5 -27.5t-25.5 -93.5v-63h201v-195h-201v-864h-291v864h-174v195h174v82q0 226 132 273.5t222 47.5zM842 1462h291v-1462h-291v1462z" />
    <glyph glyph-name="uniFD3E" unicode="&#xfd3e;" horiz-adv-x="1251" 
d="M500 815h49l39 68h4v-68h47v-59l125 129l-6 6l-131 -25q23 126 73 238v96q-78 -78 -117.5 -186.5t-47.5 -145.5l-142 33l107 -151v65zM1023 -428q-17 0 -60 28.5t-129 108t-196 226.5t-140 268l-150 -27q-4 -2 -12 -2q-25 0 -25 23q0 12 13 30l127 176q18 25 18 35
q0 27 -23 27q-16 0 -45 -27l-147 -127q-27 -20 -39 -20q-29 0 -29 51v115q-131 49 -131 108q0 49 131 113v127q0 41 29 41q10 0 33 -19l164 -141q22 -16 32 -16q27 0 27 22q0 14 -18 37l-127 176q-12 18 -13 31q0 23 25 22q8 0 12 -2l150 -26q45 177 210 359t231.5 227
t83.5 45t19 -11l3 -8q0 -12 -13 -26q-313 -337 -340 -588l103 14l22 2q23 0 23 -20q0 -8 -13 -27l-139 -158q-25 -29 -24 -43q0 -18 22 -18q12 0 33 10l164 123q27 20 40 20t17 -28v-125q133 -50 133 -111q0 -53 -133 -112v-117q0 -43 -18 -43q-12 0 -31 16l-172 131
q-16 12 -35 13q-23 0 -22 -21q0 -14 24 -41l139 -157q12 -18 13 -27q0 -20 -23 -21l-22 2l-103 15q25 -243 340 -588q12 -12 12 -27l-2 -8q-2 -10 -19 -10zM637 317h-47v-67h-4l-39 67h-49v66l-107 -152l141 33q26 -118 81 -209.5t85 -122.5v97q-49 107 -73 237l131 -24l6 6
l-125 129v-60zM399 498h-96v45q-29 6 -63 24q25 18 63 25v41h96v4l-157 123v-119q-133 -43 -133 -72q0 -41 133 -75v-115l157 115v4zM676 572q0 44 -31 76t-76 32t-75.5 -31t-30.5 -76t31 -77t75.5 -31.5t75.5 32t31 75.5zM1022 567q0 19 -30 35q-66 33 -101 39v117
l-156 -117l2 -4h88v-43q43 -6 70 -27q-29 -18 -70 -24v-41h-90l-6 -4l162 -119v117q131 36 131 71z" />
    <glyph glyph-name="uniFD3F" unicode="&#xfd3f;" horiz-adv-x="1251" 
d="M608 815h47v68h4l39 -68h50v-65l106 151l-141 -33q-36 135 -85.5 218t-80.5 114v-96q48 -103 74 -238l-132 25l-6 -6l125 -129v59zM909 958q25 0 25 -22q0 -12 -12 -31l-127 -176q-18 -23 -19 -37q0 -22 27 -22q10 0 33 16l163 141q20 18 33 19q29 0 29 -41v-127
q131 -63 131 -113q0 -59 -131 -108v-115q0 -51 -29 -51q-12 0 -39 20l-147 127q-29 27 -45 27q-23 0 -23 -27q0 -10 19 -35l127 -176q12 -18 12 -30q0 -23 -25 -23q-8 0 -12 2l-149 27q-28 -117 -136.5 -262t-228.5 -257t-164 -112q-14 0 -16 10l-2 8q0 14 12 27
q315 345 340 588l-102 -15l-15 -2h-8q-23 0 -22 21q0 8 12 27l139 157q25 27 25 41q0 20 -22 20t-36 -12l-172 -131q-18 -16 -30 -16q-18 0 -19 43v117q-133 57 -133 112q0 61 133 111v125q4 29 19 28q10 0 38 -20l164 -123q20 -10 38 -10t18 16t-25 45l-139 158
q-12 18 -12 27q0 20 22 20q4 -2 8 -2h15l102 -14q-25 248 -340 588q-12 14 -12 26q15 61 198.5 -108.5t257.5 -305t91 -198.5l149 26q4 2 12 2zM750 317h-50l-38 -67h-5v67h-47v60l-125 -129l7 -6l131 24q-23 -128 -74 -237v-97q105 105 166 332l141 -33l-106 152v-66z
M1139 569q0 29 -133 72v119l-158 -123v-4h96v-41q39 -6 64 -25q-35 -18 -64 -24v-45h-96v-4l158 -115v115q133 35 133 75zM571 572q0 -44 31 -75.5t75 -31.5t76 32t31.5 76.5t-31 75.5t-75.5 31t-76 -32t-31 -76zM225 567q0 -35 131 -71v-117l162 119l-6 4h-90v41
q-41 6 -70 24q27 20 70 27v43h88l2 4l-156 117v-117q-33 -5 -100 -39q-31 -16 -31 -35z" />
    <glyph glyph-name="uni00B5" horiz-adv-x="1214" 
d="M555 -29q-107 0 -154 49v-393h-290v1432h290v-598q0 -131 42 -195.5t153 -64.5t164 70.5t53 232.5v555h291v-1059h-277v147h-6q-77 -120 -159 -148t-107 -28z" />
    <glyph glyph-name="uni2126" horiz-adv-x="1214" 
d="M555 -29q-107 0 -154 49v-393h-290v1432h290v-598q0 -131 42 -195.5t153 -64.5t164 70.5t53 232.5v555h291v-1059h-277v147h-6q-77 -120 -159 -148t-107 -28z" />
    <glyph glyph-name="afii61289" horiz-adv-x="1040" 
d="M766 1227q0 84 -37 140t-95 56t-98 -59t-40 -176v-506q270 295 270 545zM315 244v227l-151 -141l-53 78l202 178v557q0 168 94 273.5t221 105.5q128 0 198.5 -75t70.5 -219q0 -280 -401 -655v-292q0 -156 72.5 -176.5t105.5 -20.5q90 0 184 68l53 -76
q-143 -107 -290 -107q-148 0 -227 73t-79 202z" />
    <glyph glyph-name="uniFBA5" horiz-adv-x="899" 
d="M397 147q-147 0 -253 72q-144 98 -144 302q0 205 142 317q117 92 290 92h348v-613q0 -47 12.5 -64t57.5 -17h49q60 0 74 -52q6 -22 6 -76q0 -108 -80 -108h-68q-242 0 -294 166q-83 -19 -140 -19zM417 381q57 0 97 14v283h-102q-76 0 -114 -40t-38 -106q0 -151 157 -151z
M453 1352q0 -68 84 -68h108v-143h-399v143h82q-19 27 -19 79q0 97 56 146.5t120 49.5t117 -21v-135q-53 12 -84 12t-48 -18.5t-17 -44.5z" />
    <glyph glyph-name="uni0640.narrow" horiz-adv-x="235" 
d="M0 0q-40 0 -60 20t-20 91.5t19.5 98t60.5 26.5h236q38 0 58 -20t20.5 -91.5t-19 -98t-59.5 -26.5h-236z" />
    <glyph glyph-name="uni0640.long" horiz-adv-x="401" 
d="M0 0q-40 0 -60 20t-20 91.5t19.5 98t60.5 26.5h401q60 0 74 -52q6 -22 6 -76q0 -108 -80 -108h-401z" />
    <glyph glyph-name="uni0615" horiz-adv-x="0" 
d="M317 1331q87 0 134 -52t47 -144v-152h-551v121h92v407h115v-256q76 76 163 76zM383 1104v16q0 35 -13.5 61.5t-59.5 26.5q-93 0 -142 -104h215z" />
    <glyph glyph-name="uni064C0651" horiz-adv-x="251" 
d="M-102 1509q59 0 59 80v94h102v-92q0 -49 19.5 -63.5t45.5 -14.5t35 18.5t9 53.5v135h102v-141q0 -170 -143 -170q-75 0 -117 57q-39 -57 -121 -57q-147 0 -147 170v141h102v-129q0 -82 54 -82zM-176 1952l-125 -70q-40 80 -45 88l203 113q35 -72 79 -119q46 -47 108 -47
q109 0 142 74q-29 -10 -81 -10.5t-93 37.5t-41 107t46 116t113 47t114 -46.5t47 -135.5q0 -154 -66.5 -216.5t-165 -62.5t-149.5 35.5t-86 89.5zM61 2126q0 -60 80 -60q24 0 60 13v14q0 51 -20.5 79t-53.5 28t-49.5 -25t-16.5 -49z" />
    <glyph glyph-name="uni064D0651" horiz-adv-x="251" 
d="M-129 1939q59 0 59 80v95h103v-93q0 -49 19.5 -63t45 -14t34.5 18t9 53v135h103v-141q-1 -170 -144 -170q-76 0 -116 57q-39 -57 -121 -57q-147 0 -148 170v141h103v-129q0 -82 53 -82zM244 1636l-492 -69v98l492 70v-99zM240 1448l-492 -70v99l492 69v-98z" />
    <glyph glyph-name="uni064B0651" horiz-adv-x="251" 
d="M-102 1509q59 0 59 80v94h102v-92q0 -49 19.5 -63.5t45.5 -14.5t35 18.5t9 53.5v135h102v-141q0 -170 -143 -170q-75 0 -117 57q-39 -57 -121 -57q-147 0 -147 170v141h102v-129q0 -82 54 -82zM246 1915l-492 -68v99l492 69v-100zM246 2089l-492 -70v99l492 69v-98z" />
    <glyph glyph-name="uni064E0651" horiz-adv-x="251" 
d="M-102 1509q59 0 59 80v94h102v-92q0 -49 19.5 -63.5t45.5 -14.5t35 18.5t9 53.5v135h102v-141q0 -170 -143 -170q-75 0 -117 57q-39 -57 -121 -57q-147 0 -147 170v141h102v-129q0 -82 54 -82zM258 1905l-491 -68v98l491 70v-100z" />
    <glyph glyph-name="uni064F0651" horiz-adv-x="251" 
d="M-102 1509q59 0 59 80v94h102v-92q0 -49 19.5 -63.5t45.5 -14.5t35 18.5t9 53.5v135h102v-141q0 -170 -143 -170q-75 0 -117 57q-39 -57 -121 -57q-147 0 -147 170v141h102v-129q0 -82 54 -82zM-44 1913q115 0 148 74q-29 -10 -81 -10.5t-93 37.5t-41 107t45.5 116
t112 47t113.5 -46.5t47 -135.5q0 -153 -68 -215t-190 -62q-64 0 -99 10v88q45 -10 106 -10zM-23 2122q0 -60 84 -60q26 0 58 13v14q0 51 -20.5 78.5t-53.5 27.5t-50.5 -24.5t-17.5 -48.5z" />
    <glyph glyph-name="uni06500651" horiz-adv-x="251" 
d="M49 1837q1 -78 65 -78q44 0 44 72v135h102v-141q0 -170 -143 -170q-76 0 -117 57q-39 -57 -121 -57q-147 0 -147 170v141h102v-129q0 -82 53 -82q60 0 60 80v94h102v-92zM246 1464l-492 -67v98l492 70v-101z" />
    <glyph glyph-name="uni06510670" horiz-adv-x="251" 
d="M-102 1509q59 0 59 80v94h102v-92q0 -49 19.5 -63.5t45.5 -14.5t35 18.5t9 53.5v135h102v-141q0 -170 -143 -170q-75 0 -117 57q-39 -57 -121 -57q-147 0 -147 170v141h102v-129q0 -82 54 -82zM-45 2208h104v-416h-104v416z" />
    <glyph glyph-name="uni06540651" horiz-adv-x="720" 
d="M-31 1796q0 -67 84 -67h109v-144h-400v144h82q-18 25 -18 78q0 97 56 146.5t122 49.5t115 -21v-135q-53 12 -84 12.5t-48.5 -18t-17.5 -45.5zM244 2157l-492 -68v98l492 70v-100zM244 2331l-492 -70v98l492 70v-98z" />
    <glyph glyph-name="uni0654064E" horiz-adv-x="720" 
d="M-31 1796q0 -67 84 -67h109v-144h-400v144h82q-18 25 -18 78q0 97 56 146.5t122 49.5t115 -21v-135q-53 12 -84 12.5t-48.5 -18t-17.5 -45.5zM246 2126l-492 -68v99l492 69v-100z" />
    <glyph glyph-name="uni0654064C" horiz-adv-x="720" 
d="M-31 1796q0 -67 84 -67h109v-144h-400v144h82q-18 25 -18 78q0 97 56 146.5t122 49.5t115 -21v-135q-53 12 -84 12.5t-48.5 -18t-17.5 -45.5zM-166 2400q81 -166 189 -166t141 74q-29 -10 -81.5 -10t-93 38t-40.5 106.5t46 115.5t112.5 47t113.5 -46q47 -45 47 -135
q0 -155 -66.5 -217.5t-164.5 -62.5t-149.5 36t-86.5 89l-125 -69q-41 81 -45 88zM39 2443q0 -59 82 -59q27 0 57 12v14q0 51 -20.5 79t-53.5 28t-49 -24.5t-16 -49.5z" />
    <glyph glyph-name="uni0654064F" horiz-adv-x="720" 
d="M-31 1796q0 -67 84 -67h109v-144h-400v144h82q-18 25 -18 78q0 97 56 146.5t122 49.5t115 -21v-135q-53 12 -84 12.5t-48.5 -18t-17.5 -45.5zM-74 2226q113 0 148 74q-29 -10 -81.5 -10t-93 37.5t-40.5 106.5t45 116t111.5 47t113.5 -46t47 -149q0 -264 -258 -264
q-65 0 -98 10v88q46 -10 106 -10zM-53 2435q0 -59 84 -59q27 0 57 12v14q0 51 -20.5 79t-53.5 28t-50 -24.5t-17 -49.5z" />
    <glyph glyph-name="uni06540652" horiz-adv-x="720" 
d="M-31 1796q0 -67 84 -67h109v-144h-400v144h82q-18 25 -18 78q0 97 56 146.5t122 49.5t115 -21v-135q-53 12 -84 12.5t-48.5 -18t-17.5 -45.5zM-86 2285.5q0 -34.5 25.5 -60t60.5 -25.5t60.5 25.5t25.5 60t-25.5 59.5t-60.5 25t-60.5 -25t-25.5 -59.5zM-166 2283
q0 69 48 117.5t116 48.5t117 -49t49 -117.5t-49 -115.5t-117 -47t-116 47t-48 116z" />
    <glyph glyph-name="uni06550650" horiz-adv-x="720" 
d="M-31 -324q0 -66 84 -65h109v-143h-400v143h82q-18 25 -18 77q0 95 55 146t120 51t118 -20v-137q-53 12 -84 12t-48.5 -19t-17.5 -45zM246 -711l-492 -69v98l492 70v-99z" />
    <glyph glyph-name="uni0655064D" horiz-adv-x="720" 
d="M-31 -324q0 -66 84 -65h109v-143h-400v143h82q-18 25 -18 77q0 95 55 146t120 51t118 -20v-137q-53 12 -84 12t-48.5 -19t-17.5 -45zM248 -885l-492 -67v98l492 70v-101zM248 -711l-492 -69v98l492 70v-99z" />
    <glyph glyph-name="uni064406440647" horiz-adv-x="2336" 
d="M262 540q0 -138 135 -139q75 0 119 15v262h-100q-78 0 -116 -40t-38 -98zM400 147q-146 0 -254 72q-146 97 -146 301q0 206 142 318q117 92 294 92h346v-613q0 -47 12.5 -64t57.5 -17h246q68 0 95.5 21.5t27.5 96.5v1108h268v-1085q1 -81 21 -103q36 -38 130 -38h299
v1226h265v-1462h-564q-59 0 -112 19.5t-90 84.5q-65 -90 -212 -101q-42 -3 -85 -3h-307q-243 0 -295 166q-83 -19 -139 -19z" />
    <glyph glyph-name="uniFDFA.Farsi" horiz-adv-x="2164" 
d="M325.5 -217q14.5 0 28.5 8l-80 88q0 -59 18.5 -77.5t33 -18.5zM214 350q17 0 30.5 3t23.5 5l-30 60l-72 -62q31 -6 48 -6zM162 1032q8 -8 38 -8t72 6l-36 74q-25 -41 -74 -72zM1120 406q39 0 80 6l-49 94q-25 -52 -111 -94v-4q41 -2 80 -2zM805 584q-8 -6 -23.5 -19.5
t-83.5 -48.5l-106 -57l20 51q36 14 122.5 64.5t103.5 62.5zM317 1432q0 -50 29 -50q14 0 14 15l-10 33q0 18 9.5 18t15.5 -22q11 -39 43 -35q-3 3 -6.5 13.5t-6 15.5t-2.5 15t17 23q26 -35 26 -61q0 -40 -21 -44.5t-40 7.5q-15 -30 -50.5 -17t-35.5 51t18 38zM2028 776
l-25 -45q-4 -10 -31 -22l-274 -125l22 51zM1010 -389q0 8 30 8t67.5 13.5t68 31t53 30.5t32 13t20.5 -11t21 -11t17.5 5t12.5 12t7.5 12t6.5 5q6 0 9 -13t15 -13l8 2q0 23 15 29q6 -6 6 -22q0 -32 -24 -41.5t-38 9.5q-13 -22 -34 -22t-26 3t-8 8t-7.5 8t-12.5 3t-21.5 -10
t-35.5 -22q-50 -35 -116 -35t-66 8zM1989 188q34 17 49 27q-2 -18 -14.5 -39.5t-28.5 -28.5l-277 -131l19 56zM1778 984.5q-44 -27.5 -60 -50.5h70q137 0 199 10q-7 15 -49.5 41.5t-78.5 26.5q-37 0 -81 -27.5zM527 819q-17 0 -34.5 -11t-56 -34.5t-67.5 -23.5
q0 -62 -13 -66q-6 44 -34.5 66t-40.5 26q-15 51 4 51q4 0 11 -4t25.5 -12t34.5 -8t43 11t53.5 23.5t47 23.5t31.5 11t24.5 -10t13.5 -23t-14 -34q-11 14 -28 14zM1399 213l84 -43l28 57l82 -49l-45 -78l-71 39l-35 -53l-82 39zM1176 1303q206 70 411 180q-18 -53 -86 -84
l-371 -170zM772 10l315 125q61 26 113 55q51 29 55.5 25t-2.5 -12l-24 -33q-45 -37 -207 -111l-213 -88q21 -32 1.5 -58t-36 -36t-24.5 -10q19 27 17 53.5t-26 30.5q-8 0 -9 6t3 10zM1436.5 1124q-23.5 0 -23.5 6q0 18 43 52l39 30l461 203l-35 -51q-87 -53 -233 -117.5
t-189 -83.5q30 -23 9 -60.5t-36.5 -53t-23.5 -17.5h-10l-2 4q0 6 12 28.5t12 37.5q0 22 -23.5 22zM1751 -298q-1 5 23 7q56 5 130 41t74 68q0 6 -7 14t-13 10q-53 -11 -71.5 3t-18.5 40.5t16.5 63.5t42.5 37q52 0 70 -58.5t18 -101.5q0 -78 -36 -114t-62 -36t-52 3.5
t-70 7.5t-44 15zM801 217q-152 0 -152 13q1 6 31 13q52 12 119 51t67 64q0 15 -20 25q-25 -10 -58.5 -3t-33.5 38q0 55 22.5 82.5t36.5 27.5t29.5 -10t29 -29.5t22.5 -49t9 -72.5q0 -79 -35.5 -114.5t-66.5 -35.5zM604 303q0 -8 -2 -20.5t-7.5 -51t-21.5 -38.5l-4 2v16
q0 70 -18 111l-96 190q-6 14 -12.5 30.5t-15.5 38t-9 32.5q0 24 11.5 55.5t23.5 31.5q6 0 12 -14q8 -18 39.5 -58.5t50.5 -51.5q20 -11 20 -21q-1 -10 -21 -10t-36 12l-4 -4q90 -170 90 -250zM675 1403q7 -1 11 -11q5 -13 37.5 -51.5t53.5 -53.5q22 -15 22 -21t-16.5 -6
t-51.5 4q91 -194 99 -250t8 -93t-11 -63l-6 -4l-4 25q-6 39 -68 168q-61 130 -84.5 184.5t-20.5 89.5t13.5 58.5t17.5 23.5zM175 281q-54 0 -54 26q0 46 8 58t17.5 21t26.5 25t46 33l-22 39q10 10 15.5 40t10.5 30q11 0 21 -25l67 -137q31 -65 83 -65q32 0 32 8t-10 28.5
t-67.5 119t-57.5 114.5q0 25 11.5 55.5t20.5 30.5t13 -10q8 -20 30 -48.5t42 -46.5t20 -29t-37 -11q58 -104 68 -135t10 -62q0 -113 -76 -113q-45 0 -70.5 20.5t-39.5 67.5q-54 -34 -108 -34zM1649 397q-27 -102 -89 -102q-28 0 -51.5 19.5t-25.5 41.5h-4q-15 -69 -100 -69
t-119.5 32.5t-42.5 53.5q-84 -54 -164 -54q-72 4 -72 46q0 8 9.5 40t23.5 41l116 86l-30 52l12 57q6 23 16 23t21 -21l98 -186q26 -54 112.5 -68t113.5 21l10 57q2 20 11 20t9 -17q0 -40 44 -67t69 7q0 84 -40 170t-77 155l14 64q7 22 14.5 22t18.5 -22l133 -307
q14 -37 42 -66t59 -29q0 91 41 125.5t63 34.5q41 0 75 -43.5t34 -56.5q0 -25 -21 -6l-20 14q-26 22 -74.5 22t-48.5 -36q0 -30 28.5 -44t32.5 -14l109 6q27 0 26 -16q0 -18 -22 -64q-132 -22 -187 -22q-56 0 -92 6t-71 94h-4zM312 -309q-63 0 -70 88h-4q-20 -42 -84 -74.5
t-82.5 -32.5t-19 6.5t17.5 13.5q38 15 98.5 83.5t64.5 130.5q10 6 19.5 25.5t9.5 38t12 22.5q19 0 50 -46q32 -46 45.5 -54.5t30 -8.5t27.5 9.5t11 24.5q0 27 -30.5 98t-61.5 120l10 47q9 31 14 31q12 0 38 -59l92 -203q29 -68 99 -95.5t209 -27.5q140 0 236.5 7t165 17.5
t113.5 23.5t72.5 23.5t39 17.5t16.5 7q6 0 42 -29.5t66 -29.5l26 4q0 92 13.5 92t13.5 -22.5t27.5 -50t68.5 -27.5l-37 53q9 63 33.5 63t39.5 -48.5t15 -76.5t-14 -51.5t-49 -37.5t-76 32q-32 -44 -85 -29.5t-85 62.5q-118 -67 -328.5 -84.5t-300.5 -17.5q-175 0 -249.5 31
t-102.5 108h-4q-21 -76 -72 -76q-31 -98 -81 -98zM502 1006q-25 -103 -98 -103t-115 90q-79 -57 -133 -48t-54 49q0 22 13 48.5t33 38.5t33.5 19.5t21.5 15.5t8 22t-27 40l13 59q5 23 22 23t98 -185q26 -62 70.5 -65.5t63 5.5t18.5 25q0 45 -92 183l16 51q7 22 15 22
q17 0 66 -100q50 -100 77.5 -142t77.5 -42l39 6q-156 191 -163 217.5t-7 44t11.5 47t20.5 29.5q10 0 18 -16q27 -55 63 -83q37 -28 36 -34q0 -14 -41 -15q63 -87 86 -132t23 -86t-9.5 -53.5t-23.5 -20t-31.5 -7.5t-32.5 4q3 -67 69.5 -115.5t122.5 -44.5q119 7 210 48v8
q-122 10 -146 29l29 57q82 28 101.5 43.5t19.5 47.5q0 101 -119 300l19 72q4 16 12 16t22 -28l127 -269q36 -82 66.5 -101.5t67.5 -24.5t95 -5q91 0 157.5 19t48.5 65q-5 14 7 14q11 0 21.5 -16t35.5 -51t81 -35q116 143 221 143q48 0 77 -23t50 -70t33 -52l-21 -68
q-4 -16 -19 -19t-34 -5l-223 -10h-25l-36 1q-35 1 -41 3q-53 -78 -67 -78t28 86q-59 46 -76 111h-4q-13 -61 -59.5 -86t-143.5 -25q-96 0 -132 5t-71 24.5t-55 91.5h-4q-12 -51 -53 -80v-4q45 0 67.5 -16.5t22.5 -22.5l-21 -74q-154 -121 -286 -121q-214 0 -199 262
q-47 11 -92 91z" />
    <glyph glyph-name="uni0660.pnum" horiz-adv-x="647" 
d="M330 172l-244 246l244 231l239 -235z" />
    <glyph glyph-name="uni0661.pnum" horiz-adv-x="569" 
d="M158 1217h262v-1217h-262v1217z" />
    <glyph glyph-name="uni0662.pnum" horiz-adv-x="974" 
d="M575 764q-94 0 -163 16v-780h-258v1217h262v-207q44 -19 136 -19q93 0 120 33t26 70v123h256v-107q0 -88 -28 -154q-85 -192 -351 -192z" />
    <glyph glyph-name="uni0663.pnum" horiz-adv-x="1148" 
d="M525 764q-83 0 -111 8v-772h-260v1217h264v-207q38 -15 76 -15q39 0 48 30t9 69v123h231v-107q0 -56 -8 -100q85 -29 111 2q14 16 14 82v123h229v-107q0 -170 -76 -258t-196 -88q-79 0 -182 57q-66 -57 -149 -57z" />
    <glyph glyph-name="uni0664.pnum" horiz-adv-x="872" 
d="M156 875q0 161 102 250t293 89h194v-235h-196q-129 0 -129 -123q0 -57 32 -93t97 -36h194v-238h-245q-53 1 -91 -23t-38 -101q0 -131 131 -129h315v-236h-319q-274 0 -360 183q-30 65 -30 149q0 189 138 291q-88 91 -88 252z" />
    <glyph glyph-name="uni0665.pnum" horiz-adv-x="1003" 
d="M506 248q59 0 101 61t42 213q0 467 -143 467q-116 0 -138 -276q-7 -86 -8 -193q0 -272 146 -272zM504 0q-272 0 -364 240q-34 88 -34 261t33 318t87 235t127 127q73 38 153 38t152 -38q151 -80 214 -360q33 -145 33 -319t-35 -262q-68 -171 -219 -217q-71 -23 -147 -23z
" />
    <glyph glyph-name="uni0666.pnum" horiz-adv-x="854" 
d="M705 0h-261v946h-419v271h680v-1217z" />
    <glyph glyph-name="uni0667.pnum" horiz-adv-x="1007" 
d="M991 1204l-364 -1204h-238q-90 301 -182 603t-182 601h274l205 -821h6l201 821h280z" />
    <glyph glyph-name="uni0668.pnum" horiz-adv-x="1007" 
d="M25 -2l364 1204h238q90 -299 182 -601t182 -603h-274l-207 823h-6l-199 -823h-280z" />
    <glyph glyph-name="uni0669.pnum" horiz-adv-x="847" 
d="M283 879q0 -41 17 -74t71 -33h69v207h-69q-55 1 -71 -29t-17 -71zM698 1217v-1217h-258v539h-57q-246 0 -331 189q-28 62 -27 146q0 162 93 252t263 91h317z" />
    <glyph glyph-name="uni06F0.pnum" horiz-adv-x="647" 
d="M330 172l-244 246l244 231l239 -235z" />
    <glyph glyph-name="uni06F1.pnum" horiz-adv-x="569" 
d="M158 1217h262v-1217h-262v1217z" />
    <glyph glyph-name="uni06F2.pnum" horiz-adv-x="974" 
d="M575 764q-94 0 -163 16v-780h-258v1217h262v-207q44 -19 136 -19q93 0 120 33t26 70v123h256v-107q0 -88 -28 -154q-85 -192 -351 -192z" />
    <glyph glyph-name="uni06F3.pnum" horiz-adv-x="1148" 
d="M525 764q-83 0 -111 8v-772h-260v1217h264v-207q38 -15 76 -15q39 0 48 30t9 69v123h231v-107q0 -56 -8 -100q85 -29 111 2q14 16 14 82v123h229v-107q0 -170 -76 -258t-196 -88q-79 0 -182 57q-66 -57 -149 -57z" />
    <glyph glyph-name="uni06F4.pnum" horiz-adv-x="1034" 
d="M424 1108q0 254 266 254h88v-195q-80 -2 -116 -40t-37 -90q0 -52 37 -113q82 18 108 66t29 128h215q-6 -349 -280 -408q-86 -20 -194 -20t-190 21v-711h-258v1217h262v-281q55 -16 131 -23q-61 103 -61 195z" />
    <glyph glyph-name="uni06F5.pnum" horiz-adv-x="1005" 
d="M474 281q1 0 14 10t23 10q9 0 27 -15q17 -14 29 -24t33 -10q29 0 37 58t8 155q0 242 -35 379t-102 137q-141 0 -139 -516q0 -213 51 -213q21 0 47 24zM106 445q0 399 121 601q103 171 281 171q275 0 366 -407q33 -146 33 -300t-15 -238q-15 -82 -46 -142
q-67 -130 -178 -130q-41 0 -77 8t-81 43q-64 -49 -156 -49q-120 0 -184 113t-64 330z" />
    <glyph glyph-name="uni06F6.pnum" horiz-adv-x="743" 
d="M330 565q-242 59 -242 335q0 133 97 225t251 92h207v-228h-168q-95 0 -118 -69q-5 -18 -5 -47t31 -64t117 -35h145v-162l-332 -612h-288z" />
    <glyph glyph-name="uni06F7.pnum" horiz-adv-x="1007" 
d="M991 1204l-364 -1204h-238q-90 301 -182 603t-182 601h274l205 -821h6l201 821h280z" />
    <glyph glyph-name="uni06F8.pnum" horiz-adv-x="1007" 
d="M25 -2l364 1204h238q90 -299 182 -601t182 -603h-274l-207 823h-6l-199 -823h-280z" />
    <glyph glyph-name="uni06F9.pnum" horiz-adv-x="847" 
d="M283 879q0 -41 17 -74t71 -33h69v207h-69q-55 1 -71 -29t-17 -71zM698 1217v-1217h-258v539h-57q-246 0 -331 189q-28 62 -27 146q0 162 93 252t263 91h317z" />
    <glyph glyph-name="uni06F4.Urdu" 
d="M430 891v-891h-262v932q0 131 79 214t208 83q86 0 142 -38t95 -83q72 59 195 123l123 -211q-196 -110 -304 -202q-20 -18 -32 -26t-23 -18q-109 195 -170 195q-25 0 -38 -15.5t-13 -62.5z" />
    <glyph glyph-name="uni06F7.Urdu" 
d="M872 236v-236h-716l2 211q113 231 238.5 492.5t246.5 513.5h260l-461 -981h430z" />
    <glyph glyph-name="uni06F4.Urdupnum" horiz-adv-x="1005" 
d="M461 969q-25 1 -38 -15t-13 -63v-891h-263v932q0 131 79 214t208 83q86 0 142 -38t96 -83q72 59 194 123l123 -211q-172 -96 -313 -209q-10 -10 -22 -18t-23 -19q-109 195 -170 195z" />
    <glyph glyph-name="uni06F7.Urdupnum" horiz-adv-x="849" 
d="M762 236v-236h-717l2 211q258 528 485 1006h261l-461 -981h430z" />
    <glyph glyph-name="glyph541" horiz-adv-x="1773" 
d="M1651 0h-1225q-241 0 -333.5 73.5t-92.5 250.5v338h268v-300q0 -77 46.5 -101.5t187.5 -24.5h882v579h267v-815z" />
    <glyph glyph-name="glyph542" horiz-adv-x="1832" 
d="M1824 0q-147 0 -206 104q-65 -90 -159.5 -97t-135.5 -7h-899q-241 0 -332.5 73t-91.5 251v338h266v-302q0 -77 44.5 -100.5t189.5 -23.5h780q70 0 97.5 21.5t27.5 96.5v461h264v-438q0 -76 32 -108.5t132 -32.5q60 0 70 -37t10 -91t-19.5 -81t-69.5 -27z" />
    <glyph glyph-name="glyph543" horiz-adv-x="2035" 
d="M1116 396q0 189 113.5 317.5t313.5 128.5t290 -132t90 -313v-397h-1499q-241 0 -332.5 73t-91.5 251v338h266v-302q0 -77 44.5 -100.5t189.5 -23.5h647q-31 64 -31 160zM1657 391q0 209 -123.5 209t-140.5 -71.5t-17 -104.5q0 -106 48.5 -147t117.5 -41h115v155z" />
    <glyph glyph-name="glyph544" horiz-adv-x="1064" 
d="M147 396q0 186 112 316t313 130q202 0 291 -131.5t89 -313.5v-397h-952q-39 0 -59.5 20.5t-20.5 91.5t19.5 97.5t60.5 26.5h178q-31 64 -31 160zM553 600q-147 0 -147 -191q0 -91 49 -132t118 -41h115v155q0 209 -135 209z" />
    <glyph glyph-name="glyph545" horiz-adv-x="1110" 
d="M518 600q-112 0 -112 -191q0 -91 49 -132t118 -41h117v155q0 99 -30 154t-142 55zM150 395q0 188 111.5 317.5t311.5 129.5q201 0 290 -131.5t89 -313.5v-161h158q60 0 70 -37t10 -91q0 -108 -80 -108h-1110q-39 0 -59.5 20.5t-20.5 91.5t19.5 97.5t60.5 26.5h180
q-30 62 -30 159z" />
    <glyph glyph-name="glyph546" horiz-adv-x="2084" 
d="M1376 424q0 -106 49.5 -147t116.5 -41h117v155q0 99 -30 154t-107 55q-112 0 -129 -71.5t-17 -104.5zM1118 396q0 186 112 316t312 130q201 0 291 -132t90 -313v-161h162q38 0 59 -21t21 -91t-19.5 -97t-60.5 -27h-1659q-241 0 -333.5 73.5t-92.5 250.5v338h266v-302
q0 -77 44.5 -100.5t189.5 -23.5h649q-31 64 -31 160z" />
    <glyph glyph-name="glyph547" horiz-adv-x="1472" 
d="M950 586q-147 0 -147 -195q0 -162 153 -162q84 0 136 29v100q0 104 -31 166t-111 62zM668 -231q296 0 353.5 98t61.5 151q-61 -18 -146 -18q-180 0 -288 92.5t-108 278.5t112 320t305 134q315 0 358.5 -206.5t43.5 -323.5v-154q0 -297 -174 -457.5t-514 -160.5
t-507 120.5t-167 381.5v329h264v-272q0 -166 95.5 -239.5t310.5 -73.5z" />
    <glyph glyph-name="glyph548" horiz-adv-x="1523" 
d="M950 586q-143 0 -143 -180q0 -98 41 -134t113 -36h133v122q0 98 -31 163t-113 65zM652 -477q-317 0 -484.5 120.5t-167.5 381.5v329h266v-272q0 -166 94.5 -239.5t311.5 -73.5q362 0 409 231h-123q-298 0 -356.5 139.5t-58.5 231.5q0 187 112.5 320.5t307.5 133.5
q399 0 399 -530v-59h162q38 0 59 -21t21 -91t-19.5 -97t-60.5 -27h-174q-39 -229 -210 -353t-488 -124z" />
    <glyph glyph-name="glyph549" horiz-adv-x="0" 
d="M63 1870q140 0 140 -158v-121h-436v99h71v159h99v-30q51 51 126 51zM106 1718q0 64 -65 66q-31 0 -59 -18t-45 -46v-30h169v28z" />
    <glyph glyph-name="glyph550" horiz-adv-x="657" 
d="M182 1169.5q0 59.5 43 102.5t102.5 43t102.5 -43t43 -102.5t-43 -102.5t-102.5 -43t-102.5 43t-43 102.5z" />
    <glyph glyph-name="glyph551" horiz-adv-x="751" 
d="M387 1169.5q0 59.5 43 102.5t102.5 43t102.5 -43t43 -102.5t-43 -102.5t-102.5 -43t-102.5 43t-43 102.5zM53 1169.5q0 59.5 43 102.5t102.5 43t102.5 -43t43 -102.5t-43 -102.5t-102.5 -43t-102.5 43t-43 102.5z" />
    <glyph glyph-name="glyph552" horiz-adv-x="751" 
d="M225 1466.5q0 59.5 43 102.5t102.5 43t102.5 -43t43 -102.5t-43 -102.5t-102.5 -43t-102.5 43t-43 102.5zM387 1169.5q0 59.5 43 102.5t102.5 43t102.5 -43t43 -102.5t-43 -102.5t-102.5 -43t-102.5 43t-43 102.5zM53 1169.5q0 59.5 43 102.5t102.5 43t102.5 -43
t43 -102.5t-43 -102.5t-102.5 -43t-102.5 43t-43 102.5z" />
    <glyph glyph-name="glyph553" horiz-adv-x="751" 
d="M387 -344q0 59 43 102t102.5 43t102.5 -43t43 -102t-43 -102t-102.5 -43t-102.5 43t-43 102zM53 -344q0 59 43 102t102.5 43t102.5 -43t43 -102t-43 -102t-102.5 -43t-102.5 43t-43 102z" />
    <glyph glyph-name="glyph554" horiz-adv-x="591" 
d="M145 -344q0 59 43 102t102.5 43t102.5 -43t43 -102t-43 -102t-102.5 -43t-102.5 43t-43 102z" />
    <glyph glyph-name="glyph555" horiz-adv-x="751" 
d="M399 -344q0 59 43 102t102.5 43t102.5 -43t43 -102t-43 -102t-102.5 -43t-102.5 43t-43 102zM66 -344q0 59 43 102t102 43t102 -43t43 -102t-43 -102t-102 -43t-102 43t-43 102zM233 -641q0 59 43 102t102.5 43t102.5 -43t43 -102t-43 -102t-102.5 -43t-102.5 43t-43 102
z" />
    <glyph glyph-name="glyph556" horiz-adv-x="831" 
d="M424 1241q0 -53 98 -53h127v-168h-467v168h94q-20 32 -20 92q0 108 64 166.5t137 58.5q72 0 141 -24v-158q-54 14 -95 14q-40 0 -59.5 -21.5t-19.5 -74.5z" />
    </font>
</defs>
</svg>
