<?xml version="1.0" standalone="no"?>
<!DOCTYPE svg PUBLIC "-//W3C//DTD SVG 1.1//EN" "http://www.w3.org/Graphics/SVG/1.1/DTD/svg11.dtd" >
<svg xmlns="http://www.w3.org/2000/svg">
<metadata></metadata>
<defs>
<font id="unionregular" horiz-adv-x="1138" >
<font-face units-per-em="2048" ascent="1536" descent="-512" />
<missing-glyph horiz-adv-x="471" />
<glyph unicode="&#xfb01;" horiz-adv-x="1042" d="M25 913v148h170v135q0 50 4 78q38 211 288 211q64 0 142 -19l-17 -153q-52 12 -100 12q-80 0 -110.5 -29.5t-30.5 -113.5v-121h204v-148h-204v-913h-176v913h-170zM725 0v1061h178v-1061h-178zM725 1253v211h178v-211h-178z" />
<glyph unicode="&#xfb02;" horiz-adv-x="1042" d="M25 913v148h170v135q0 50 4 78q38 211 288 211q64 0 142 -19l-17 -153q-52 12 -100 12q-80 0 -110.5 -29.5t-30.5 -113.5v-121h204v-148h-204v-913h-176v913h-170zM725 0v1464h176v-1464h-176z" />
<glyph horiz-adv-x="0" />
<glyph horiz-adv-x="682" />
<glyph unicode=" "  horiz-adv-x="471" />
<glyph unicode="&#x09;" horiz-adv-x="471" />
<glyph unicode="&#xa0;" horiz-adv-x="471" />
<glyph unicode="!" horiz-adv-x="550" d="M168 0v215h217v-215h-217zM172 1077v387h209v-387l-51 -708h-105z" />
<glyph unicode="&#x22;" horiz-adv-x="798" d="M158 1255v209h172v-209l-23 -315h-125zM467 1255v209h172v-209l-23 -315h-124z" />
<glyph unicode="#" d="M45 412v143h209l59 336h-241v145h264l78 428h145l-78 -428h287l76 428h145l-76 -428h179v-145h-203l-58 -336h232v-143h-258l-74 -424h-145l71 424h-282l-74 -424h-145l73 424h-184zM399 555h285l59 336h-284z" />
<glyph unicode="$" d="M61 426l179 16q8 -129 80.5 -214.5t191.5 -102.5v557q-106 23 -219 84q-195 106 -195 324q0 178 114.5 291t299.5 124v111h109v-111q332 -40 397 -385l-180 -12q-38 201 -217 238v-512q131 -35 188 -58q112 -46 181 -138.5t69 -223.5q0 -189 -123 -314t-315 -131v-176 h-109v174q-409 39 -451 459zM281 1102q0 -96 55 -150.5t176 -91.5v490q-105 -14 -168 -80t-63 -168zM621 125q114 11 183.5 82t69.5 190q0 59 -17 101.5t-54 71.5t-77 47t-105 38v-530z" />
<glyph unicode="%" horiz-adv-x="1933" d="M154 1071q0 75 18.5 143.5t55.5 126t100 91.5t145 34q160 0 242 -106.5t82 -290.5q0 -178 -86 -288.5t-238 -110.5q-157 0 -238 105.5t-81 295.5zM309 1063q0 -277 164 -277q168 0 168 285q0 127 -39.5 202t-126.5 75q-166 0 -166 -285zM408 -49q177 285 500.5 810.5 t451.5 733.5h160q-831 -1353 -949 -1544h-163zM1133 373q0 75 18.5 143.5t55.5 126t100 91.5t145 34q160 0 242 -106.5t82 -290.5q0 -178 -86 -289t-238 -111q-157 0 -238 106t-81 296zM1288 365q0 -277 164 -277q168 0 168 285q0 276 -166 276t-166 -284z" />
<glyph unicode="&#x26;" horiz-adv-x="1329" d="M78 389q0 147 88 252t256 188q-42 55 -58 77t-42.5 62.5t-36 65t-17.5 58t-8 69.5q0 138 101 227t245 89q93 0 171.5 -35.5t127.5 -107t49 -165.5q0 -218 -276 -366q44 -57 132 -165t132 -165q41 87 57 217l179 -20q-16 -105 -42.5 -179.5t-72.5 -158.5 q119 -164 256 -279l-174 -69q-31 21 -67 56t-59 60.5t-65 75.5q-77 -99 -184.5 -150t-230.5 -51q-217 0 -346 129q-115 115 -115 285zM266 420q-4 -100 39 -166q37 -59 101.5 -91t136.5 -32q92 0 177 48.5t130 129.5l-332 406q-245 -121 -252 -295zM438 1167q0 -55 60 -141 q12 -17 26 -34.5t31.5 -39t28.5 -34.5q117 69 151 122q39 61 39 123q0 69 -46 115.5t-120 46.5q-70 0 -120 -43.5t-50 -114.5z" />
<glyph unicode="'" horiz-adv-x="479" d="M152 1253v211h172v-211q-3 -56 -23 -313h-127q-16 205 -22 313z" />
<glyph unicode="(" horiz-adv-x="606" d="M111 543q0 257 86 490t252 462h131q-148 -236 -216.5 -461.5t-68.5 -490.5q0 -252 69 -486.5t216 -472.5h-131q-158 217 -248 461.5t-90 497.5z" />
<glyph unicode=")" horiz-adv-x="606" d="M51 -416q285 453 285 953q0 264 -68.5 490.5t-216.5 467.5h131q170 -253 254 -476t84 -482q0 -249 -90.5 -500t-247.5 -453h-131z" />
<glyph unicode="*" horiz-adv-x="759" d="M55 1204l43 121q135 -51 224 -90q-11 118 -11 242h127q0 -112 -12 -244q103 44 229 92l43 -121q-104 -35 -237 -65q54 -62 153 -189l-100 -73q-80 110 -139 206q-56 -95 -133 -206l-105 73q127 162 150 189q-31 9 -110 30.5t-122 34.5z" />
<glyph unicode="+" horiz-adv-x="1212" d="M106 545v153h422v424h154v-424h424v-153h-424v-426h-154v426h-422z" />
<glyph unicode="," horiz-adv-x="569" d="M168 -205q61 20 87 70t26 135h-105v215h215v-199q0 -245 -194 -311z" />
<glyph unicode="-" horiz-adv-x="739" d="M84 463v172h571v-172h-571z" />
<glyph unicode="." horiz-adv-x="569" d="M178 0v215h215v-215h-215z" />
<glyph unicode="/" horiz-adv-x="624" d="M-18 -29l516 1524h145l-514 -1524h-147z" />
<glyph unicode="0" d="M86 717q0 129 15 237.5t50 204t89 161.5t136.5 104t188.5 38t188.5 -38t136.5 -104t89 -161.5t50 -204t15 -237.5q0 -360 -106 -541q-118 -201 -373 -201q-254 0 -372 201q-107 182 -107 541zM270 719q0 -299 62 -428q78 -166 233 -166q156 0 234 166q61 127 61 428 q0 296 -65 434q-74 158 -230 158q-155 0 -229 -158q-66 -140 -66 -434z" />
<glyph unicode="1" d="M201 961v157q148 22 262 108t151 214h131v-1440h-176v1124q-37 -54 -150.5 -108.5t-217.5 -54.5z" />
<glyph unicode="2" d="M55 0q3 80 35 172q42 114 126 204.5t230 190.5q221 154 302 256q86 109 86 230q0 113 -76.5 185.5t-200.5 72.5q-133 0 -209 -91.5t-76 -230.5l-180 2q5 217 129 344t342 127q106 0 189.5 -29.5t132.5 -73.5t80.5 -101.5t43 -108.5t11.5 -100q0 -91 -35 -177.5 t-98 -152.5q-120 -125 -260 -223q-27 -19 -69 -47t-65 -44t-55 -40t-52 -43.5t-43 -44.5t-40 -53.5t-31 -61.5h742v-162h-959z" />
<glyph unicode="3" d="M74 418l180 12q11 -141 89.5 -221t207.5 -80q148 0 226.5 83t78.5 206q0 128 -83.5 203t-213.5 75q-77 0 -106 -4v148q23 -2 53 -2q65 0 116.5 15.5t83 40t52 57t28.5 64t7 64.5q-1 105 -70 168.5t-178 63.5q-121 0 -190.5 -78t-80.5 -211l-176 14q21 201 137 313.5 t314 112.5q186 0 308 -105.5t122 -275.5q0 -97 -54 -175.5t-149 -121.5v-2q119 -31 193.5 -130t74.5 -234q0 -54 -15.5 -111.5t-52.5 -117.5t-92 -107t-142 -77t-193 -30q-112 0 -199 33.5t-136.5 82t-82 113t-44 115t-13.5 99.5z" />
<glyph unicode="4" d="M41 344v168l666 926h143v-934h197v-160h-197v-344h-172v344h-637zM205 504h473v665h-4z" />
<glyph unicode="5" d="M78 387l182 8q13 -123 93 -194.5t200 -71.5q76 0 136.5 29.5t97.5 79t56 110.5t19 129q0 158 -81.5 246t-223.5 88q-82 0 -162 -40.5t-125 -102.5l-157 14l139 754h723v-162h-586l-78 -408q56 48 128.5 73.5t146.5 25.5q97 0 176 -29.5t131.5 -78.5t88.5 -113t51.5 -131 t15.5 -136q0 -93 -32 -181t-92 -160.5t-158.5 -116.5t-221.5 -44q-196 0 -325.5 112.5t-141.5 299.5z" />
<glyph unicode="6" d="M80 680q0 60 4.5 120.5t18 140.5t36.5 149.5t63.5 140t94 120t133 80.5t176.5 31q178 0 286.5 -97t127.5 -271l-176 -7q-8 86 -73.5 152t-164.5 66q-84 0 -148.5 -38.5t-101.5 -96.5t-60.5 -136t-31.5 -146t-8 -138q123 192 358 192q90 0 165.5 -29.5t125 -77t84 -110 t49.5 -127t15 -129.5q0 -92 -31 -179.5t-88 -158t-148.5 -113.5t-203.5 -43q-118 0 -207.5 39t-144.5 103t-89.5 157.5t-47.5 190.5t-13 215zM287 455q0 -136 83.5 -233t207.5 -97q61 0 111 19t82.5 51t55 75.5t32 90t9.5 96.5q0 149 -77 239t-211 90q-135 0 -215 -92 q-78 -87 -78 -239z" />
<glyph unicode="7" d="M98 1268v170h946v-146q-155 -159 -274 -379q-140 -257 -205 -477q-66 -226 -80 -436h-190q9 199 82 446q73 244 194 449q132 224 269 373h-742z" />
<glyph unicode="8" d="M82 420q0 137 69 232.5t197 133.5q-102 41 -156.5 118.5t-54.5 182.5q0 67 25 131.5t74 120t133.5 89.5t191.5 34q196 0 314 -108t118 -269q0 -100 -55 -179t-154 -120q133 -41 201 -136t68 -232q0 -78 -27.5 -153t-83 -141.5t-152.5 -107.5t-221 -41q-103 0 -186.5 26 t-138.5 69t-92 101.5t-53.5 120.5t-16.5 128zM266 412q0 -124 85 -205.5t216 -81.5q136 0 218.5 81.5t82.5 207.5q0 115 -83 201.5t-218 86.5q-133 0 -217 -79.5t-84 -210.5zM322 1087q0 -110 69 -172.5t180 -62.5q105 0 171.5 63.5t66.5 165.5q0 103 -68 166.5t-174 63.5 q-104 0 -174.5 -63t-70.5 -161z" />
<glyph unicode="9" d="M78 977q0 120 41 215t109 152.5t149.5 87.5t169.5 30q86 0 157.5 -22t122 -60t89.5 -92.5t63 -114.5t39 -132.5t20.5 -139.5t5.5 -141q0 -785 -512 -785q-182 0 -294.5 95.5t-131.5 273.5l173 8q17 -113 84 -170t172 -57q63 0 114 22.5t85 59t59.5 87.5t39.5 101.5 t22 108t10 101.5t1 87q-55 -92 -145 -144t-199 -52q-110 0 -196.5 39t-139.5 106t-80.5 152.5t-27.5 183.5zM262 963q0 -40 9 -81t31 -83t54 -74.5t82.5 -53t112.5 -20.5q129 0 211 91.5t82 232.5q0 89 -32 164t-100 123.5t-159 48.5q-123 0 -207 -90t-84 -258z" />
<glyph unicode=":" horiz-adv-x="569" d="M178 0v215h215v-215h-215zM178 844v217h215v-217h-215z" />
<glyph unicode=";" horiz-adv-x="569" d="M170 -207q61 19 86 70t25 137h-105v215h215v-205q0 -119 -46 -195t-148 -110zM176 844v217h215v-217h-215z" />
<glyph unicode="&#x3c;" horiz-adv-x="1212" d="M104 549v147l1004 441v-160l-819 -354l819 -359v-160z" />
<glyph unicode="=" horiz-adv-x="1212" d="M106 330v153h1000v-153h-1000zM106 760v153h1000v-153h-1000z" />
<glyph unicode="&#x3e;" horiz-adv-x="1212" d="M104 104v160l818 359l-818 354v160l1004 -441v-147z" />
<glyph unicode="?" d="M100 1036q12 212 136 334.5t337 122.5q194 0 320.5 -109t126.5 -294q0 -79 -25.5 -143.5t-64 -110t-109.5 -109.5q-101 -93 -121 -121q-43 -58 -51 -149q-2 -31 -2 -99h-174v52q0 100 25 174t86 139q20 21 96 94q40 39 53 52.5t40 45t36 52.5t18 54t9 69q0 117 -76.5 185 t-190.5 68q-134 0 -208.5 -84t-79.5 -233zM453 0v215h217v-215h-217z" />
<glyph unicode="@" horiz-adv-x="1859" d="M98 645q0 167 66.5 322t181 271.5t279 186.5t348.5 70q114 0 223.5 -26t210.5 -83t177 -138.5t120.5 -200.5t42.5 -261q-2 -109 -43.5 -224.5t-111 -210t-170.5 -155.5t-210 -61q-68 0 -108.5 35.5t-40.5 114.5q-50 -70 -130.5 -111t-170.5 -41q-153 0 -239.5 103.5 t-86.5 281.5q0 85 23.5 172.5t69 165.5t106 139t140.5 97t167 36q89 0 156.5 -43.5t101.5 -132.5l39 142h162l-195 -748q-9 -34 5 -54t46 -22q76 -2 156 70.5t134.5 196t56.5 254.5q2 129 -48 238.5t-137 182.5t-203 113.5t-245 40.5q-62 0 -128.5 -12.5t-138 -40.5 t-137.5 -69.5t-125 -103.5t-103 -137t-69.5 -176.5t-25.5 -216.5q0 -207 89.5 -368.5t257.5 -252.5t390 -91q200 0 362 74.5t248 199.5h158q-54 -90 -125.5 -160.5t-147.5 -115.5t-163 -74t-169 -41t-169 -12q-185 0 -343.5 57t-278 164.5t-187.5 276t-68 378.5zM608 520 q0 -113 50.5 -177t140.5 -64q119 0 202 98q60 70 98.5 171.5t41.5 201.5q3 106 -52.5 170.5t-142.5 64.5q-77 0 -143 -46t-107.5 -116.5t-64.5 -150t-23 -152.5z" />
<glyph unicode="A" horiz-adv-x="1347" d="M-8 0l565 1464h213l586 -1464h-215l-166 442h-619l-161 -442h-203zM416 602h497l-165 442q-60 166 -86 254h-3q-37 -134 -81 -254z" />
<glyph unicode="B" horiz-adv-x="1384" d="M154 0v1464h581q234 0 358 -102.5t124 -267.5q0 -107 -54 -188t-157 -126v-4q135 -35 207.5 -127.5t72.5 -226.5q0 -81 -29 -154.5t-85 -134.5t-148.5 -97t-208.5 -36h-661zM348 170h469q132 0 200 70t68 182q0 51 -17.5 94t-55.5 80t-107.5 57.5t-165.5 20.5h-391v-504z M348 842h357q94 0 159 19t98.5 54.5t47.5 75.5t14 92q0 91 -72.5 152t-212.5 61h-391v-454z" />
<glyph unicode="C" horiz-adv-x="1472" d="M88 737q0 218 85 390t241.5 269t357.5 97q236 0 395 -118.5t203 -332.5l-192 -22q-40 155 -146 232t-260 77q-127 0 -223.5 -49.5t-152.5 -134.5t-83.5 -187.5t-27.5 -220.5q0 -136 30 -243t77.5 -173t112.5 -109t130 -60t135 -17q178 0 287 104.5t139 292.5l193 -24 q-44 -259 -204.5 -398t-416.5 -139q-151 0 -275.5 50t-214.5 145t-140 241t-50 330z" />
<glyph unicode="D" horiz-adv-x="1452" d="M156 0v1464h503q334 0 498 -149q207 -186 207 -561q0 -346 -154 -539q-89 -111 -217 -163t-321 -52h-516zM350 168h320q262 0 374 145q123 157 123 428q0 379 -231 506q-85 47 -268 47h-318v-1126z" />
<glyph unicode="E" horiz-adv-x="1302" d="M156 0v1464h1034v-170h-840v-454h785v-168h-785v-504h860v-168h-1054z" />
<glyph unicode="F" horiz-adv-x="1214" d="M164 0v1464h975v-170h-781v-456h680v-170h-680v-668h-194z" />
<glyph unicode="G" horiz-adv-x="1562" d="M88 723q0 185 55 333t152 242.5t226 144.5t280 50q117 0 214 -26.5t163 -69.5t116 -103.5t78 -124t43 -135.5l-184 -24q-20 91 -65 156.5t-106.5 100t-124.5 49.5t-134 15q-237 0 -377.5 -160t-140.5 -446q0 -265 144 -425.5t376 -160.5q204 0 327 98.5t123 254.5v98 h-446v168h627v-275q-6 -226 -180 -368t-455 -142q-140 0 -267 49.5t-226.5 141.5t-158.5 236.5t-59 322.5z" />
<glyph unicode="H" horiz-adv-x="1466" d="M156 0v1464h194v-614h766v614h195v-1464h-195v680h-766v-680h-194z" />
<glyph unicode="I" horiz-adv-x="550" d="M180 0v1464h195v-1464h-195z" />
<glyph unicode="J" horiz-adv-x="1038" d="M51 449l187 12q4 -82 10 -119q15 -97 64.5 -151t150.5 -54q227 0 227 279v1048h193v-1044q0 -103 -26 -183.5t-67.5 -129.5t-98.5 -80.5t-113 -43.5t-117 -12q-180 0 -282.5 90t-119.5 263q-8 78 -8 125z" />
<glyph unicode="K" horiz-adv-x="1366" d="M154 0v1464h194v-727l735 727h258l-616 -592l641 -872h-248l-528 741l-242 -231v-510h-194z" />
<glyph unicode="L" d="M154 0v1464h194v-1296h750v-168h-944z" />
<glyph unicode="M" horiz-adv-x="1744" d="M158 0v1464h278l365 -1022l73 -221l78 221l369 1022h264v-1464h-186v1221h-4l-439 -1221h-170l-438 1231h-4v-1231h-186z" />
<glyph unicode="N" horiz-adv-x="1472" d="M156 0v1464h202l766 -1171h6v1171h187v-1464h-207l-762 1178h-6v-1178h-186z" />
<glyph unicode="O" horiz-adv-x="1576" d="M88 723q0 151 38 278t104.5 217t156 153.5t192.5 93.5t214 30q208 0 368.5 -102.5t244 -272t83.5 -375.5q0 -121 -27.5 -233.5t-85 -211t-139.5 -172t-197.5 -115.5t-251.5 -42q-204 0 -364 97t-248 268.5t-88 386.5zM285 721q0 -80 16 -159.5t54.5 -158t94.5 -137.5 t143.5 -96t194.5 -37q104 0 189.5 33.5t143 91t97 136t57 165.5t17.5 182q0 120 -34 227t-96.5 188.5t-158.5 129t-212 47.5q-232 0 -369 -165.5t-137 -446.5z" />
<glyph unicode="P" horiz-adv-x="1347" d="M158 0v1464h604q112 0 200 -24.5t143.5 -64.5t92 -96.5t51.5 -116t15 -126.5q0 -211 -125 -325.5t-375 -114.5h-412v-596h-194zM352 764h379q177 0 255.5 64.5t78.5 203.5q0 134 -79 198t-222 64h-412v-530z" />
<glyph unicode="Q" horiz-adv-x="1579" d="M88 731q0 156 48.5 294.5t137 243t223.5 165.5t298 61q158 0 290.5 -60t220.5 -162.5t136.5 -240t48.5 -291.5q0 -180 -56 -331.5t-165 -255.5q91 -84 219 -146l-80 -135q-28 9 -54 22t-60 38t-47 35t-56.5 48.5t-48.5 42.5q-145 -88 -363 -88q-123 0 -232.5 39.5 t-192.5 110t-144 165.5t-92 209t-31 236zM287 731q0 -121 32 -228t93.5 -189.5t159 -130.5t219.5 -48q113 0 198 39q-72 65 -176 107l74 131q110 -38 235 -150q84 79 127 206t43 273q0 162 -57 294t-172.5 213t-271.5 81q-124 0 -221.5 -47.5t-158.5 -130t-92.5 -189.5 t-31.5 -231z" />
<glyph unicode="R" horiz-adv-x="1435" d="M154 0v1464h663q243 0 366.5 -106t123.5 -291q0 -151 -86.5 -251t-247.5 -124l55 -22q41 -17 73.5 -47t55.5 -71t37 -76t29 -83q28 -91 47 -147t54.5 -128t74.5 -118h-223q-43 42 -81.5 136.5t-58.5 195.5q-29 152 -108.5 228.5t-225.5 76.5h-354v-637h-194zM348 803h428 q169 0 250.5 61.5t81.5 192.5q0 243 -287 243h-473v-497z" />
<glyph unicode="S" horiz-adv-x="1347" d="M84 475l182 8q5 -81 36 -144t75 -100.5t101.5 -61.5t110.5 -33t107 -9q160 0 263.5 67.5t103.5 192.5q0 72 -38.5 120.5t-119.5 82.5q-56 24 -248 76.5t-262 79.5q-262 101 -262 329q0 185 150 297.5t370 112.5q248 0 395 -117t154 -334l-188 -6q-9 146 -104.5 223.5 t-254.5 77.5q-148 0 -238.5 -64.5t-90.5 -180.5q0 -110 149 -168q69 -27 263.5 -80t244.5 -72q272 -100 272 -366q0 -131 -77.5 -231.5t-203.5 -152t-276 -51.5q-278 0 -444 133.5t-170 370.5z" />
<glyph unicode="T" horiz-adv-x="1214" d="M27 1294v170h1165v-170h-485v-1294h-195v1294h-485z" />
<glyph unicode="U" horiz-adv-x="1476" d="M156 573v891h194v-891q0 -104 19.5 -181.5t64 -135.5t120.5 -87.5t185 -29.5q208 0 297.5 111t89.5 323v891h195v-891q0 -602 -580 -602q-291 0 -438 145.5t-147 456.5z" />
<glyph unicode="V" horiz-adv-x="1308" d="M2 1464h211l348 -1007l88 -279h4l92 279l357 1007h201l-547 -1464h-215z" />
<glyph unicode="W" horiz-adv-x="1914" d="M25 1464h198l226 -958l61 -281h2l66 264l270 975h221l260 -970l64 -269h2l67 281l234 958h194l-397 -1464h-195l-286 1049l-58 213h-2l-55 -213l-291 -1049h-200z" />
<glyph unicode="X" horiz-adv-x="1308" d="M2 0l539 758l-490 706h232l270 -403l104 -162l109 156l287 409h215l-500 -702l535 -762h-240l-332 487l-80 125l-86 -131l-336 -481h-227z" />
<glyph unicode="Y" horiz-adv-x="1347" d="M4 1464h234l434 -694l440 694h223l-571 -856v-608h-195v608z" />
<glyph unicode="Z" horiz-adv-x="1251" d="M43 0v172l756 942l153 182h-831v168h1059v-170l-797 -981l-121 -145h942v-168h-1161z" />
<glyph unicode="[" horiz-adv-x="550" d="M143 -408v1889h392v-144h-220v-1599h220v-146h-392z" />
<glyph unicode="\" horiz-adv-x="624" d="M-18 1495h147l514 -1524h-145z" />
<glyph unicode="]" horiz-adv-x="550" d="M20 -262h218v1599h-218v144h390v-1889h-390v146z" />
<glyph unicode="^" horiz-adv-x="1093" d="M78 614l399 850h139l400 -850h-162l-309 672l-301 -672h-166z" />
<glyph unicode="_" horiz-adv-x="1081" d="M-16 -215h1110v-117h-1110v117z" />
<glyph unicode="`" horiz-adv-x="569" d="M-16 1468h233l156 -286h-140z" />
<glyph unicode="a" horiz-adv-x="1120" d="M74 287q0 145 102 221.5t285 89.5q280 19 340 115q2 16 2 45q0 180 -248 180q-122 0 -187.5 -48t-82.5 -161l-176 14q44 340 460 340q179 0 293.5 -81t114.5 -220v-528v-26t-0.5 -23.5t0 -19.5t1 -17.5t2 -14t4 -11.5t6 -8t8.5 -5.5t12 -1.5q15 0 30 6l15 -131 q-44 -11 -101 -14h-12q-68 0 -98 42q-33 46 -33 107q-82 -89 -173.5 -125.5t-207.5 -36.5q-162 0 -259 83t-97 229zM262 287q0 -76 57.5 -119t151.5 -43q117 0 196.5 48.5t112.5 125.5q21 51 21 121v125h-4q-99 -58 -303 -78q-116 -11 -174 -52t-58 -128z" />
<glyph unicode="b" horiz-adv-x="1183" d="M143 0v1464h176v-536h3q102 155 319 155q145 0 252 -74t160 -196t53 -276q0 -115 -30 -215.5t-87.5 -178.5t-148.5 -123t-205 -45q-94 0 -180 40t-140 122h-2v-137h-170zM309 535q0 -186 66 -279q92 -129 243 -129q144 0 224 112.5t80 295.5q0 180 -82.5 289.5 t-223.5 109.5q-78 0 -139 -34t-96.5 -91.5t-53.5 -127t-18 -146.5z" />
<glyph unicode="c" horiz-adv-x="1069" d="M63 524q0 253 138 406t358 153q178 0 294 -93.5t142 -256.5l-176 -14q-23 103 -90 158t-166 55q-155 0 -235 -110t-80 -298q0 -186 78 -291.5t225 -105.5q118 0 189.5 66t88.5 194l179 -10q-29 -191 -148 -296.5t-307 -105.5q-228 0 -359 148t-131 401z" />
<glyph unicode="d" horiz-adv-x="1177" d="M74 528q0 158 54 283.5t158.5 198.5t241.5 73q102 0 190.5 -39.5t137.5 -115.5h2v536h178v-1464h-172v137h-2q-90 -162 -317 -162q-141 0 -249.5 73t-165 198t-56.5 282zM258 524q0 -180 83.5 -288.5t225.5 -108.5q143 0 223 109t80 284q0 194 -81 304t-232 110 q-146 0 -222.5 -111t-76.5 -299z" />
<glyph unicode="e" horiz-adv-x="1107" d="M63 526q0 79 17 155.5t55.5 150t95 129t142 89t188.5 33.5q146 0 255 -67.5t165 -179t61 -250.5q0 -90 -2 -105h-792q2 -161 87.5 -257.5t235.5 -96.5q219 0 281 213l178 -12q-41 -172 -159 -262.5t-300 -90.5q-233 0 -370.5 152.5t-137.5 398.5zM254 631h600 q-2 58 -21.5 111t-54.5 96.5t-92 69.5t-129 26q-131 0 -213 -85t-90 -218z" />
<glyph unicode="f" horiz-adv-x="595" d="M23 913v148h170q0 185 4 213q38 211 288 211q64 0 142 -19l-17 -153q-52 12 -100 12q-80 0 -110.5 -29.5t-30.5 -113.5v-121h204v-148h-204v-913h-176v913h-170z" />
<glyph unicode="g" horiz-adv-x="1157" d="M70 537q0 83 18 161.5t55.5 148.5t91.5 122.5t131 83t169 30.5q213 0 321 -163h2v141h164v-944q0 -211 -53 -320q-111 -227 -434 -227q-178 0 -299 82.5t-127 245.5l174 -15q7 -58 47.5 -98t94.5 -56t116 -16q150 0 223 76.5t82 218.5q4 62 4 152h-2q-53 -82 -134.5 -124 t-178.5 -42q-114 0 -204 44t-146.5 119.5t-85.5 172.5t-29 207zM254 547q0 -183 75.5 -292.5t219.5 -109.5t223.5 110t79.5 292q0 172 -79 279.5t-218 107.5q-140 0 -220.5 -106t-80.5 -281z" />
<glyph unicode="h" horiz-adv-x="1157" d="M143 0v1464h176v-542h3q52 81 137.5 121t187.5 40q185 0 276 -98t91 -301v-684h-178v694q0 116 -57.5 176t-162.5 60q-143 0 -220 -90.5t-77 -249.5v-590h-176z" />
<glyph unicode="i" horiz-adv-x="464" d="M143 0v1061h179v-1061h-179zM143 1255v209h179v-209h-179z" />
<glyph unicode="j" horiz-adv-x="456" d="M-61 -403l18 151q39 -10 76 -10q50 0 69 22q21 22 28 53t7 107v1141h176v-1157q0 -151 -43 -213q-73 -109 -217 -109q-59 0 -114 15zM137 1253v211h176v-211h-176z" />
<glyph unicode="k" horiz-adv-x="1042" d="M143 0v1464h179v-848l452 445h236l-414 -391l448 -670h-215l-362 547l-145 -135v-412h-179z" />
<glyph unicode="l" horiz-adv-x="464" d="M143 0v1464h179v-1464h-179z" />
<glyph unicode="m" horiz-adv-x="1748" d="M143 0v1061h162v-154h2q110 176 332 176q111 0 188 -46t107 -136q59 90 144 136t186 46q165 0 253.5 -81t88.5 -250v-752h-179v727q0 94 -47 148.5t-149 54.5q-122 0 -195 -75.5t-73 -217.5v-637h-177v692q0 119 -44 178.5t-150 59.5q-113 0 -181.5 -71t-82.5 -165 q-9 -71 -9 -155v-539h-176z" />
<glyph unicode="n" horiz-adv-x="1155" d="M143 0v1061h162v-160h2q114 182 342 182q103 0 175.5 -31t112.5 -88.5t57.5 -128t17.5 -161.5v-674h-176v711q0 106 -56 162.5t-162 56.5q-147 0 -223 -90.5t-76 -251.5v-588h-176z" />
<glyph unicode="o" horiz-adv-x="1142" d="M66 528q0 62 11 124t33.5 125.5t63 117.5t94.5 96.5t132 67t171 24.5q125 0 223.5 -44.5t159 -120.5t92 -173t31.5 -208q0 -87 -17.5 -166.5t-57 -152.5t-97 -126.5t-143.5 -85t-191 -31.5q-236 0 -370.5 151.5t-134.5 401.5zM252 528q0 -190 89.5 -295.5t229.5 -105.5 q142 0 232 105.5t90 299.5q0 189 -91 295.5t-231 106.5q-141 0 -230 -106t-89 -300z" />
<glyph unicode="p" horiz-adv-x="1181" d="M143 -406v1467h170v-141h2q94 163 332 163q107 0 195 -43.5t145 -118t88 -173t31 -209.5q0 -112 -30 -212t-87 -179.5t-149 -126t-207 -46.5q-92 0 -176 38t-133 112h-2v-531h-179zM309 526q0 -183 81 -291t228 -108q146 0 225 111.5t79 300.5q0 180 -82.5 288.5 t-223.5 108.5q-78 0 -139 -35.5t-96.5 -95t-53.5 -130.5t-18 -149z" />
<glyph unicode="q" horiz-adv-x="1177" d="M74 532q0 239 128.5 395t338.5 156q216 0 325 -165h2v143h168v-1467h-178v533h-2q-40 -72 -123.5 -112t-183.5 -40q-88 0 -164 29.5t-132.5 81.5t-97 121.5t-61 152.5t-20.5 172zM258 526q0 -180 83.5 -289.5t227.5 -109.5q141 0 221 109.5t80 285.5q0 189 -82 299 q-88 115 -231 115q-144 0 -221.5 -111t-77.5 -299z" />
<glyph unicode="r" horiz-adv-x="706" d="M143 0v1061h162v-199h8q49 105 108.5 154.5t137.5 58.5q23 2 43 2q62 0 109 -22l-33 -174q-40 12 -80 12q-45 0 -82 -9.5t-64.5 -23.5t-48.5 -39t-35 -47.5t-23.5 -58t-14.5 -61.5t-7.5 -67t-3 -65t-0.5 -65v-457h-176z" />
<glyph unicode="s" horiz-adv-x="1024" d="M63 326l177 12q10 -107 83 -159t195 -52q110 0 180 42t70 120q0 95 -113 131q-32 10 -174 51t-192 59q-89 33 -145 97t-56 153q0 62 22.5 113t61 86t90 58.5t108 34.5t117.5 11q194 0 301.5 -74t120.5 -239l-174 -12q-10 89 -74 133.5t-165 44.5q-105 0 -166.5 -35.5 t-61.5 -103.5q0 -87 138 -129q8 -2 157 -43t197 -58q192 -70 192 -258q0 -106 -61 -183t-158.5 -114t-218.5 -37q-200 0 -319.5 87t-131.5 264z" />
<glyph unicode="t" horiz-adv-x="606" d="M27 913v148h155v287l176 65v-352h197v-148h-197v-647q0 -61 26 -87.5t87 -26.5q22 0 84 4l14 -154q-82 -10 -133 -10q-123 0 -188.5 60t-65.5 204v657h-155z" />
<glyph unicode="u" horiz-adv-x="1155" d="M143 383v678h176v-582q0 -96 7 -168q9 -85 64 -133.5t147 -48.5q148 0 222.5 97t74.5 251v584h178v-1061h-162v162h-2q-117 -187 -342 -187q-282 0 -348 246q-15 59 -15 162z" />
<glyph unicode="v" horiz-adv-x="1028" d="M29 1061h192l225 -655l72 -211h2l70 211l225 655h184l-395 -1061h-176z" />
<glyph unicode="w" horiz-adv-x="1515" d="M20 1061h189l180 -653l55 -201h2l52 203l166 651h188l170 -655l47 -189h2l53 189l189 655h176l-334 -1061h-186l-168 668l-41 174h-6l-43 -174l-170 -668h-189z" />
<glyph unicode="x" horiz-adv-x="1042" d="M16 0l394 555l-365 506h223l168 -250l78 -121l74 105l188 266h213l-366 -496l403 -565h-223l-219 330l-66 98l-74 -111l-213 -317h-215z" />
<glyph unicode="y" horiz-adv-x="1024" d="M25 1061h194l213 -600l88 -264h2l92 264l209 600h183l-482 -1262q-50 -129 -112 -177t-170 -48q-58 0 -119 18l-10 166q64 -22 102 -22h11q51 0 84 18q35 20 55 70l71 178z" />
<glyph unicode="z" horiz-adv-x="1003" d="M45 0v139l657 774q-176 -4 -251 -4h-367v152h846v-121l-666 -790q136 4 199 4h498v-154h-916z" />
<glyph unicode="{" horiz-adv-x="684" d="M78 461v151q71 0 126 57.5t58 145.5q6 167 6 408q0 122 70 196t160 74h137v-139h-43q-100 0 -125 -33q-22 -26 -28.5 -74.5t-6.5 -130.5q0 -233 -10 -338q-8 -92 -62 -153q-50 -58 -122 -86v-2q116 -38 159 -144q24 -59 29 -127q6 -86 6 -186v-244q0 -41 24.5 -70.5 t61.5 -37.5q40 -7 74 -7h43v-139h-66q-67 0 -106 8q-78 16 -133.5 77.5t-61.5 160.5q-4 57 -4 221q0 107 -8 217q-7 92 -56 143.5t-122 51.5z" />
<glyph unicode="|" horiz-adv-x="493" d="M174 -233v1726h148v-1726h-148z" />
<glyph unicode="}" horiz-adv-x="684" d="M47 -279h43q34 0 74 7q37 8 61.5 37.5t24.5 70.5v244q0 100 6 186q5 68 29 127q43 106 159 144v2q-72 28 -122 86q-54 61 -62 153q-10 105 -10 338q0 82 -6.5 130.5t-28.5 74.5q-25 33 -125 33h-43v139h137q90 0 160 -74t70 -196q0 -241 6 -408q3 -88 58 -145.5 t126 -57.5v-151q-73 0 -122 -51.5t-56 -143.5q-8 -110 -8 -217q0 -164 -4 -221q-6 -99 -61.5 -160.5t-133.5 -77.5q-39 -8 -106 -8h-66v139z" />
<glyph unicode="~" horiz-adv-x="1212" d="M113 614q105 150 268 150q21 0 42.5 -2.5t45 -9t41 -11t42.5 -14.5t36 -14.5t35.5 -15t27.5 -11.5q13 -6 39 -16.5t37.5 -15.5t31 -12.5t31 -10.5t26 -5.5t26.5 -2.5q106 0 219 145l37 -156q-61 -71 -122 -108t-145 -37q-30 0 -58.5 4.5t-57.5 14.5t-46 16.5t-48 21 t-37 17.5q-4 2 -22 9.5t-23 10t-21 9t-22.5 9t-20.5 7.5t-22 7t-20.5 5t-22 4.5t-21 2.5t-22.5 1q-61 0 -107.5 -34t-109.5 -111z" />
<glyph unicode="&#xa1;" horiz-adv-x="606" d="M197 844v217h217v-217h-217zM201 -18l51 708h104l54 -708v-385h-209v385z" />
<glyph unicode="&#xa2;" d="M100 537q0 240 139 393t351 153h28l48 289l96 -12l-47 -287q133 -25 215 -110.5t102 -229.5l-176 -12q-34 159 -166 201l-127 -795h25q118 0 189.5 66t88.5 194l178 -10q-29 -191 -147.5 -296.5t-306.5 -105.5q-37 0 -51 2l-47 -301l-95 17l49 301q-166 43 -256 183.5 t-90 359.5zM285 524q0 -144 47.5 -241.5t138.5 -135.5l125 787q-152 -3 -231.5 -112.5t-79.5 -297.5z" />
<glyph unicode="&#xa3;" d="M61 129q100 60 164 158t64 221q0 63 -35 158h-184v118h137q-30 76 -41 105.5t-22 81.5t-11 106q0 94 38 173.5t102 132.5t147 82.5t174 29.5q210 0 331 -122.5t132 -332.5l-178 -14q-11 149 -86.5 233t-200.5 84q-128 0 -199 -75t-71 -181q0 -26 3.5 -53t7.5 -46.5 t13.5 -50.5t15 -46.5t19.5 -53.5t20 -53h322v-118h-283q33 -56 33 -152q0 -95 -54.5 -176.5t-156.5 -175.5l2 -4q112 41 180 41q95 0 214 -33t180 -33q102 0 186 66l74 -150q-106 -78 -295 -78q-58 0 -199 43t-207 43q-120 0 -254 -82z" />
<glyph unicode="&#xa4;" horiz-adv-x="1130" d="M61 326l127 127q-90 123 -90 266q0 158 92 270l-129 127l109 111l127 -127q118 88 272 88q149 0 267 -88l127 127l108 -111l-125 -125q88 -114 88 -270q0 -150 -88 -270q18 -19 39 -40t46.5 -46t39.5 -39l-106 -109l-125 129q-115 -92 -271 -92q-159 0 -274 92l-127 -129 zM268 719q0 -127 87 -216t212 -89q124 0 210.5 90t86.5 217q0 126 -86 216.5t-209 90.5q-127 0 -214 -90t-87 -219z" />
<glyph unicode="&#xa5;" horiz-adv-x="1134" d="M0 1464h209l280 -530l82 -168l82 168l269 530h213l-385 -708h266v-138h-334l-18 -67v-80h352v-131h-352v-340h-189v340h-352v131h352v80l-18 67h-334v138h266z" />
<glyph unicode="&#xa6;" horiz-adv-x="493" d="M174 -231v694h148v-694h-148zM174 801v694h148v-694h-148z" />
<glyph unicode="&#xa7;" d="M76 653q0 98 61.5 177t159.5 108q-58 58 -84.5 112t-26.5 119q0 127 88 215q109 109 285 109q180 0 282 -92t115 -271l-182 -10q-21 223 -211 223q-86 0 -142 -47.5t-56 -119.5q0 -21 10.5 -50t21.5 -43q32 -43 105 -92.5t203 -124.5q146 -85 202 -131q144 -116 144 -268 q0 -125 -88 -213q-41 -41 -134 -82q142 -107 142 -268q0 -138 -112 -230t-279 -92q-185 0 -295 98.5t-129 276.5l178 12q30 -233 244 -233q92 0 152.5 47.5t60.5 124.5q0 28 -9.5 53t-34.5 52.5t-49.5 48.5t-75 54t-88 55.5t-110.5 64.5q-153 89 -205 135q-143 126 -143 282 zM242 668q0 -72 57 -136q42 -47 176 -124q170 -98 258 -160q148 71 148 188q0 66 -64 133q-25 26 -95.5 75t-123.5 81q-131 78 -207 133q-149 -76 -149 -190z" />
<glyph unicode="&#xa8;" horiz-adv-x="514" d="M-27 1221v209h187v-209h-187zM352 1221v209h187v-209h-187z" />
<glyph unicode="&#xa9;" horiz-adv-x="1572" d="M25 733q0 155 60 295.5t161.5 242.5t242 162t295.5 60t295.5 -60t242.5 -162t162 -242.5t60 -295.5t-60 -295.5t-162 -242.5t-242.5 -162t-295.5 -60t-295.5 60t-242 162t-161.5 242.5t-60 295.5zM150 733q0 -176 83.5 -324t229.5 -234.5t321 -86.5t321 86.5t230 234.5 t84 324t-84 324t-230 234.5t-321 86.5t-321 -86.5t-229.5 -234.5t-83.5 -324zM365 731q0 201 119 324t307 123q140 0 236.5 -73t125.5 -200l-127 -14q-25 82 -85.5 129t-149.5 47q-134 0 -211.5 -90.5t-77.5 -243.5q0 -150 78 -243t206 -93q96 0 162.5 54t85.5 147l127 -18 q-31 -137 -131 -217t-239 -80q-192 0 -309 123.5t-117 324.5z" />
<glyph unicode="&#xaa;" horiz-adv-x="765" d="M49 963q0 81 49 130t131 60q152 19 232 39q71 17 71 39q0 68 -33 99.5t-120 31.5q-169 0 -172 -121l-129 16q10 103 90.5 158t212.5 55q129 0 206 -52t77 -169v-309q0 -33 19.5 -62.5t43.5 -39.5l-63 -74q-32 3 -71.5 29t-51.5 61q-97 -92 -250 -92q-109 0 -175.5 52.5 t-66.5 148.5zM193 965q0 -46 35 -69.5t94 -23.5q89 0 141.5 40.5t60.5 99.5q4 27 4 98q-52 -24 -196 -41q-33 -4 -53 -8.5t-42.5 -15t-33 -30.5t-10.5 -50z" />
<glyph unicode="&#xab;" horiz-adv-x="1044" d="M117 477v121l315 346l74 -88l-238 -311l238 -305l-74 -88zM514 477v121l315 346l74 -88l-237 -311l237 -305l-74 -88z" />
<glyph unicode="&#xac;" horiz-adv-x="1212" d="M106 760v153h1000v-589h-156v436h-844z" />
<glyph unicode="&#xad;" horiz-adv-x="739" d="M84 463v172h571v-172h-571z" />
<glyph unicode="&#xae;" horiz-adv-x="1572" d="M25 733q0 155 60 295.5t161.5 242.5t242 162t295.5 60t295.5 -60t242.5 -162t162 -242.5t60 -295.5t-60 -295.5t-162 -242.5t-242.5 -162t-295.5 -60t-295.5 60t-242 162t-161.5 242.5t-60 295.5zM150 733q0 -176 83.5 -324t229.5 -234.5t321 -86.5t321 86.5t230 234.5 t84 324t-84 324t-230 234.5t-321 86.5t-321 -86.5t-229.5 -234.5t-83.5 -324zM473 301v854h313q330 0 330 -237q0 -103 -61 -165t-164 -73q87 -57 158 -201q62 -121 106 -178h-156q-47 50 -86 160q-47 138 -149 205h-156v-365h-135zM608 778h154q215 0 215 135q0 67 -48 99 t-153 32h-168v-266z" />
<glyph unicode="&#xaf;" horiz-adv-x="970" d="M221 1245v139h529v-139h-529z" />
<glyph unicode="&#xb0;" horiz-adv-x="819" d="M121 1186q0 118 84 201t203 83q117 0 200.5 -82.5t83.5 -201.5q0 -118 -83 -202.5t-201 -84.5q-120 0 -203.5 83.5t-83.5 203.5zM227 1186q0 -77 51 -129.5t130 -52.5t129.5 52.5t50.5 129.5t-50.5 128.5t-129.5 51.5t-130 -51.5t-51 -128.5z" />
<glyph unicode="&#xb1;" horiz-adv-x="1175" d="M88 0v154h999v-154h-999zM88 610v152h422v371h156v-371h421v-152h-421v-372h-156v372h-422z" />
<glyph unicode="&#xb2;" horiz-adv-x="741" d="M43 653q2 55 37 123q31 59 81 104t136 103q143 96 176 129q47 50 47 113q0 57 -42 92t-111 35q-78 0 -118 -41.5t-42 -116.5l-146 8q17 129 97.5 197.5t218.5 68.5q130 0 208.5 -67.5t78.5 -167.5q0 -97 -60 -168q-49 -57 -182 -141q-9 -5 -36.5 -22t-37 -23.5 t-30.5 -20.5t-30.5 -22t-23 -20.5t-21 -23.5t-12.5 -22h433v-117h-621z" />
<glyph unicode="&#xb3;" horiz-adv-x="714" d="M33 889l143 6q2 -25 10 -47.5t26 -45.5t53 -36.5t83 -13.5q82 0 127 38t45 101q0 67 -46 100t-128 33h-61l12 106q37 0 68 7q59 13 89.5 37.5t30.5 72.5q0 49 -38.5 79t-100.5 30q-71 0 -110.5 -36.5t-47.5 -102.5l-137 14q19 112 97 174.5t198 62.5q130 0 207.5 -58 t77.5 -157q0 -62 -38.5 -103.5t-98.5 -62.5v-2q86 -20 130 -72.5t44 -127.5q0 -112 -89.5 -180t-228.5 -68q-134 0 -220.5 65.5t-96.5 186.5z" />
<glyph unicode="&#xb4;" horiz-adv-x="569" d="M178 1182l156 286h229l-244 -286h-141z" />
<glyph unicode="&#xb6;" horiz-adv-x="1163" d="M49 1042q0 197 123.5 309.5t345.5 112.5h383l180 -88l-73 -147v-1591h-154v1683h-238v-1683h-151v1011q-187 1 -301.5 111.5t-114.5 281.5z" />
<glyph unicode="&#xb7;" horiz-adv-x="569" d="M178 399v215h215v-215h-215z" />
<glyph unicode="&#xb8;" horiz-adv-x="569" d="M57 -399l25 102q44 -16 131 -16q123 0 123 69q0 64 -113 64q-11 0 -57 -4l-12 45l84 149h110l-59 -106l2 -2q27 6 59 2q63 -5 104.5 -45.5t41.5 -100.5q0 -88 -79 -136t-196 -48q-85 0 -164 27z" />
<glyph unicode="&#xb9;" horiz-adv-x="724" d="M109 1184v114q86 11 161 55t105 113h104v-815h-141v611q-95 -68 -229 -78z" />
<glyph unicode="&#xba;" horiz-adv-x="765" d="M47 1110q0 166 89.5 264.5t246.5 98.5q156 0 245 -98.5t89 -260.5t-89.5 -259t-242.5 -97q-154 0 -246 96t-92 256zM193 1114q0 -112 49 -174.5t141 -62.5q95 0 142.5 62t47.5 177q0 124 -54.5 181t-135.5 57q-87 0 -138.5 -59t-51.5 -181z" />
<glyph unicode="&#xbb;" horiz-adv-x="1044" d="M133 240l238 305l-238 311l74 88l315 -346v-121l-315 -325zM530 240l238 305l-238 311l74 88l316 -346v-121l-316 -325z" />
<glyph unicode="&#xbc;" horiz-adv-x="1708" d="M90 1184v114q86 11 161 55t105 113h105v-813h-142v609q-95 -68 -229 -78zM279 -57l997 1552h143l-995 -1552h-145zM995 174v121l418 518h115v-528h112v-111h-112v-174h-137v174h-396zM1122 285h269v327h-2z" />
<glyph unicode="&#xbd;" horiz-adv-x="1708" d="M90 1184v114q86 11 161 55t105 113h105v-815h-142v611q-95 -68 -229 -78zM252 -57l995 1552h146l-998 -1552h-143zM1028 0q2 55 37 123q31 59 81 104t136 103q143 96 176 129q47 50 47 112q0 57 -42 92t-111 35q-78 0 -118 -41t-42 -116l-145 8q17 129 97 197.5t218 68.5 q130 0 208.5 -67.5t78.5 -167.5q0 -97 -60 -168q-51 -59 -182 -142q-10 -6 -36.5 -22.5t-36.5 -23t-30.5 -20t-30.5 -22t-23 -20.5t-20.5 -23t-12.5 -22h432v-117h-621z" />
<glyph unicode="&#xbe;" horiz-adv-x="1708" d="M63 889l144 6q2 -25 10 -47.5t26 -45.5t53 -36.5t83 -13.5q82 0 127 38t45 101q0 67 -46 100t-128 33h-62l13 106q36 0 67 7q60 13 90.5 37.5t30.5 72.5q0 49 -38.5 79t-100.5 30q-71 0 -110.5 -36.5t-47.5 -102.5l-137 14q19 112 97 174.5t198 62.5q130 0 207.5 -58 t77.5 -157q0 -62 -39 -103.5t-99 -62.5v-2q86 -20 130 -72.5t44 -127.5q0 -112 -89 -180t-228 -68q-135 0 -221.5 65.5t-96.5 186.5zM346 -57l995 1552h144l-996 -1552h-143zM1014 174v121l416 518h114v-528h113v-111h-113v-174h-135v174h-395zM1141 281h268v327h-2z" />
<glyph unicode="&#xbf;" horiz-adv-x="1196" d="M143 -29q0 113 50 193q26 43 135 148t135 143q43 58 51 149q2 31 2 98h174l-2 -124q-8 -132 -108 -240q-20 -22 -73.5 -74t-95.5 -97t-59 -79q-24 -46 -24 -117q0 -117 76.5 -185.5t189.5 -68.5q134 0 209 84.5t80 233.5l180 -10q-12 -213 -133.5 -335t-333.5 -122 q-196 0 -324.5 107t-128.5 296zM494 846v215h217v-215h-217z" />
<glyph unicode="&#xc0;" horiz-adv-x="1347" d="M-8 0l565 1464h213l586 -1464h-215l-166 442h-619l-161 -442h-203zM348 1878h234l155 -287h-139zM416 602h497l-165 442q-60 166 -86 254h-3q-37 -134 -81 -254z" />
<glyph unicode="&#xc1;" horiz-adv-x="1347" d="M-8 0l565 1464h213l586 -1464h-215l-166 442h-619l-161 -442h-203zM416 602h497l-165 442q-60 166 -86 254h-3q-37 -134 -81 -254zM596 1591l156 287h229l-244 -287h-141z" />
<glyph unicode="&#xc2;" horiz-adv-x="1347" d="M-8 0l565 1464h213l586 -1464h-215l-166 442h-619l-161 -442h-203zM350 1591l219 287h185l219 -287h-185l-126 174l-127 -174h-185zM416 602h497l-165 442q-60 166 -86 254h-3q-37 -134 -81 -254z" />
<glyph unicode="&#xc3;" horiz-adv-x="1347" d="M-8 0l565 1464h213l586 -1464h-215l-166 442h-619l-161 -442h-203zM317 1587q12 106 65.5 167t143.5 61q52 0 100.5 -21t92 -42t82.5 -21q62 0 84 88h116q-6 -103 -58.5 -165.5t-151.5 -62.5q-42 0 -131 43t-138 43q-38 0 -62 -26t-24 -64h-119zM416 602h497l-165 442 q-60 166 -86 254h-3q-37 -134 -81 -254z" />
<glyph unicode="&#xc4;" horiz-adv-x="1347" d="M-8 0l565 1464h213l586 -1464h-215l-166 442h-619l-161 -442h-203zM379 1610v209h186v-209h-186zM416 602h497l-165 442q-60 166 -86 254h-3q-37 -134 -81 -254zM758 1610v209h186v-209h-186z" />
<glyph unicode="&#xc5;" horiz-adv-x="1347" d="M-8 0l565 1464h213l586 -1464h-215l-166 442h-619l-161 -442h-203zM416 602h497l-165 442q-60 166 -86 254h-3q-37 -134 -81 -254zM477 1737q0 75 53.5 127.5t128.5 52.5t129 -53.5t54 -128.5q0 -77 -53.5 -130t-129.5 -53q-75 0 -128.5 53.5t-53.5 131.5zM567 1737 q0 -40 27.5 -67.5t67.5 -27.5q38 0 65 27.5t27 65.5q0 40 -27 67t-65 27q-40 0 -67.5 -27t-27.5 -65z" />
<glyph unicode="&#xc6;" horiz-adv-x="1972" d="M-6 0l721 1464h1151v-170h-729v-456h682v-168h-682v-502h747v-168h-936v424h-536l-203 -424h-215zM492 594h456v700h-117z" />
<glyph unicode="&#xc7;" horiz-adv-x="1478" d="M94 737q0 218 85 390t241.5 269t357.5 97q236 0 395 -118.5t203 -332.5l-192 -22q-40 155 -146 232t-260 77q-127 0 -223.5 -49.5t-152.5 -134.5t-83.5 -187.5t-27.5 -220.5q0 -136 30 -243t77.5 -173t112.5 -109t130 -60t135 -17q178 0 287 104.5t139 292.5l195 -24 q-44 -259 -204.5 -398t-416.5 -139h-33l-36 -67l2 -2q7 3 26.5 3.5t32.5 -1.5q63 -5 104 -44.5t41 -99.5q0 -88 -78.5 -137t-195.5 -49q-73 0 -164 27l25 102q44 -16 131 -16q56 0 89.5 18t33.5 53q0 62 -113 62q-11 0 -57 -4l-13 45l68 123q-253 41 -399 235t-146 518z" />
<glyph unicode="&#xc8;" horiz-adv-x="1308" d="M162 0v1464h1034v-170h-840v-454h785v-168h-785v-504h861v-168h-1055zM412 1878h233l156 -287h-139z" />
<glyph unicode="&#xc9;" horiz-adv-x="1308" d="M162 0v1464h1034v-170h-840v-454h785v-168h-785v-504h861v-168h-1055zM561 1591l156 287h229l-244 -287h-141z" />
<glyph unicode="&#xca;" horiz-adv-x="1308" d="M162 0v1464h1034v-170h-840v-454h785v-168h-785v-504h861v-168h-1055zM371 1591l219 287h184l219 -287h-184l-127 174l-127 -174h-184z" />
<glyph unicode="&#xcb;" horiz-adv-x="1308" d="M162 0v1464h1034v-170h-840v-454h785v-168h-785v-504h861v-168h-1055zM397 1610v209h187v-209h-187zM776 1610v209h187v-209h-187z" />
<glyph unicode="&#xcc;" horiz-adv-x="550" d="M-37 1878h234l155 -287h-139zM180 0v1464h195v-1464h-195z" />
<glyph unicode="&#xcd;" horiz-adv-x="550" d="M180 0v1464h195v-1464h-195zM201 1591l155 287h230l-244 -287h-141z" />
<glyph unicode="&#xce;" horiz-adv-x="550" d="M-35 1591l219 287h185l219 -287h-185l-127 174l-126 -174h-185zM180 0v1464h195v-1464h-195z" />
<glyph unicode="&#xcf;" horiz-adv-x="550" d="M-4 1610v209h186v-209h-186zM180 0v1464h195v-1464h-195zM375 1610v209h186v-209h-186z" />
<glyph unicode="&#xd0;" horiz-adv-x="1490" d="M41 680v135h152v649h503q350 0 527.5 -178.5t177.5 -531.5q0 -201 -50.5 -348.5t-145.5 -235t-220 -129t-285 -41.5h-507v680h-152zM387 168h320q86 0 156 15.5t135 55t109 103t70.5 165t26.5 234.5q0 286 -114.5 419.5t-384.5 133.5h-318v-479h422v-135h-422v-512z" />
<glyph unicode="&#xd1;" horiz-adv-x="1478" d="M156 0v1464h202l766 -1171h6v1171h187v-1464h-207l-762 1178h-6v-1178h-186zM408 1587q12 106 65 167t143 61q52 0 100.5 -21t92 -42t82.5 -21q62 0 84 88h117q-6 -103 -59 -165.5t-152 -62.5q-42 0 -131 43t-138 43q-38 0 -62 -26t-24 -64h-118z" />
<glyph unicode="&#xd2;" horiz-adv-x="1574" d="M86 723q0 151 38 278t104.5 217t156 153.5t192.5 93.5t214 30q208 0 368.5 -102.5t244 -272t83.5 -375.5q0 -121 -27.5 -233.5t-85 -211t-139.5 -172t-197.5 -115.5t-251.5 -42q-204 0 -364 97t-248 268.5t-88 386.5zM283 721q0 -80 16 -159.5t54.5 -158t94.5 -137.5 t143.5 -96t194.5 -37q104 0 189.5 33.5t143 91t97 136t57 165.5t17.5 182q0 162 -58 295t-174 215t-270 82q-232 0 -368.5 -165.5t-136.5 -446.5zM492 1878h233l156 -287h-140z" />
<glyph unicode="&#xd3;" horiz-adv-x="1574" d="M86 723q0 151 38 278t104.5 217t156 153.5t192.5 93.5t214 30q208 0 368.5 -102.5t244 -272t83.5 -375.5q0 -121 -27.5 -233.5t-85 -211t-139.5 -172t-197.5 -115.5t-251.5 -42q-204 0 -364 97t-248 268.5t-88 386.5zM283 721q0 -80 16 -159.5t54.5 -158t94.5 -137.5 t143.5 -96t194.5 -37q104 0 189.5 33.5t143 91t97 136t57 165.5t17.5 182q0 162 -58 295t-174 215t-270 82q-232 0 -368.5 -165.5t-136.5 -446.5zM692 1591l156 287h229l-243 -287h-142z" />
<glyph unicode="&#xd4;" horiz-adv-x="1574" d="M86 723q0 151 38 278t104.5 217t156 153.5t192.5 93.5t214 30q208 0 368.5 -102.5t244 -272t83.5 -375.5q0 -121 -27.5 -233.5t-85 -211t-139.5 -172t-197.5 -115.5t-251.5 -42q-204 0 -364 97t-248 268.5t-88 386.5zM283 721q0 -80 16 -159.5t54.5 -158t94.5 -137.5 t143.5 -96t194.5 -37q104 0 189.5 33.5t143 91t97 136t57 165.5t17.5 182q0 162 -58 295t-174 215t-270 82q-232 0 -368.5 -165.5t-136.5 -446.5zM473 1591l219 287h185l219 -287h-185l-127 174l-127 -174h-184z" />
<glyph unicode="&#xd5;" horiz-adv-x="1574" d="M86 723q0 151 38 278t104.5 217t156 153.5t192.5 93.5t214 30q208 0 368.5 -102.5t244 -272t83.5 -375.5q0 -121 -27.5 -233.5t-85 -211t-139.5 -172t-197.5 -115.5t-251.5 -42q-204 0 -364 97t-248 268.5t-88 386.5zM283 721q0 -80 16 -159.5t54.5 -158t94.5 -137.5 t143.5 -96t194.5 -37q104 0 189.5 33.5t143 91t97 136t57 165.5t17.5 182q0 162 -58 295t-174 215t-270 82q-232 0 -368.5 -165.5t-136.5 -446.5zM430 1591q12 106 65.5 167t143.5 61q52 0 100.5 -21t91.5 -42t82 -21q62 0 84 88h117q-6 -103 -59 -165.5t-152 -62.5 q-42 0 -130.5 43t-137.5 43q-38 0 -62 -26t-24 -64h-119z" />
<glyph unicode="&#xd6;" horiz-adv-x="1574" d="M86 723q0 151 38 278t104.5 217t156 153.5t192.5 93.5t214 30q208 0 368.5 -102.5t244 -272t83.5 -375.5q0 -121 -27.5 -233.5t-85 -211t-139.5 -172t-197.5 -115.5t-251.5 -42q-204 0 -364 97t-248 268.5t-88 386.5zM283 721q0 -80 16 -159.5t54.5 -158t94.5 -137.5 t143.5 -96t194.5 -37q104 0 189.5 33.5t143 91t97 136t57 165.5t17.5 182q0 162 -58 295t-174 215t-270 82q-232 0 -368.5 -165.5t-136.5 -446.5zM502 1610v209h186v-209h-186zM881 1610v209h186v-209h-186z" />
<glyph unicode="&#xd7;" horiz-adv-x="1212" d="M154 279l342 344l-340 342l110 108l340 -340l342 340l109 -108l-340 -342l342 -342l-111 -111l-342 342l-342 -342z" />
<glyph unicode="&#xd8;" horiz-adv-x="1576" d="M80 23l174 192q-82 105 -124 237t-42 271q0 162 47.5 302t135.5 245t222.5 165t299.5 60q267 0 458 -170l164 182l84 -73l-172 -191q162 -207 162 -498q0 -124 -29 -238t-88 -211.5t-142 -170t-196.5 -113.5t-245.5 -41q-269 0 -460 164l-166 -184zM285 721 q0 -213 96 -365l749 834q-133 139 -339 139q-126 0 -224.5 -48t-159 -132t-91.5 -192.5t-31 -235.5zM451 270q132 -135 337 -135q100 0 184 32.5t142.5 89t99 133.5t59.5 165.5t19 185.5q0 207 -94 359z" />
<glyph unicode="&#xd9;" horiz-adv-x="1478" d="M156 573v891h194v-891q0 -104 19.5 -181.5t64 -135.5t120.5 -87.5t185 -29.5q208 0 297.5 111t89.5 323v891h195v-891q0 -602 -580 -602q-291 0 -438 145.5t-147 456.5zM455 1878h233l156 -287h-139z" />
<glyph unicode="&#xda;" horiz-adv-x="1478" d="M156 573v891h194v-891q0 -104 19.5 -181.5t64 -135.5t120.5 -87.5t185 -29.5q208 0 297.5 111t89.5 323v891h195v-891q0 -602 -580 -602q-291 0 -438 145.5t-147 456.5zM649 1591l156 287h229l-243 -287h-142z" />
<glyph unicode="&#xdb;" horiz-adv-x="1478" d="M156 573v891h194v-891q0 -104 19.5 -181.5t64 -135.5t120.5 -87.5t185 -29.5q208 0 297.5 111t89.5 323v891h195v-891q0 -602 -580 -602q-291 0 -438 145.5t-147 456.5zM428 1591l219 287h184l220 -287h-185l-127 174l-127 -174h-184z" />
<glyph unicode="&#xdc;" horiz-adv-x="1478" d="M156 573v891h194v-891q0 -104 19.5 -181.5t64 -135.5t120.5 -87.5t185 -29.5q208 0 297.5 111t89.5 323v891h195v-891q0 -602 -580 -602q-291 0 -438 145.5t-147 456.5zM457 1610v209h186v-209h-186zM836 1610v209h186v-209h-186z" />
<glyph unicode="&#xdd;" horiz-adv-x="1347" d="M4 1464h234l434 -694l440 694h223l-571 -856v-608h-195v608zM563 1591l156 287h229l-243 -287h-142z" />
<glyph unicode="&#xde;" horiz-adv-x="1388" d="M158 0v1464h194v-266h412q254 0 377 -116t123 -318q0 -201 -123 -316.5t-377 -115.5h-412v-332h-194zM352 500h381q174 0 253 66.5t79 199.5q0 136 -82 200t-252 64h-379v-530z" />
<glyph unicode="&#xdf;" horiz-adv-x="1196" d="M141 0v975q0 84 2 125q12 177 120 285t294 108q178 0 285.5 -95t107.5 -231q0 -113 -43 -194q-52 -97 -182 -178q27 -18 174 -90q37 -17 71 -44t68 -67.5t55 -100t21 -128.5q0 -180 -111.5 -281.5t-295.5 -101.5q-91 0 -159 31.5t-102 78.5l93 123q75 -78 176 -78 q100 0 158.5 60t58.5 165q0 128 -111 199q-59 36 -151 86.5t-125 63.5v141q97 28 164 112.5t67 184.5q0 81 -60 137.5t-155 56.5q-70 0 -118 -22t-74.5 -65.5t-38 -99.5t-11.5 -132v-1024h-178z" />
<glyph unicode="&#xe0;" horiz-adv-x="1120" d="M74 287q0 145 102 221.5t285 89.5q280 19 340 115q2 16 2 45q0 180 -248 180q-122 0 -187.5 -48t-82.5 -161l-176 14q44 340 460 340q179 0 293.5 -81t114.5 -220v-528v-26t-0.5 -23.5t0 -19.5t1 -17.5t2 -14t4 -11.5t6 -8t8.5 -5.5t12 -1.5q15 0 30 6l15 -131 q-44 -11 -101 -14q-77 -4 -110 42.5t-33 106.5q-82 -89 -173.5 -125.5t-207.5 -36.5q-162 0 -259 83t-97 229zM262 287q0 -76 57.5 -119t151.5 -43q117 0 196.5 48.5t112.5 125.5q21 51 21 121v125h-4q-99 -58 -303 -78q-116 -11 -174 -52t-58 -128zM287 1468h233l156 -286 h-139z" />
<glyph unicode="&#xe1;" horiz-adv-x="1120" d="M74 287q0 145 102 221.5t285 89.5q280 19 340 115q2 16 2 45q0 180 -248 180q-122 0 -187.5 -48t-82.5 -161l-176 14q44 340 460 340q179 0 293.5 -81t114.5 -220v-528v-26t-0.5 -23.5t0 -19.5t1 -17.5t2 -14t4 -11.5t6 -8t8.5 -5.5t12 -1.5q15 0 30 6l15 -131 q-44 -11 -101 -14q-77 -4 -110 42.5t-33 106.5q-82 -89 -173.5 -125.5t-207.5 -36.5q-162 0 -259 83t-97 229zM262 287q0 -76 57.5 -119t151.5 -43q117 0 196.5 48.5t112.5 125.5q21 51 21 121v125h-4q-99 -58 -303 -78q-116 -11 -174 -52t-58 -128zM457 1182l155 286h230 l-244 -286h-141z" />
<glyph unicode="&#xe2;" horiz-adv-x="1120" d="M74 287q0 145 102 221.5t285 89.5q280 19 340 115q2 16 2 45q0 180 -248 180q-122 0 -187.5 -48t-82.5 -161l-176 14q44 340 460 340q179 0 293.5 -81t114.5 -220v-528v-26t-0.5 -23.5t0 -19.5t1 -17.5t2 -14t4 -11.5t6 -8t8.5 -5.5t12 -1.5q15 0 30 6l15 -131 q-44 -11 -101 -14q-77 -4 -110 42.5t-33 106.5q-82 -89 -173.5 -125.5t-207.5 -36.5q-162 0 -259 83t-97 229zM240 1182l219 286h184l219 -286h-184l-127 174l-127 -174h-184zM262 287q0 -76 57.5 -119t151.5 -43q117 0 196.5 48.5t112.5 125.5q21 51 21 121v125h-4 q-99 -58 -303 -78q-116 -11 -174 -52t-58 -128z" />
<glyph unicode="&#xe3;" horiz-adv-x="1120" d="M74 287q0 145 102 221.5t285 89.5q280 19 340 115q2 16 2 45q0 180 -248 180q-122 0 -187.5 -48t-82.5 -161l-176 14q44 340 460 340q179 0 293.5 -81t114.5 -220v-528v-26t-0.5 -23.5t0 -19.5t1 -17.5t2 -14t4 -11.5t6 -8t8.5 -5.5t12 -1.5q15 0 30 6l15 -131 q-44 -11 -101 -14q-77 -4 -110 42.5t-33 106.5q-82 -89 -173.5 -125.5t-207.5 -36.5q-162 0 -259 83t-97 229zM195 1221q12 106 65 166.5t143 60.5q52 0 100.5 -21t92 -42t82.5 -21q62 0 84 88h117q-6 -103 -58.5 -165t-152.5 -62q-42 0 -131 43t-138 43q-38 0 -62 -26 t-24 -64h-118zM262 287q0 -76 57.5 -119t151.5 -43q117 0 196.5 48.5t112.5 125.5q21 51 21 121v125h-4q-99 -58 -303 -78q-116 -11 -174 -52t-58 -128z" />
<glyph unicode="&#xe4;" horiz-adv-x="1120" d="M74 287q0 145 102 221.5t285 89.5q280 19 340 115q2 16 2 45q0 180 -248 180q-122 0 -187.5 -48t-82.5 -161l-176 14q44 340 460 340q179 0 293.5 -81t114.5 -220v-528v-26t-0.5 -23.5t0 -19.5t1 -17.5t2 -14t4 -11.5t6 -8t8.5 -5.5t12 -1.5q15 0 30 6l15 -131 q-44 -11 -101 -14q-77 -4 -110 42.5t-33 106.5q-82 -89 -173.5 -125.5t-207.5 -36.5q-162 0 -259 83t-97 229zM262 287q0 -76 57.5 -119t151.5 -43q117 0 196.5 48.5t112.5 125.5q21 51 21 121v125h-4q-99 -58 -303 -78q-116 -11 -174 -52t-58 -128zM270 1221v209h187v-209 h-187zM649 1221v209h187v-209h-187z" />
<glyph unicode="&#xe5;" horiz-adv-x="1120" d="M74 287q0 145 102 221.5t285 89.5q280 19 340 115q2 16 2 45q0 180 -248 180q-122 0 -187.5 -48t-82.5 -161l-176 14q44 340 460 340q179 0 293.5 -81t114.5 -220v-528v-26t-0.5 -23.5t0 -19.5t1 -17.5t2 -14t4 -11.5t6 -8t8.5 -5.5t12 -1.5q15 0 30 6l15 -131 q-44 -11 -101 -14q-77 -4 -110 42.5t-33 106.5q-82 -89 -173.5 -125.5t-207.5 -36.5q-162 0 -259 83t-97 229zM262 287q0 -76 57.5 -119t151.5 -43q117 0 196.5 48.5t112.5 125.5q21 51 21 121v125h-4q-99 -58 -303 -78q-116 -11 -174 -52t-58 -128zM362 1333q0 75 54 127.5 t129 52.5t128.5 -53.5t53.5 -128.5q0 -77 -53 -129.5t-129 -52.5t-129.5 53.5t-53.5 130.5zM453 1333q0 -40 27 -67t67 -27q38 0 65 27t27 65q0 40 -27 67t-65 27q-40 0 -67 -27t-27 -65z" />
<glyph unicode="&#xe6;" horiz-adv-x="1802" d="M74 276q0 146 100 225.5t279 90.5q168 10 241 39.5t99 81.5q12 118 -51 171.5t-195 53.5q-122 0 -188 -48.5t-83 -160.5l-176 14q44 340 461 340q120 0 215.5 -36t147.5 -103q136 139 342 139q144 0 248 -67t157.5 -177t63.5 -253q5 -65 0 -105h-774q2 -163 84.5 -258.5 t236.5 -95.5q98 0 169 52.5t95 158.5l178 -10q-30 -166 -154 -259.5t-290 -93.5q-138 0 -242 51t-168 146q-157 -197 -440 -197q-163 0 -259.5 78t-96.5 223zM262 285q0 -78 57 -120t152 -42q116 0 192 48t109 126q21 51 21 121v125h-5q-80 -60 -303 -78q-109 -8 -166.5 -50 t-56.5 -130zM963 631h587q-2 59 -20 111t-51.5 96t-89.5 70t-127 26q-131 0 -211 -84.5t-88 -218.5z" />
<glyph unicode="&#xe7;" horiz-adv-x="1060" d="M76 524q0 253 137.5 406t357.5 153q178 0 294.5 -93.5t142.5 -256.5l-177 -14q-23 103 -90 158t-166 55q-155 0 -235 -110t-80 -298q0 -186 78 -291.5t225 -105.5q118 0 190 66t89 194l178 -10q-29 -191 -147.5 -296t-305.5 -106l-41 -71l2 -2q7 3 27 3.5t33 -1.5 q63 -5 104 -44.5t41 -99.5q0 -88 -78.5 -137t-195.5 -49q-73 0 -164 27l24 102q44 -16 132 -16q56 0 89 18t33 53q0 62 -112 62q-12 0 -58 -4l-12 45l70 125q-181 31 -283 173t-102 365z" />
<glyph unicode="&#xe8;" horiz-adv-x="1120" d="M76 526q0 79 17 155.5t55.5 150t94.5 129t141.5 89t188.5 33.5q110 0 200.5 -39t150 -107t93.5 -157.5t38 -193.5q0 -90 -2 -105h-793q2 -161 88 -257.5t236 -96.5q218 0 280 213l178 -12q-41 -172 -158.5 -262.5t-299.5 -90.5q-233 0 -370.5 152.5t-137.5 398.5z M266 631h600q-2 58 -21.5 111t-54.5 96.5t-92 69.5t-129 26q-131 0 -213 -85t-90 -218zM270 1468h234l155 -286h-139z" />
<glyph unicode="&#xe9;" horiz-adv-x="1120" d="M76 526q0 79 17 155.5t55.5 150t94.5 129t141.5 89t188.5 33.5q110 0 200.5 -39t150 -107t93.5 -157.5t38 -193.5q0 -90 -2 -105h-793q2 -161 88 -257.5t236 -96.5q218 0 280 213l178 -12q-41 -172 -158.5 -262.5t-299.5 -90.5q-233 0 -370.5 152.5t-137.5 398.5z M266 631h600q-2 58 -21.5 111t-54.5 96.5t-92 69.5t-129 26q-131 0 -213 -85t-90 -218zM506 1182l156 286h229l-244 -286h-141z" />
<glyph unicode="&#xea;" horiz-adv-x="1120" d="M76 526q0 79 17 155.5t55.5 150t94.5 129t141.5 89t188.5 33.5q110 0 200.5 -39t150 -107t93.5 -157.5t38 -193.5q0 -90 -2 -105h-793q2 -161 88 -257.5t236 -96.5q218 0 280 213l178 -12q-41 -172 -158.5 -262.5t-299.5 -90.5q-233 0 -370.5 152.5t-137.5 398.5z M266 631h600q-2 58 -21.5 111t-54.5 96.5t-92 69.5t-129 26q-131 0 -213 -85t-90 -218zM274 1182l220 286h184l219 -286h-184l-127 174l-127 -174h-185z" />
<glyph unicode="&#xeb;" horiz-adv-x="1120" d="M76 526q0 79 17 155.5t55.5 150t94.5 129t141.5 89t188.5 33.5q110 0 200.5 -39t150 -107t93.5 -157.5t38 -193.5q0 -90 -2 -105h-793q2 -161 88 -257.5t236 -96.5q218 0 280 213l178 -12q-41 -172 -158.5 -262.5t-299.5 -90.5q-233 0 -370.5 152.5t-137.5 398.5z M266 631h600q-2 58 -21.5 111t-54.5 96.5t-92 69.5t-129 26q-131 0 -213 -85t-90 -218zM299 1221v209h186v-209h-186zM678 1221v209h186v-209h-186z" />
<glyph unicode="&#xec;" horiz-adv-x="512" d="M-55 1468h233l156 -286h-139zM170 0v1061h178v-1061h-178z" />
<glyph unicode="&#xed;" horiz-adv-x="512" d="M170 0v1061h178v-1061h-178zM178 1182l156 286h229l-244 -286h-141z" />
<glyph unicode="&#xee;" horiz-adv-x="512" d="M-51 1182l219 286h184l219 -286h-184l-127 174l-127 -174h-184zM170 0v1061h178v-1061h-178z" />
<glyph unicode="&#xef;" horiz-adv-x="512" d="M-23 1221v209h187v-209h-187zM170 0v1061h178v-1061h-178zM356 1221v209h187v-209h-187z" />
<glyph unicode="&#xf0;" horiz-adv-x="1146" d="M74 522q0 150 56 269.5t163 188.5t248 69q138 0 250 -86q-69 141 -195 260q-172 -78 -256 -119l-61 92l231 107q-68 63 -176 133l180 45q88 -64 141 -109l232 109l57 -88l-203 -97q338 -332 338 -772q0 -161 -60.5 -285t-175.5 -194t-268 -70q-228 0 -364.5 146 t-136.5 401zM256 520q0 -187 90 -291t229 -104q136 0 227 106.5t91 296.5q0 169 -86.5 272t-239.5 103q-146 0 -228.5 -100.5t-82.5 -282.5z" />
<glyph unicode="&#xf1;" d="M147 0v1061h162v-160h2q114 182 342 182q103 0 175.5 -31t112.5 -88.5t57.5 -128t17.5 -161.5v-674h-176v711q0 106 -55.5 162.5t-161.5 56.5q-147 0 -223 -90.5t-76 -251.5v-588h-177zM238 1221q12 106 65 166.5t143 60.5q52 0 100.5 -21t92 -42t82.5 -21q62 0 84 88 h117q-6 -103 -58.5 -165t-152.5 -62q-42 0 -131 43t-138 43q-38 0 -62 -26t-24 -64h-118z" />
<glyph unicode="&#xf2;" horiz-adv-x="1142" d="M66 528q0 62 11 124t33.5 125.5t63 117.5t94.5 96.5t132 67t171 24.5q125 0 223.5 -44.5t159 -120.5t92 -173t31.5 -208q0 -87 -17.5 -166.5t-57 -152.5t-97 -126.5t-143.5 -85t-191 -31.5q-236 0 -370.5 151.5t-134.5 401.5zM252 528q0 -190 89.5 -295.5t229.5 -105.5 q142 0 232 105.5t90 299.5q0 189 -91 295.5t-231 106.5q-141 0 -230 -106t-89 -300zM276 1468h234l156 -286h-140z" />
<glyph unicode="&#xf3;" horiz-adv-x="1142" d="M66 528q0 62 11 124t33.5 125.5t63 117.5t94.5 96.5t132 67t171 24.5q125 0 223.5 -44.5t159 -120.5t92 -173t31.5 -208q0 -87 -17.5 -166.5t-57 -152.5t-97 -126.5t-143.5 -85t-191 -31.5q-236 0 -370.5 151.5t-134.5 401.5zM252 528q0 -190 89.5 -295.5t229.5 -105.5 q142 0 232 105.5t90 299.5q0 189 -91 295.5t-231 106.5q-141 0 -230 -106t-89 -300zM487 1182l156 286h229l-243 -286h-142z" />
<glyph unicode="&#xf4;" horiz-adv-x="1142" d="M66 528q0 62 11 124t33.5 125.5t63 117.5t94.5 96.5t132 67t171 24.5q125 0 223.5 -44.5t159 -120.5t92 -173t31.5 -208q0 -87 -17.5 -166.5t-57 -152.5t-97 -126.5t-143.5 -85t-191 -31.5q-236 0 -370.5 151.5t-134.5 401.5zM252 528q0 -190 89.5 -295.5t229.5 -105.5 q142 0 232 105.5t90 299.5q0 189 -91 295.5t-231 106.5q-141 0 -230 -106t-89 -300zM260 1182l219 286h185l219 -286h-185l-127 174l-127 -174h-184z" />
<glyph unicode="&#xf5;" horiz-adv-x="1142" d="M66 528q0 62 11 124t33.5 125.5t63 117.5t94.5 96.5t132 67t171 24.5q125 0 223.5 -44.5t159 -120.5t92 -173t31.5 -208q0 -87 -17.5 -166.5t-57 -152.5t-97 -126.5t-143.5 -85t-191 -31.5q-236 0 -370.5 151.5t-134.5 401.5zM223 1221q12 106 65.5 166.5t143.5 60.5 q52 0 100.5 -21t92 -42t82.5 -21q62 0 84 88h116q-6 -103 -58.5 -165t-152.5 -62q-42 0 -130.5 43t-137.5 43q-38 0 -62 -26t-24 -64h-119zM252 528q0 -190 89.5 -295.5t229.5 -105.5q142 0 232 105.5t90 299.5q0 189 -91 295.5t-231 106.5q-141 0 -230 -106t-89 -300z" />
<glyph unicode="&#xf6;" horiz-adv-x="1142" d="M66 528q0 62 11 124t33.5 125.5t63 117.5t94.5 96.5t132 67t171 24.5q125 0 223.5 -44.5t159 -120.5t92 -173t31.5 -208q0 -87 -17.5 -166.5t-57 -152.5t-97 -126.5t-143.5 -85t-191 -31.5q-236 0 -370.5 151.5t-134.5 401.5zM252 528q0 -190 89.5 -295.5t229.5 -105.5 q142 0 232 105.5t90 299.5q0 189 -91 295.5t-231 106.5q-141 0 -230 -106t-89 -300zM285 1221v209h186v-209h-186zM664 1221v209h186v-209h-186z" />
<glyph unicode="&#xf7;" horiz-adv-x="1175" d="M279 449v172h618v-172h-618zM477 0v215h215v-215h-215zM477 844v217h215v-217h-215z" />
<glyph unicode="&#xf8;" horiz-adv-x="1214" d="M100 528q0 265 150 418q134 137 356 137q195 0 320 -104l108 131l76 -61l-115 -138q117 -144 117 -374q0 -219 -96 -359q-67 -97 -172 -150t-238 -53q-184 0 -313 97l-111 -133l-76 59l119 141q-125 143 -125 389zM287 528q0 -150 57 -247l473 569q-87 84 -211 84 q-142 0 -230.5 -105.5t-88.5 -300.5zM403 203q85 -76 203 -76q142 0 232 105.5t90 299.5q0 141 -51 238z" />
<glyph unicode="&#xf9;" d="M129 383v678h176v-582q0 -107 6 -168q9 -85 64 -133.5t147 -48.5q148 0 222.5 97t74.5 251v584h178v-1061h-161v162h-2q-117 -187 -342 -187q-283 0 -349 246q-14 55 -14 162zM283 1468h233l156 -286h-140z" />
<glyph unicode="&#xfa;" d="M129 383v678h176v-582q0 -107 6 -168q9 -85 64 -133.5t147 -48.5q148 0 222.5 97t74.5 251v584h178v-1061h-161v162h-2q-117 -187 -342 -187q-283 0 -349 246q-14 55 -14 162zM469 1182l156 286h229l-244 -286h-141z" />
<glyph unicode="&#xfb;" d="M129 383v678h176v-582q0 -107 6 -168q9 -85 64 -133.5t147 -48.5q148 0 222.5 97t74.5 251v584h178v-1061h-161v162h-2q-117 -187 -342 -187q-283 0 -349 246q-14 55 -14 162zM256 1182l219 286h184l220 -286h-185l-127 174l-127 -174h-184z" />
<glyph unicode="&#xfc;" d="M129 383v678h176v-582q0 -107 6 -168q9 -85 64 -133.5t147 -48.5q148 0 222.5 97t74.5 251v584h178v-1061h-161v162h-2q-117 -187 -342 -187q-283 0 -349 246q-14 55 -14 162zM285 1221v209h186v-209h-186zM664 1221v209h186v-209h-186z" />
<glyph unicode="&#xfd;" horiz-adv-x="1024" d="M25 1061h194l213 -600l88 -264h2l92 264l209 600h183l-482 -1262q-50 -129 -112 -177t-170 -48q-58 0 -119 18l-10 166q64 -22 102 -22q59 -2 94.5 18t55.5 70l71 178zM436 1182l156 286h229l-243 -286h-142z" />
<glyph unicode="&#xfe;" horiz-adv-x="1177" d="M135 -408v1872h178v-536q109 151 316 151q145 0 253 -73.5t162 -196.5t54 -277q0 -161 -56.5 -288t-164 -200t-250.5 -73q-193 0 -314 150v-529h-178zM301 522q0 -183 81 -291t228 -108q146 0 224.5 111.5t78.5 300.5q0 179 -82 288t-223 109q-140 0 -223.5 -115 t-83.5 -295z" />
<glyph unicode="&#xff;" horiz-adv-x="1024" d="M25 1061h194l213 -600l88 -264h2l92 264l209 600h183l-482 -1262q-50 -129 -112 -177t-170 -48q-58 0 -119 18l-10 166q64 -22 102 -22q59 -2 94.5 18t55.5 70l71 178zM238 1221v209h186v-209h-186zM616 1221v209h187v-209h-187z" />
<glyph unicode="&#x152;" horiz-adv-x="2123" d="M102 731q0 156 38.5 291t114 241.5t200.5 168t286 61.5q117 0 222.5 -48t158.5 -140h2v159h904v-170h-715v-454h657v-168h-657v-504h737v-168h-926v176h-2q-60 -101 -161.5 -153t-227.5 -52q-158 0 -281 61t-198 167t-113.5 241t-38.5 291zM301 719q0 -93 15 -177 t48.5 -160.5t83.5 -132t125 -88t168 -32.5q160 0 267 113q20 22 36 45t27.5 51t20 49.5t13 56.5t8 54t4.5 60t1.5 56.5t0 61.5t-0.5 59t0.5 59t0 60.5t-1.5 54.5t-4.5 58t-8 52t-13 55t-20 49t-27.5 52t-36 48q-45 55 -116 82.5t-149 27.5q-93 0 -167.5 -31t-125.5 -86 t-84.5 -133t-49 -168.5t-15.5 -195.5z" />
<glyph unicode="&#x153;" horiz-adv-x="1865" d="M63 524q0 116 31 216t90 177.5t154.5 121.5t216.5 44q131 0 228.5 -49.5t152.5 -144.5q59 92 163.5 143t227.5 51q144 0 248 -67t157.5 -177t63.5 -253q5 -65 0 -105h-774q2 -163 84.5 -258.5t236.5 -95.5q98 0 169.5 53t95.5 158l178 -10q-30 -166 -154.5 -259.5 t-290.5 -93.5q-275 0 -409 199q-124 -199 -379 -199q-158 0 -270 72t-166 194t-54 283zM248 532q0 -81 16.5 -150.5t51 -128t95 -92.5t140.5 -34q81 0 142 34.5t95.5 93.5t51 128.5t16.5 148.5q0 180 -78 291t-227 111q-137 0 -220 -117.5t-83 -284.5zM1024 631h588 q-2 58 -20.5 111t-52 96.5t-89.5 69.5t-127 26q-131 0 -211 -84.5t-88 -218.5z" />
<glyph unicode="&#x178;" horiz-adv-x="1347" d="M4 1464h234l434 -694l440 694h223l-571 -856v-608h-195v608zM389 1610v209h186v-209h-186zM768 1610v209h186v-209h-186z" />
<glyph unicode="&#x2c6;" horiz-adv-x="522" d="M-49 1182l219 286h184l219 -286h-184l-127 174l-127 -174h-184z" />
<glyph unicode="&#x2dc;" horiz-adv-x="569" d="M-55 1221q12 106 65.5 166.5t143.5 60.5q52 0 100.5 -21t91.5 -42t82 -21q62 0 84 88h117q-6 -103 -58.5 -165t-152.5 -62q-42 0 -130.5 43t-137.5 43q-38 0 -62.5 -26.5t-24.5 -63.5h-118z" />
<glyph unicode="&#x2000;" horiz-adv-x="958" />
<glyph unicode="&#x2001;" horiz-adv-x="1917" />
<glyph unicode="&#x2002;" horiz-adv-x="958" />
<glyph unicode="&#x2003;" horiz-adv-x="1917" />
<glyph unicode="&#x2004;" horiz-adv-x="639" />
<glyph unicode="&#x2005;" horiz-adv-x="479" />
<glyph unicode="&#x2006;" horiz-adv-x="319" />
<glyph unicode="&#x2007;" horiz-adv-x="319" />
<glyph unicode="&#x2008;" horiz-adv-x="239" />
<glyph unicode="&#x2009;" horiz-adv-x="383" />
<glyph unicode="&#x200a;" horiz-adv-x="106" />
<glyph unicode="&#x2010;" horiz-adv-x="739" d="M84 463v172h571v-172h-571z" />
<glyph unicode="&#x2011;" horiz-adv-x="739" d="M84 463v172h571v-172h-571z" />
<glyph unicode="&#x2012;" horiz-adv-x="739" d="M84 463v172h571v-172h-571z" />
<glyph unicode="&#x2013;" horiz-adv-x="1081" d="M-2 473v154h1081v-154h-1081z" />
<glyph unicode="&#x2014;" horiz-adv-x="2048" d="M0 473v154h2048v-154h-2048z" />
<glyph unicode="&#x2018;" horiz-adv-x="512" d="M150 973v227q0 105 43 170q56 89 151 107l23 -86q-63 -11 -89 -61t-26 -140h108v-217h-210z" />
<glyph unicode="&#x2019;" horiz-adv-x="512" d="M139 1053q63 11 89 60.5t26 139.5h-109v217h211v-227q0 -105 -43 -170q-56 -87 -151 -106z" />
<glyph unicode="&#x201a;" horiz-adv-x="512" d="M139 -201q63 11 89 61t26 140h-109v217h211v-227q0 -105 -43 -170q-56 -89 -151 -107z" />
<glyph unicode="&#x201c;" horiz-adv-x="776" d="M109 973v227q0 105 43 170q56 89 151 107l23 -86q-63 -11 -89 -61t-26 -140h108v-217h-210zM451 973v227q0 105 43 170q56 89 151 107l23 -86q-63 -11 -89 -61t-26 -140h109v-217h-211z" />
<glyph unicode="&#x201d;" horiz-adv-x="776" d="M104 1053q63 11 89 60.5t26 139.5h-108v217h211v-227q0 -105 -43 -170q-56 -87 -152 -106zM446 1053q63 11 89 60.5t26 139.5h-108v217h211v-227q0 -105 -43 -170q-56 -87 -152 -106z" />
<glyph unicode="&#x201e;" horiz-adv-x="776" d="M104 -201q63 11 89 61t26 140h-108v217h211v-227q0 -105 -43 -170q-56 -88 -152 -107zM446 -201q63 11 89 61t26 140h-108v217h211v-227q0 -105 -43 -170q-56 -88 -152 -107z" />
<glyph unicode="&#x2022;" horiz-adv-x="870" d="M129 723q0 127 90.5 218t218.5 91t219 -91t91 -218t-91 -218t-219 -91t-218.5 91t-90.5 218z" />
<glyph unicode="&#x2026;" horiz-adv-x="2048" d="M233 0v215h216v-215h-216zM915 0v215h215v-215h-215zM1597 0v215h218v-215h-218z" />
<glyph unicode="&#x202f;" horiz-adv-x="383" />
<glyph unicode="&#x2039;" horiz-adv-x="606" d="M113 477v121l315 346l74 -88l-238 -311l238 -305l-74 -88z" />
<glyph unicode="&#x203a;" horiz-adv-x="606" d="M98 240l238 305l-238 311l74 88l315 -346v-121l-315 -325z" />
<glyph unicode="&#x205f;" horiz-adv-x="479" />
<glyph unicode="&#x20ac;" horiz-adv-x="1329" d="M29 512v133h125q-2 29 -2 92q0 55 2 82h-125v135h143q47 247 197 393t374 146q213 0 352 -118t179 -333l-182 -22q-74 309 -349 309q-87 0 -155 -28.5t-113 -81t-73.5 -118t-43.5 -147.5h494v-135h-510q-2 -27 -2 -82q0 -63 2 -92h510v-133h-494q20 -104 59.5 -180 t92.5 -117.5t110 -60.5t121 -19q160 0 253 103.5t120 293.5l184 -24q-40 -259 -184 -398t-375 -139q-228 0 -376.5 139t-192.5 402h-141z" />
<glyph unicode="&#x2122;" horiz-adv-x="2037" d="M178 1348v116h666v-116h-264v-713h-138v713h-264zM975 635v829h209l229 -647l223 647h205v-829h-133v694h-2l-242 -694h-106l-248 698h-2v-698h-133z" />
<glyph unicode="&#x25fc;" horiz-adv-x="1064" d="M0 0v1065h1065v-1065h-1065z" />
</font>
</defs>
</svg>
